<svg width="1600" height="1600" viewBox="0 0 1600 1600" fill="none" xmlns="http://www.w3.org/2000/svg">
<path d="M1574.55 289.374C1539 305.137 1502.1 317.574 1464.23 326.577C1505.96 286.928 1537.33 237.335 1555.03 181.98C1560.08 166.177 1542.92 152.512 1528.65 160.973C1475.97 192.22 1419.22 215.661 1359.99 230.652C1356.55 231.522 1353.01 231.963 1349.45 231.963C1338.66 231.963 1328.17 227.957 1319.92 220.685C1256.89 165.14 1175.84 134.548 1091.68 134.548C1055.26 134.548 1018.5 140.224 982.398 151.42C870.55 186.111 784.249 278.373 757.172 392.203C747.014 434.899 744.264 477.634 748.992 519.218C749.534 523.997 747.276 527.332 745.883 528.897C743.437 531.639 739.969 533.211 736.368 533.211C735.967 533.211 735.553 533.192 735.143 533.153C490.311 510.406 269.532 392.453 113.474 201.025C105.516 191.26 90.2556 192.458 83.9126 203.338C53.3525 255.767 37.2025 315.732 37.2025 376.751C37.2025 470.265 74.7727 558.392 140.032 622.637C112.589 616.13 86.027 605.882 61.3534 592.178C49.4164 585.547 34.7293 594.07 34.5615 607.724C32.8529 746.645 114.188 870.258 236.031 925.921C233.577 925.98 231.123 926.007 228.666 926.007C209.352 926.007 189.797 924.142 170.549 920.464C157.106 917.897 145.813 930.649 149.987 943.682C189.535 1067.15 295.844 1158.16 423.062 1178.82C317.479 1249.7 194.524 1287.09 66.5534 1287.09L26.6582 1287.06C14.3663 1287.06 3.97018 1295.08 0.837708 1306.98C-2.24795 1318.71 3.43575 1331.08 13.9176 1337.18C158.121 1421.1 322.605 1465.45 489.66 1465.45C635.887 1465.45 772.671 1436.43 896.214 1379.21C1009.47 1326.74 1109.55 1251.75 1193.68 1156.3C1272.05 1067.39 1333.34 964.751 1375.83 851.241C1416.33 743.04 1437.74 627.587 1437.74 517.362V512.111C1437.73 494.412 1445.74 477.759 1459.7 466.423C1512.7 423.395 1558.85 372.745 1596.86 315.881C1606.9 300.866 1591.07 282.048 1574.55 289.374Z" fill="#00B4FF"/>
</svg>
