<svg width="1600" height="1600" viewBox="0 0 1600 1600" fill="none" xmlns="http://www.w3.org/2000/svg">
<g clip-path="url(#clip0)">
<path d="M800 33.3333C358 33.3333 0 385.333 0 819.467C0 1166.87 229.2 1461.47 547 1565.33C587 1572.73 601.667 1548.4 601.667 1527.53C601.667 1508.87 601 1459.4 600.667 1393.87C378.133 1441.27 331.2 1288.4 331.2 1288.4C294.8 1197.67 242.2 1173.4 242.2 1173.4C169.733 1124.67 247.8 1125.67 247.8 1125.67C328.133 1131.13 370.333 1206.67 370.333 1206.67C441.667 1326.87 557.6 1292.13 603.333 1272.07C610.533 1221.2 631.133 1186.6 654 1166.93C476.333 1147.27 289.6 1079.67 289.6 778.467C289.6 692.667 320.6 622.533 371.933 567.533C362.933 547.667 335.933 467.733 378.933 359.467C378.933 359.467 445.933 338.4 598.933 440.067C662.933 422.6 730.933 413.933 798.933 413.533C866.933 413.933 934.933 422.6 998.933 440.067C1150.93 338.4 1217.93 359.467 1217.93 359.467C1260.93 467.733 1233.93 547.667 1225.93 567.533C1276.93 622.533 1307.93 692.667 1307.93 778.467C1307.93 1080.47 1120.93 1146.93 942.933 1166.27C970.933 1189.87 996.933 1238.07 996.933 1311.73C996.933 1416.93 995.933 1501.47 995.933 1527C995.933 1547.6 1009.93 1572.2 1050.93 1564.33C1371 1461.13 1600 1166.33 1600 819.467C1600 385.333 1241.8 33.3333 800 33.3333Z" fill="#3A3331"/>
</g>
<defs>
<clipPath id="clip0">
<rect width="1600" height="1600" fill="white"/>
</clipPath>
</defs>
</svg>
