<svg width="1600" height="1600" viewBox="0 0 1600 1600" fill="none" xmlns="http://www.w3.org/2000/svg">
<path d="M1108.87 1088.26H895.615C889.939 1088.25 884.502 1085.98 880.499 1081.96C876.495 1077.93 874.254 1072.49 874.268 1066.81V531.597C874.268 519.773 883.842 510.198 895.615 510.198H1093.34C1241.72 510.198 1272.85 597.569 1272.85 670.815C1272.85 713.193 1261.6 746.834 1239.26 771.526C1293.67 793.97 1322.97 844.563 1322.97 917.753C1322.97 1024.54 1242.92 1088.26 1108.88 1088.26L1108.87 1088.26ZM799.242 1088.26H356.303C353.496 1088.25 350.717 1087.69 348.126 1086.61C345.536 1085.52 343.184 1083.94 341.206 1081.95C339.228 1079.96 337.662 1077.59 336.599 1074.99C335.536 1072.4 334.995 1069.61 335.009 1066.81V531.591C335.009 519.767 344.531 510.193 356.303 510.193H563.231C692.462 510.193 769.582 579.776 769.582 696.341C769.582 773.878 730.604 834.776 667.766 859.519L815.153 1052.62C817.857 1055.71 819.618 1059.51 820.226 1063.57C820.834 1067.63 820.264 1071.78 818.584 1075.53C816.903 1079.28 814.183 1082.46 810.747 1084.71C807.31 1086.95 803.301 1088.16 799.195 1088.2L799.242 1088.26ZM799.98 0C358.202 0 0 358.168 0 799.94C0 1241.82 358.186 1600 800.02 1600C1241.85 1600 1600 1241.83 1600 800.02C1600 358.208 1241.92 0.08005 800.06 0.08005" fill="#FD3018"/>
</svg>
