<svg width="1600" height="1600" viewBox="0 0 1600 1600" fill="none" xmlns="http://www.w3.org/2000/svg">
<path d="M176.891 458.141L110.61 391.859L171.216 331.25L77.4658 237.5L204.36 110.609L270.641 176.891L210.035 237.5L303.785 331.25L176.891 458.141Z" fill="#FF873C"/>
<path d="M1423.11 458.141L1296.22 331.25L1389.97 237.5L1329.36 176.891L1395.64 110.609L1522.53 237.5L1428.78 331.25L1489.39 391.859L1423.11 458.141Z" fill="#FD4E26"/>
<path d="M204.36 1489.39L77.4658 1362.5L171.216 1268.75L110.61 1208.14L176.891 1141.86L303.785 1268.75L210.035 1362.5L270.641 1423.11L204.36 1489.39Z" fill="#FF873C"/>
<path d="M1395.64 1489.39L1329.36 1423.11L1389.97 1362.5L1296.22 1268.75L1423.11 1141.86L1489.39 1208.14L1428.78 1268.75L1522.53 1362.5L1395.64 1489.39Z" fill="#FD4E26"/>
<path d="M800 987.5C920.003 987.5 1039.95 987.5 1034.38 987.5C1137.93 987.5 1221.88 903.553 1221.88 800C1221.88 696.444 1137.93 612.5 1034.38 612.5C1027.53 612.5 913.737 612.5 800 612.5C680.347 612.5 560.737 612.5 565.625 612.5V518.75H800C922.819 518.75 1045.71 518.75 1034.38 518.75C1137.93 518.75 1221.88 434.803 1221.88 331.25C1221.88 227.697 1137.93 143.75 1034.38 143.75H800H753.125V0H565.625V143.75C565.625 221.416 628.584 284.375 706.25 284.375H800H1034.38V378.125C1005.9 378.125 902.538 378.125 800 378.125C676.225 378.125 553.659 378.125 565.625 378.125C462.072 378.125 378.125 462.069 378.125 565.625C378.125 669.178 462.072 753.125 565.625 753.125H800C922.144 753.125 1044.32 753.125 1034.38 753.125V846.875C1028.2 846.875 914.156 846.875 800 846.875C676.072 846.875 552.019 846.875 565.625 846.875C462.072 846.875 378.125 930.819 378.125 1034.38C378.125 1137.93 462.072 1221.88 565.625 1221.88H800C923.625 1221.88 1047.11 1221.88 1034.38 1221.88V1315.62H800H706.25C628.584 1315.62 565.625 1378.58 565.625 1456.25V1600H753.125V1456.25H800H1034.38C1137.93 1456.25 1221.88 1372.3 1221.88 1268.75C1221.88 1165.2 1137.93 1081.25 1034.38 1081.25C981.475 1081.25 890.769 1081.25 800 1081.25C709.444 1081.25 618.816 1081.25 565.625 1081.25V987.5H800Z" fill="#FF873C"/>
<path d="M1221.88 1268.75C1221.88 1165.2 1137.93 1081.25 1034.38 1081.25C981.475 1081.25 890.769 1081.25 800 1081.25V1221.88C923.625 1221.88 1047.11 1221.88 1034.38 1221.88V1315.62H800V1456.25H1034.38C1137.93 1456.25 1221.88 1372.3 1221.88 1268.75Z" fill="#FD4E26"/>
<path d="M1034.38 987.5C1137.93 987.5 1221.88 903.553 1221.88 800C1221.88 696.444 1137.93 612.5 1034.38 612.5C1027.53 612.5 913.737 612.5 800 612.5V753.125C922.144 753.125 1044.32 753.125 1034.38 753.125V846.875C1028.2 846.875 914.156 846.875 800 846.875V987.5C920.003 987.5 1039.95 987.5 1034.38 987.5Z" fill="#FD4E26"/>
<path d="M1034.38 518.75C1137.93 518.75 1221.88 434.803 1221.88 331.25C1221.88 227.697 1137.93 143.75 1034.38 143.75H800V284.375H1034.38V378.125C1005.9 378.125 902.538 378.125 800 378.125V518.75C922.819 518.75 1045.71 518.75 1034.38 518.75Z" fill="#FD4E26"/>
</svg>
