<svg width="1600" height="1600" viewBox="0 0 1600 1600" fill="none" xmlns="http://www.w3.org/2000/svg">
<path d="M475.41 212.818V241.939H445.071C443.879 226.641 439.923 211.846 435.24 197.772L463.197 186.371L451.87 159.468L423.819 170.907C416.839 157.431 408.32 144.885 398.398 133.503L419.882 112.359L440.803 132.949L461.724 112.359L398.961 50.5906L378.04 71.1802L398.961 91.7697L377.477 112.914C365.913 103.148 353.164 94.7644 339.47 87.8947L351.094 60.2879L323.758 49.1403L312.173 76.6549C297.873 72.046 282.839 69.1242 267.295 67.9506V37.1211H296.885V8H252.5H208.115V37.1211H237.705V67.9506C222.161 69.1232 207.127 72.046 192.827 76.6549L181.242 49.1403L153.906 60.2879L165.53 87.8947C151.836 94.7644 139.088 103.148 127.523 112.914L106.039 91.7697L126.96 71.1802L106.039 50.5906L43.2761 112.359L64.1971 132.949L85.1181 112.359L106.602 133.503C96.6799 144.884 88.161 157.431 81.1807 170.907L53.1296 159.468L41.8026 186.371L69.761 197.772C65.0779 211.846 61.1208 226.641 59.9283 241.939H29.5898V212.818H0V300.182H29.5898V271.061H59.9293C61.1208 286.359 65.0789 301.154 69.762 315.228L41.8026 326.629L53.1296 353.532L81.1807 342.093C88.161 355.569 96.6799 368.115 106.602 379.497L85.1181 400.641L64.1971 380.051L43.2761 400.641L106.039 462.409L126.96 441.82L106.039 421.23L127.523 400.086C139.087 409.852 151.836 418.236 165.53 425.105L153.906 452.712L181.242 463.86L192.827 436.343C207.127 440.952 222.161 443.876 237.705 445.049V475.879H208.115V505H252.5H296.885V475.879H267.295V445.049C282.839 443.877 297.873 440.952 312.173 436.343L323.758 463.86L351.094 452.712L339.47 425.105C353.164 418.236 365.912 409.852 377.477 400.086L398.961 421.23L378.04 441.82L398.961 462.409L461.724 400.641L440.803 380.051L419.882 400.641L398.398 379.497C408.32 368.116 416.839 355.569 423.819 342.093L451.87 353.532L463.197 326.629L435.24 315.228C439.923 301.154 443.878 286.359 445.071 271.061H475.41V300.182H505V212.818H475.41Z" fill="#FD4E26"/>
<path d="M296.885 475.879H267.295V445.049C282.839 443.877 297.873 440.952 312.173 436.343L323.758 463.86L351.094 452.712L339.47 425.105C353.164 418.236 365.912 409.852 377.477 400.086L398.961 421.23L378.04 441.82L398.961 462.409L461.724 400.641L440.803 380.051L419.882 400.641L398.398 379.497C408.32 368.116 416.839 355.569 423.819 342.093L451.87 353.532L463.197 326.629L435.24 315.228C439.923 301.154 443.878 286.359 445.071 271.061H475.41V300.182H505V212.818H475.41V241.939H445.071C443.879 226.641 439.923 211.846 435.24 197.772L463.197 186.371L451.87 159.468L423.819 170.907C416.839 157.431 408.32 144.885 398.398 133.503L419.882 112.359L440.803 132.949L461.724 112.359L398.961 50.5906L378.04 71.1802L398.961 91.7697L377.477 112.914C365.913 103.148 353.164 94.7644 339.47 87.8947L351.094 60.2879L323.758 49.1403L312.173 76.6549C297.873 72.046 282.839 69.1242 267.295 67.9506V37.1211H296.885V8H252.5V505H296.885V475.879Z" fill="#FD3018"/>
<path d="M252.5 416.666C342.926 416.666 416.23 344.957 416.23 256.5C416.23 168.043 342.926 96.334 252.5 96.334C162.074 96.334 88.7695 168.043 88.7695 256.5C88.7695 344.957 162.074 416.666 252.5 416.666Z" fill="#FF873C"/>
<path d="M416.23 256.5C416.23 168.184 342.237 96.334 252.5 96.334V416.666C342.237 416.666 416.23 344.816 416.23 256.5Z" fill="#FD4E26"/>
<path d="M163.73 300.182C139.256 300.182 119.346 280.587 119.346 256.5C119.346 232.413 139.256 212.818 163.73 212.818C188.205 212.818 208.115 232.413 208.115 256.5C208.115 280.587 188.205 300.182 163.73 300.182Z" fill="#FFBFAB"/>
<path d="M341.27 300.182C316.795 300.182 296.885 280.587 296.885 256.5C296.885 232.413 316.795 212.818 341.27 212.818C365.744 212.818 385.654 232.413 385.654 256.5C385.654 280.587 365.744 300.182 341.27 300.182Z" fill="#FFB293"/>
<path d="M148.936 154.576H178.525V183.697H148.936V154.576Z" fill="#FFBFAB"/>
<path d="M326.475 154.576H356.064V183.697H326.475V154.576Z" fill="#FFB293"/>
<path d="M148.936 329.303H178.525V358.424H148.936V329.303Z" fill="#FFBFAB"/>
<path d="M326.475 329.303H356.064V358.424H326.475V329.303Z" fill="#FFB293"/>
<path d="M252.5 212.818C277.013 212.818 296.885 193.261 296.885 169.137C296.885 145.012 277.013 125.455 252.5 125.455C227.987 125.455 208.115 145.012 208.115 169.137C208.115 193.261 227.987 212.818 252.5 212.818Z" fill="#FFBB99"/>
<path d="M237.705 241.939V271.061H252.5H267.295V241.939H252.5H237.705Z" fill="#FFBFAB"/>
<path d="M252.5 387.545C277.013 387.545 296.885 367.988 296.885 343.863C296.885 319.739 277.013 300.182 252.5 300.182C227.987 300.182 208.115 319.739 208.115 343.863C208.115 367.988 227.987 387.545 252.5 387.545Z" fill="#FFBFAB"/>
<path d="M296.885 169.137C296.885 145.05 276.975 125.455 252.5 125.455V212.818C276.975 212.818 296.885 193.224 296.885 169.137Z" fill="#FFB293"/>
<path d="M296.885 343.863C296.885 319.776 276.975 300.182 252.5 300.182V387.545C276.975 387.545 296.885 367.95 296.885 343.863Z" fill="#FFB293"/>
<path d="M252.5 241.939H267.295V271.061H252.5V241.939Z" fill="#FFB293"/>
</svg>
