<svg width="1600" height="1600" viewBox="0 0 1600 1600" fill="none" xmlns="http://www.w3.org/2000/svg">
<g clip-path="url(#clip0)">
<path d="M989.638 345.197C971.316 326.875 971.316 297.225 989.638 278.906L1122.22 146.325C1140.54 128.003 1170.19 128.003 1188.51 146.325C1206.83 164.647 1206.83 194.297 1188.51 212.616L1055.93 345.197C1037.61 363.519 1007.96 363.519 989.638 345.197V345.197Z" fill="#6B5C59"/>
<path d="M857.058 212.616C838.736 194.294 838.736 164.644 857.058 146.325L989.639 13.7437C1007.96 -4.57815 1037.61 -4.57815 1055.93 13.7437C1074.25 32.0656 1074.25 61.7156 1055.93 80.0344L923.348 212.616C905.027 230.934 875.377 230.934 857.058 212.616Z" fill="#6B5C59"/>
<path d="M1254.81 610.362C1236.48 592.041 1236.48 562.391 1254.81 544.072L1387.39 411.491C1405.71 393.169 1435.36 393.169 1453.68 411.491C1472 429.812 1472 459.462 1453.68 477.781L1321.1 610.362C1302.78 628.681 1273.13 628.681 1254.81 610.362V610.362Z" fill="#3A3331"/>
<path d="M1387.39 742.944C1369.06 724.622 1369.06 694.972 1387.39 676.653L1519.97 544.072C1538.29 525.75 1567.94 525.75 1586.26 544.072C1604.58 562.394 1604.58 592.044 1586.26 610.362L1453.68 742.944C1435.36 761.266 1405.71 761.266 1387.39 742.944V742.944Z" fill="#3A3331"/>
<path d="M212.616 1387.38C194.295 1369.06 164.645 1369.06 146.326 1387.38L13.7414 1519.97C-4.58047 1538.29 -4.58047 1567.94 13.7414 1586.26C32.0633 1604.58 61.7133 1604.58 80.032 1586.26L212.613 1453.68C230.935 1435.36 230.935 1405.71 212.616 1387.38V1387.38Z" fill="#8E7D78"/>
<path d="M80.032 1586.26L212.613 1453.68C230.935 1435.36 230.935 1405.71 212.613 1387.39L13.7383 1586.26C32.0633 1604.58 61.7133 1604.58 80.032 1586.26Z" fill="#6B5C59"/>
<path d="M800.077 799.922L568.058 567.903L146.32 989.637C18.3984 1117.56 18.3984 1325.76 146.32 1453.67C274.242 1581.59 482.439 1581.6 610.358 1453.67L1032.09 1031.94L800.077 799.922Z" fill="#F2F2F2"/>
<path d="M610.365 1453.68L1032.1 1031.94L800.08 799.925L146.324 1453.68C274.246 1581.6 482.443 1581.6 610.365 1453.68V1453.68Z" fill="#E2DCDA"/>
<path d="M1321.1 278.906C1302.77 260.584 1273.12 260.584 1254.81 278.906L1122.22 411.487C1103.9 429.809 1103.9 459.459 1122.22 477.778C1140.55 496.1 1170.2 496.1 1188.51 477.778L1321.1 345.197C1339.42 326.875 1339.42 297.225 1321.1 278.906V278.906Z" fill="#6B5C59"/>
<path d="M1188.51 477.778L1321.09 345.197C1339.41 326.875 1339.41 297.225 1321.09 278.906L1122.22 477.781C1140.54 496.1 1170.19 496.1 1188.51 477.778V477.778Z" fill="#3A3331"/>
<path d="M610.362 989.637C555.444 934.719 466.406 934.719 411.487 989.637L278.906 1122.22L378.344 1221.66L477.781 1321.1L610.362 1188.52C665.278 1133.59 665.278 1044.56 610.362 989.637V989.637Z" fill="#E2DCDA"/>
<path d="M610.362 1188.51C665.281 1133.59 665.281 1044.56 610.362 989.637L378.344 1221.66L477.781 1321.09L610.362 1188.51Z" fill="#C6B7B4"/>
<path d="M378.344 1362.28C456.009 1362.28 518.969 1299.32 518.969 1221.66C518.969 1143.99 456.009 1081.03 378.344 1081.03C300.679 1081.03 237.719 1143.99 237.719 1221.66C237.719 1299.32 300.679 1362.28 378.344 1362.28Z" fill="#8E7D78"/>
<path d="M477.781 1321.09C532.7 1266.17 532.7 1177.14 477.781 1122.22L278.906 1321.09C333.825 1376.01 422.866 1376.01 477.781 1321.09Z" fill="#6B5C59"/>
<path d="M1155.37 444.634L857.059 146.325L616.615 386.769C525.134 478.25 525.134 626.744 616.615 718.225L749.196 850.806L881.777 983.387C973.259 1074.87 1121.75 1074.87 1213.23 983.387L1453.68 742.944L1155.37 444.634Z" fill="#E2DCDA"/>
<path d="M1213.24 983.387L1453.68 742.944L1155.37 444.634L749.195 850.806L881.777 983.387C973.261 1074.87 1121.75 1074.87 1213.24 983.387Z" fill="#C6B7B4"/>
<path d="M1453.68 676.653L1188.51 411.487L923.347 146.322C904.784 127.759 875.619 127.759 857.056 146.322C765.575 237.803 765.575 386.297 857.056 477.778L989.637 610.359L1122.22 742.941C1213.7 834.422 1362.19 834.422 1453.68 742.941C1472.24 724.381 1472.24 695.216 1453.68 676.653Z" fill="#8E7D78"/>
<path d="M1453.68 742.944C1472.24 724.381 1472.24 695.216 1453.68 676.653L1188.51 411.487L989.637 610.362L1122.22 742.944C1213.7 834.428 1362.19 834.428 1453.68 742.944V742.944Z" fill="#6B5C59"/>
</g>
<defs>
<clipPath id="clip0">
<rect width="1600" height="1600" fill="white"/>
</clipPath>
</defs>
</svg>
