<svg width="1600" height="1600" viewBox="0 0 1600 1600" fill="none" xmlns="http://www.w3.org/2000/svg">
<path d="M425.001 1600C327.457 1600 251.21 1515.83 260.823 1418.76L310.02 921.875H539.982L589.179 1418.76C598.791 1515.83 522.541 1600 425.001 1600Z" fill="#FFB293"/>
<path d="M539.981 921.875H421.875V1599.92C422.919 1599.93 423.95 1600 425 1600C522.544 1600 598.791 1515.83 589.178 1418.76L539.981 921.875Z" fill="#FF9468"/>
<path d="M581.25 968.75H268.75C191.209 968.75 128.125 905.666 128.125 828.125V140.625C128.125 63.0844 191.209 0 268.75 0H581.25C658.791 0 721.875 63.0844 721.875 140.625V828.125C721.875 905.666 658.791 968.75 581.25 968.75Z" fill="#6B5C59"/>
<path d="M581.25 0H421.875V968.75H581.25C658.791 968.75 721.875 905.666 721.875 828.125V140.625C721.875 63.0844 658.791 0 581.25 0Z" fill="#3A3331"/>
<path d="M768.75 250H612.5C586.612 250 565.625 229.013 565.625 203.125C565.625 177.237 586.612 156.25 612.5 156.25H768.75C794.638 156.25 815.625 177.237 815.625 203.125C815.625 229.013 794.638 250 768.75 250Z" fill="#6B5C59"/>
<path d="M768.75 437.5H612.5C586.612 437.5 565.625 416.513 565.625 390.625C565.625 364.737 586.612 343.75 612.5 343.75H768.75C794.638 343.75 815.625 364.737 815.625 390.625C815.625 416.513 794.638 437.5 768.75 437.5Z" fill="#6B5C59"/>
<path d="M768.75 625H612.5C586.612 625 565.625 604.013 565.625 578.125C565.625 552.237 586.612 531.25 612.5 531.25H768.75C794.638 531.25 815.625 552.237 815.625 578.125C815.625 604.013 794.638 625 768.75 625Z" fill="#6B5C59"/>
<path d="M237.5 250H81.25C55.3625 250 34.375 229.013 34.375 203.125C34.375 177.237 55.3625 156.25 81.25 156.25H237.5C263.388 156.25 284.375 177.237 284.375 203.125C284.375 229.013 263.388 250 237.5 250Z" fill="#8E7D78"/>
<path d="M237.5 437.5H81.25C55.3625 437.5 34.375 416.513 34.375 390.625C34.375 364.737 55.3625 343.75 81.25 343.75H237.5C263.388 343.75 284.375 364.737 284.375 390.625C284.375 416.513 263.388 437.5 237.5 437.5Z" fill="#8E7D78"/>
<path d="M237.5 625H81.25C55.3625 625 34.375 604.013 34.375 578.125C34.375 552.237 55.3625 531.25 81.25 531.25H237.5C263.388 531.25 284.375 552.237 284.375 578.125C284.375 604.013 263.388 625 237.5 625Z" fill="#8E7D78"/>
<path d="M425 250C450.888 250 471.875 229.013 471.875 203.125C471.875 177.237 450.888 156.25 425 156.25C399.112 156.25 378.125 177.237 378.125 203.125C378.125 229.013 399.112 250 425 250Z" fill="#8E7D78"/>
<path d="M425 437.5C450.888 437.5 471.875 416.513 471.875 390.625C471.875 364.737 450.888 343.75 425 343.75C399.112 343.75 378.125 364.737 378.125 390.625C378.125 416.513 399.112 437.5 425 437.5Z" fill="#8E7D78"/>
<path d="M425 625C450.888 625 471.875 604.013 471.875 578.125C471.875 552.237 450.888 531.25 425 531.25C399.112 531.25 378.125 552.237 378.125 578.125C378.125 604.013 399.112 625 425 625Z" fill="#8E7D78"/>
<path d="M768.75 812.5H612.5C586.612 812.5 565.625 791.513 565.625 765.625C565.625 739.737 586.612 718.75 612.5 718.75H768.75C794.638 718.75 815.625 739.737 815.625 765.625C815.625 791.513 794.638 812.5 768.75 812.5Z" fill="#6B5C59"/>
<path d="M237.5 812.5H81.25C55.3625 812.5 34.375 791.513 34.375 765.625C34.375 739.737 55.3625 718.75 81.25 718.75H237.5C263.388 718.75 284.375 739.737 284.375 765.625C284.375 791.513 263.388 812.5 237.5 812.5Z" fill="#8E7D78"/>
<path d="M425 812.5C450.888 812.5 471.875 791.513 471.875 765.625C471.875 739.737 450.888 718.75 425 718.75C399.112 718.75 378.125 739.737 378.125 765.625C378.125 791.513 399.112 812.5 425 812.5Z" fill="#8E7D78"/>
<path d="M425 156.25C423.944 156.25 422.912 156.341 421.875 156.409V249.844C422.912 249.912 423.944 250.003 425 250.003C450.888 250.003 471.875 229.016 471.875 203.128C471.875 177.241 450.888 156.25 425 156.25V156.25Z" fill="#6B5C59"/>
<path d="M425 343.75C423.944 343.75 422.912 343.841 421.875 343.909V437.344C422.912 437.412 423.944 437.503 425 437.503C450.888 437.503 471.875 416.516 471.875 390.628C471.875 364.741 450.888 343.75 425 343.75V343.75Z" fill="#6B5C59"/>
<path d="M425 531.25C423.944 531.25 422.912 531.341 421.875 531.409V624.844C422.912 624.913 423.944 625.003 425 625.003C450.888 625.003 471.875 604.016 471.875 578.128C471.875 552.241 450.888 531.25 425 531.25V531.25Z" fill="#6B5C59"/>
<path d="M425 718.75C423.944 718.75 422.912 718.841 421.875 718.909V812.344C422.912 812.413 423.944 812.503 425 812.503C450.888 812.503 471.875 791.516 471.875 765.628C471.875 739.741 450.888 718.75 425 718.75V718.75Z" fill="#6B5C59"/>
<path d="M1237.5 156.25H987.5C961.612 156.25 940.625 135.263 940.625 109.375C940.625 83.4875 961.612 62.5 987.5 62.5H1237.5C1263.39 62.5 1284.38 83.4875 1284.38 109.375C1284.38 135.263 1263.39 156.25 1237.5 156.25Z" fill="#FF9468"/>
<path d="M1237.5 343.75H987.5C961.612 343.75 940.625 322.763 940.625 296.875C940.625 270.987 961.612 250 987.5 250H1237.5C1263.39 250 1284.38 270.987 1284.38 296.875C1284.38 322.763 1263.39 343.75 1237.5 343.75Z" fill="#FF9468"/>
<path d="M1237.5 531.25H987.5C961.612 531.25 940.625 510.263 940.625 484.375C940.625 458.487 961.612 437.5 987.5 437.5H1237.5C1263.39 437.5 1284.38 458.487 1284.38 484.375C1284.38 510.263 1263.39 531.25 1237.5 531.25Z" fill="#FF9468"/>
<path d="M1237.5 718.75H987.5C961.612 718.75 940.625 697.763 940.625 671.875C940.625 645.987 961.612 625 987.5 625H1237.5C1263.39 625 1284.38 645.987 1284.38 671.875C1284.38 697.763 1263.39 718.75 1237.5 718.75Z" fill="#FF9468"/>
<path d="M1237.5 906.25H987.5C961.612 906.25 940.625 885.263 940.625 859.375C940.625 833.487 961.612 812.5 987.5 812.5H1237.5C1263.39 812.5 1284.38 833.487 1284.38 859.375C1284.38 885.263 1263.39 906.25 1237.5 906.25Z" fill="#FF9468"/>
<path d="M1378.13 1600C1297.07 1600 1233.23 1530.9 1239.63 1450.1L1281.47 921.875H1474.78L1516.62 1450.1C1523.02 1530.9 1459.18 1600 1378.13 1600Z" fill="#6B5C59"/>
<path d="M1474.78 921.875H1378.12V1600C1459.18 1600 1523.02 1530.9 1516.62 1450.1L1474.78 921.875Z" fill="#3A3331"/>
<path d="M1456.25 968.75H1300C1239.69 968.75 1190.62 919.684 1190.62 859.375V109.375C1190.62 49.0656 1239.69 0 1300 0H1456.25C1516.56 0 1565.62 49.0656 1565.62 109.375V859.375C1565.62 919.684 1516.56 968.75 1456.25 968.75Z" fill="#FFB293"/>
<path d="M1456.25 0H1378.12V968.75H1456.25C1516.56 968.75 1565.62 919.684 1565.62 859.375V109.375C1565.62 49.0656 1516.56 0 1456.25 0Z" fill="#FF9468"/>
</svg>
