<svg width="1600" height="1600" viewBox="0 0 1600 1600" fill="none" xmlns="http://www.w3.org/2000/svg">
<g clip-path="url(#clip0)">
<path d="M1020.81 496.223H997.355C987.981 402.899 950.941 317.62 894.597 248.709L911.344 231.962C929.66 213.649 929.66 183.951 911.344 165.634C893.03 147.321 863.332 147.321 845.016 165.634L828.269 182.381C759.355 126.034 674.076 88.9942 580.752 79.6202V56.1726C580.752 30.2705 559.752 9.27124 533.85 9.27124C507.948 9.27124 486.949 30.2705 486.949 56.1726V79.6202C393.624 88.9942 308.345 126.034 239.435 182.381L222.688 165.634C204.374 147.321 174.676 147.321 156.36 165.634C138.043 183.948 138.043 213.646 156.36 231.962L173.107 248.709C116.759 317.623 79.7198 402.902 70.3458 496.226H46.9014C20.9993 496.226 0 517.226 0 543.128C0 569.03 20.9993 590.029 46.9014 590.029H70.3489C79.723 683.354 116.763 768.633 173.11 837.547L156.363 854.293C138.046 872.607 138.046 902.305 156.363 920.621C165.521 929.78 177.525 934.36 189.525 934.36C201.526 934.36 213.533 929.78 222.688 920.621L239.435 903.874C308.348 960.222 393.624 997.258 486.949 1006.63V1030.08C486.949 1055.98 507.948 1076.98 533.85 1076.98C559.752 1076.98 580.752 1055.98 580.752 1030.08V1006.63C674.076 997.258 759.355 960.219 828.266 903.871L845.013 920.618C854.171 929.776 866.175 934.357 878.175 934.357C890.176 934.357 902.182 929.776 911.338 920.618C929.654 902.305 929.654 872.607 911.338 854.29L894.591 837.543C950.938 768.63 987.977 683.354 997.348 590.029H1020.8C1046.7 590.029 1067.7 569.03 1067.7 543.128C1067.7 517.226 1046.71 496.223 1020.81 496.223V496.223Z" fill="#00B4FF"/>
<path d="M1020.8 496.223H997.354C987.98 402.899 950.94 317.62 894.596 248.709L911.343 231.962C929.66 213.649 929.66 183.951 911.343 165.634C893.03 147.321 863.332 147.321 845.015 165.634L828.268 182.381C759.355 126.034 674.075 88.9942 580.751 79.6202V56.1726C580.751 30.2705 559.752 9.27124 533.85 9.27124V1076.98C559.752 1076.98 580.751 1055.98 580.751 1030.08V1006.63C674.075 997.255 759.355 960.216 828.265 903.868L845.012 920.615C854.171 929.773 866.174 934.354 878.175 934.354C890.175 934.354 902.182 929.773 911.337 920.615C929.654 902.302 929.654 872.604 911.337 854.287L894.59 837.54C950.937 768.626 987.977 683.35 997.348 590.026H1020.8C1046.7 590.026 1067.7 569.027 1067.7 543.125C1067.7 517.223 1046.71 496.223 1020.8 496.223Z" fill="#0082F5"/>
<path d="M668.293 1124.88C668.293 1241.49 711.136 1348.09 781.941 1429.8L846.593 1433.28L852.124 1495.69C930.409 1555.33 1028.15 1590.73 1134.15 1590.73C1240.16 1590.73 1337.89 1555.32 1416.18 1495.69L1420.43 1450.99L1486.35 1429.8C1557.16 1348.09 1600 1241.49 1600 1124.88C1600 1008.26 1557.16 901.657 1486.35 819.943L1441.04 805.65L1416.17 754.053C1337.88 694.425 1240.15 659.021 1134.15 659.021C1028.64 659.021 931.332 694.094 853.231 753.218L847.103 816L781.948 819.949C711.139 901.664 668.293 1008.27 668.293 1124.88V1124.88Z" fill="#98D400"/>
<path d="M1416.18 1495.69L1420.43 1450.99L1486.35 1429.81C1557.16 1348.09 1600 1241.49 1600 1124.88C1600 1008.27 1557.16 901.66 1486.35 819.946L1441.04 805.653L1416.17 754.056C1337.88 694.428 1240.15 659.024 1134.15 659.024V1590.73C1240.15 1590.73 1337.89 1555.32 1416.18 1495.69Z" fill="#6ECD24"/>
<path d="M668.865 725.036C693.397 725.036 716.901 703.465 715.766 678.135C714.628 652.724 695.158 631.233 668.865 631.233C644.332 631.233 620.828 652.805 621.963 678.135C623.101 703.546 642.572 725.036 668.865 725.036Z" fill="#3A3331"/>
<path d="M398.845 725.036C423.378 725.036 446.882 703.465 445.747 678.135C444.608 652.724 425.138 631.233 398.845 631.233C374.313 631.233 350.809 652.805 351.944 678.135C353.082 703.546 372.552 725.036 398.845 725.036Z" fill="#6B5C59"/>
<path d="M668.865 455.01C693.397 455.01 716.901 433.438 715.766 408.108C714.628 382.697 695.158 361.207 668.865 361.207C644.332 361.207 620.828 382.778 621.963 408.108C623.101 433.519 642.572 455.01 668.865 455.01Z" fill="#3A3331"/>
<path d="M398.845 455.01C423.378 455.01 446.882 433.438 445.747 408.108C444.608 382.697 425.138 361.207 398.845 361.207C374.313 361.207 350.809 382.778 351.944 408.108C353.082 433.519 372.552 455.01 398.845 455.01Z" fill="#6B5C59"/>
<path d="M781.945 819.952C883.28 883.726 950.771 996.561 950.771 1124.88C950.771 1253.2 883.28 1366.03 781.945 1429.81C802.995 1454.1 826.536 1476.17 852.138 1495.67C968.469 1413.41 1044.57 1277.87 1044.57 1124.88C1044.57 971.888 968.469 836.343 852.138 754.09C826.536 773.589 802.995 795.661 781.945 819.952Z" fill="#F2F2F2"/>
<path d="M1317.52 1124.88C1317.52 996.558 1385.01 883.722 1486.35 819.949C1465.3 795.657 1441.76 773.589 1416.16 754.087C1299.82 836.343 1223.72 971.884 1223.72 1124.88C1223.72 1277.87 1299.82 1413.41 1416.16 1495.67C1441.76 1476.17 1465.3 1454.1 1486.35 1429.8C1385.01 1366.03 1317.52 1253.2 1317.52 1124.88Z" fill="#E2DCDA"/>
</g>
<defs>
<clipPath id="clip0">
<rect width="1600" height="1600" fill="white"/>
</clipPath>
</defs>
</svg>
