<svg width="1600" height="1600" viewBox="0 0 1600 1600" fill="none" xmlns="http://www.w3.org/2000/svg">
<path d="M1553.12 731.25H46.875C20.9875 731.25 0 752.237 0 778.125V1434.38C0 1460.26 20.9875 1481.25 46.875 1481.25H1553.12C1579.01 1481.25 1600 1460.26 1600 1434.38V778.125C1600 752.237 1579.01 731.25 1553.12 731.25Z" fill="#FFB293"/>
<path d="M0 1153.12V1434.38C0 1460.26 20.9875 1481.25 46.875 1481.25H1553.12C1579.01 1481.25 1600 1460.26 1600 1434.38V1153.12H0Z" fill="#FF9468"/>
<path d="M1553.12 543.75H46.875C20.9875 543.75 0 564.737 0 590.625V778.125H1600V590.625C1600 564.737 1579.01 543.75 1553.12 543.75Z" fill="#FFBFAB"/>
<path d="M425 1012.5C399.113 1012.5 378.125 991.512 378.125 965.625C378.125 713.659 407.747 502.831 466.166 339.003C496.888 252.85 534.753 182.844 575.666 136.556L576.413 135.706C592.691 116.059 621.781 113.025 641.781 129.022C661.997 145.197 665.275 174.691 649.1 194.909C648.494 195.666 647.434 196.916 645.909 198.641C613.306 235.528 580.834 296.556 554.469 370.491C499.666 524.187 471.875 724.419 471.875 965.625C471.875 991.516 450.888 1012.5 425 1012.5V1012.5Z" fill="#C18678"/>
<path d="M800 1012.5C774.113 1012.5 753.125 991.512 753.125 965.625C753.125 713.662 782.747 502.841 841.166 339.012C871.884 252.862 909.75 182.85 950.666 136.556L951.416 135.706C967.688 116.062 996.778 113.019 1016.78 129.019C1037 145.191 1040.28 174.687 1024.11 194.903C1023.5 195.662 1022.44 196.916 1020.91 198.641C988.306 235.531 955.834 296.566 929.469 370.497C874.666 524.197 846.875 724.425 846.875 965.625C846.875 991.515 825.888 1012.5 800 1012.5V1012.5Z" fill="#C18678"/>
<path d="M1175 1012.5C1149.11 1012.5 1128.12 991.512 1128.12 965.625C1128.12 713.662 1157.74 502.841 1216.17 339.012C1246.88 252.862 1284.75 182.85 1325.67 136.556L1326.42 135.706C1342.69 116.062 1371.77 113.019 1391.78 129.019C1412 145.191 1415.28 174.687 1399.11 194.903C1398.5 195.662 1397.44 196.916 1395.91 198.641C1363.31 235.531 1330.83 296.566 1304.47 370.497C1249.67 524.197 1221.88 724.425 1221.88 965.625C1221.88 991.515 1200.89 1012.5 1175 1012.5V1012.5Z" fill="#C18678"/>
<path d="M1128.19 945.747C1097.36 977.5 1034.38 1054.33 1034.38 1153.12C1034.38 1230.67 1097.46 1231.25 1175 1231.25C1252.54 1231.25 1315.62 1230.67 1315.62 1153.12C1315.62 1054.47 1252.81 977.578 1221.94 945.747H1128.19Z" fill="#A55C4F"/>
<path d="M753.188 945.747C722.359 977.5 659.375 1054.33 659.375 1153.12C659.375 1230.67 722.456 1231.25 800 1231.25C877.544 1231.25 940.625 1230.67 940.625 1153.12C940.625 1054.47 877.812 977.578 846.941 945.747H753.188Z" fill="#A55C4F"/>
<path d="M378.191 945.747C347.359 977.5 284.375 1054.33 284.375 1153.12C284.375 1230.67 347.459 1231.25 425 1231.25C502.541 1231.25 565.625 1230.67 565.625 1153.12C565.625 1054.47 502.813 977.578 471.938 945.747H378.191Z" fill="#A55C4F"/>
<path d="M1175 1293.75C1252.54 1293.75 1315.62 1230.67 1315.62 1153.12H1034.38C1034.38 1230.67 1097.46 1293.75 1175 1293.75Z" fill="#784033"/>
<path d="M800 1293.75C877.544 1293.75 940.625 1230.67 940.625 1153.12H659.375C659.375 1230.67 722.456 1293.75 800 1293.75Z" fill="#784033"/>
<path d="M425 1293.75C502.544 1293.75 565.625 1230.67 565.625 1153.12H284.375C284.375 1230.67 347.459 1293.75 425 1293.75Z" fill="#784033"/>
</svg>
