<svg width="1600" height="1600" viewBox="0 0 1600 1600" fill="none" xmlns="http://www.w3.org/2000/svg">
<g clip-path="url(#clip0)">
<path d="M1580.67 592.994L827.549 45.8343C811.124 33.9 788.871 33.9 772.446 45.8343L19.327 592.994C2.89579 604.931 -3.97921 626.091 2.29892 645.403L290.008 1530.72C296.286 1550.04 314.283 1563.11 334.59 1563.11H1265.41C1285.72 1563.11 1303.72 1550.04 1310 1530.72L1597.71 645.403C1603.98 626.091 1597.1 604.931 1580.67 592.994V592.994ZM846.874 175.753L1451.14 614.766L846.874 811.1V175.753ZM753.124 175.753V811.097L148.858 614.766L753.124 175.753ZM119.89 703.925L724.155 900.259L350.733 1414.26L119.89 703.925ZM426.58 1469.37L799.999 955.366L1173.42 1469.37H426.58ZM1249.26 1414.26L875.84 900.259L1480.11 703.925L1249.26 1414.26Z" fill="#6B5C59"/>
<path d="M1309.99 1530.73L1597.7 645.406C1603.98 626.093 1597.11 604.934 1580.68 592.996L827.55 45.8338C819.338 39.865 809.669 36.8838 800 36.8838V955.365L1173.42 1469.36H800V1563.11H1265.41C1285.72 1563.11 1303.72 1550.04 1309.99 1530.73ZM846.875 175.753L1451.14 614.765L846.875 811.099V175.753ZM875.841 900.259L1480.11 703.924L1249.26 1414.26L875.841 900.259Z" fill="#3A3331"/>
<path d="M483.258 1358.45C472.658 1358.45 462.261 1354.85 453.855 1348.08C442.808 1339.18 436.383 1325.76 436.383 1311.57V772.7C436.383 760.334 441.267 748.475 449.973 739.694L766.717 420.284C780.733 406.15 802.142 402.412 820.117 410.95L1348.02 661.747C1360.02 667.447 1369.04 677.965 1372.83 690.69C1376.62 703.419 1374.84 717.156 1367.93 728.494L1070.12 1216.77C1063.45 1227.7 1052.6 1235.43 1040.09 1238.16L493.248 1357.37C489.933 1358.09 486.583 1358.45 483.258 1358.45V1358.45Z" fill="#00B4FF"/>
<path d="M1070.12 1216.77L1367.92 728.494C1374.84 717.156 1376.62 703.419 1372.82 690.691C1369.03 677.966 1360.01 667.447 1348.02 661.747L820.113 410.95C813.681 407.894 806.813 406.438 800 406.441V1290.5L1040.09 1238.16C1052.6 1235.43 1063.45 1227.7 1070.12 1216.77V1216.77Z" fill="#0082F5"/>
<path d="M820.114 410.95C802.139 402.412 780.733 406.15 766.714 420.284L753.127 433.987V811.097L470.292 719.2L449.973 739.69C441.27 748.472 436.383 760.331 436.383 772.697V806.753L724.158 900.256L436.383 1296.37V1311.57C436.383 1325.76 442.808 1339.18 453.855 1348.08C462.261 1354.85 472.661 1358.45 483.258 1358.45C486.583 1358.45 489.933 1358.1 493.242 1357.37L510.711 1353.57L800.002 955.365L1010.18 1244.67L1040.09 1238.16C1052.6 1235.43 1063.45 1227.7 1070.12 1216.77L1086.4 1190.08L875.842 900.259L1358.89 743.312L1367.92 728.494C1374.84 717.156 1376.62 703.419 1372.82 690.69C1369.03 677.965 1360.01 667.447 1348.02 661.747L1331.18 653.744L846.877 811.1V423.666L820.114 410.95Z" fill="#0082F5"/>
<path d="M1040.08 1238.16C1052.6 1235.43 1063.45 1227.7 1070.12 1216.77L1086.39 1190.08L875.838 900.259L1358.88 743.313L1367.92 728.494C1374.83 717.156 1376.62 703.419 1372.82 690.691C1369.02 677.966 1360.01 667.447 1348.02 661.747L1331.17 653.744L846.872 811.1V423.666L820.113 410.953C813.681 407.897 806.812 406.441 800 406.444V955.369L1010.18 1244.68L1040.08 1238.16Z" fill="#0050BE"/>
</g>
<defs>
<clipPath id="clip0">
<rect width="1600" height="1600" fill="white"/>
</clipPath>
</defs>
</svg>
