<svg width="1600" height="1600" viewBox="0 0 1600 1600" fill="none" xmlns="http://www.w3.org/2000/svg">
<path d="M1384.43 1241.26C1294.63 985.809 1198.9 706.253 800 706.253C622.194 706.253 488.853 762.219 392.356 877.35C306.881 979.331 260.46 1113.58 215.572 1241.26C160.403 1397.74 296.116 1555.77 459.985 1524.29C594.428 1498.44 779.078 1454.87 1042.99 1505.63C1144.7 1525.19 1154.15 1528.3 1181.8 1528.3C1326.26 1528.3 1434.79 1384.12 1384.43 1241.26Z" fill="#C18678"/>
<path d="M1181.8 1528.3C1326.26 1528.3 1434.79 1384.11 1384.42 1241.26C1294.62 985.809 1198.9 706.253 800 706.253V1482.38C999.809 1482.38 1116.77 1528.3 1181.8 1528.3V1528.3Z" fill="#A55C4F"/>
<path d="M925 1071.59H846.875V993.469C846.875 967.582 825.888 946.594 800 946.594C774.112 946.594 753.125 967.582 753.125 993.469V1071.59H675C649.112 1071.59 628.125 1092.58 628.125 1118.47C628.125 1144.36 649.112 1165.34 675 1165.34H753.125V1243.47C753.125 1269.36 774.112 1290.34 800 1290.34C825.888 1290.34 846.875 1269.36 846.875 1243.47V1165.34H925C950.888 1165.34 971.875 1144.36 971.875 1118.47C971.875 1092.58 950.888 1071.59 925 1071.59Z" fill="#F2F2F2"/>
<path d="M846.875 1243.47V1165.34H925C950.888 1165.34 971.875 1144.36 971.875 1118.47C971.875 1092.58 950.888 1071.59 925 1071.59H846.875V993.469C846.875 967.582 825.888 946.594 800 946.594V1290.34C825.888 1290.34 846.875 1269.36 846.875 1243.47Z" fill="#E2DCDA"/>
<path d="M1425 471.594C1330.23 471.594 1253.12 548.697 1253.12 643.469C1253.12 738.241 1330.23 815.344 1425 815.344C1519.77 815.344 1600 738.241 1600 643.469C1600 548.697 1519.77 471.594 1425 471.594V471.594Z" fill="#A55C4F"/>
<path d="M1050 565.857C1158.88 565.857 1247.15 455.097 1247.15 318.469C1247.15 181.841 1158.88 71.0815 1050 71.0815C941.117 71.0815 852.852 181.841 852.852 318.469C852.852 455.097 941.117 565.857 1050 565.857Z" fill="#A55C4F"/>
<path d="M549.998 565.857C658.88 565.857 747.145 455.097 747.145 318.469C747.145 181.841 658.88 71.0815 549.998 71.0815C441.117 71.0815 352.852 181.841 352.852 318.469C352.852 455.097 441.117 565.857 549.998 565.857Z" fill="#C18678"/>
<path d="M175 471.594C80.2281 471.594 0 548.697 0 643.469C0 738.241 80.2281 815.344 175 815.344C269.772 815.344 346.875 738.241 346.875 643.469C346.875 548.697 269.772 471.594 175 471.594V471.594Z" fill="#C18678"/>
<path d="M1023 930.284C966.256 873.469 873.998 873.009 816.831 930.284L801.623 945.492C800.313 944.212 806.634 950.512 786.433 930.284C729.076 872.857 636.823 873.656 580.263 930.284C523.041 987.581 523.457 1079.87 580.245 1136.73C637.457 1193.97 774.823 1331.56 782.035 1338.75C792.797 1349.53 810.36 1349.64 821.229 1338.75C1015.37 1144.35 1023.06 1136.85 1023.06 1136.66C1079.84 1079.74 1079.81 987.177 1023 930.284V930.284Z" fill="#FD4E26"/>
<path d="M1023.31 1136.66C1023.31 1136.84 1017 1143.02 822.711 1338.75C817.554 1343.95 810.622 1346.87 803.169 1346.87C803.169 931.445 803.04 945.314 803.224 945.495L818.34 930.287C875.029 873.145 966.717 873.33 1023.26 930.287C1079.72 987.18 1079.76 1079.74 1023.31 1136.66Z" fill="#FD3018"/>
</svg>
