<svg width="1600" height="1600" viewBox="0 0 1600 1600" fill="none" xmlns="http://www.w3.org/2000/svg">
<g clip-path="url(#clip0)">
<path d="M1425 1426.56H1396.88V1023.44C1396.88 997.55 1375.89 976.562 1350 976.562C1324.11 976.562 1303.12 997.55 1303.12 1023.44V1426.56H1275C1249.11 1426.56 1228.12 1447.55 1228.12 1473.44C1228.12 1499.33 1249.11 1520.31 1275 1520.31H1425C1450.89 1520.31 1471.88 1499.33 1471.88 1473.44C1471.88 1447.55 1450.89 1426.56 1425 1426.56Z" fill="#3A3331"/>
<path d="M887.5 1523.44H362.5C315.975 1523.44 278.125 1485.59 278.125 1439.06C278.125 1431.88 279.772 1424.8 282.944 1418.36L382.194 1216.71C393.625 1193.48 421.713 1183.92 444.95 1195.35C468.178 1206.78 477.738 1234.88 466.306 1258.11L381.856 1429.69H868.141L783.694 1258.11C772.262 1234.88 781.822 1206.78 805.05 1195.35C828.278 1183.91 856.378 1193.48 867.806 1216.71L967.056 1418.36C970.228 1424.8 971.875 1431.88 971.875 1439.06C971.875 1485.59 934.025 1523.44 887.5 1523.44V1523.44Z" fill="#6B5C59"/>
<path d="M867.806 1216.71C856.378 1193.48 828.278 1183.91 805.05 1195.35C781.822 1206.78 772.262 1234.88 783.694 1258.11L868.141 1429.69H625V1523.44H887.5C934.025 1523.44 971.875 1485.59 971.875 1439.06C971.875 1431.88 970.228 1424.8 967.056 1418.36L867.806 1216.71Z" fill="#3A3331"/>
<path d="M625 76.5625C280.375 76.5625 0 355.534 0 698.438C0 1041.34 280.375 1320.31 625 1320.31C967.903 1320.31 1246.88 1041.34 1246.88 698.438C1246.88 355.534 967.903 76.5625 625 76.5625ZM625 1095.31C406.163 1095.31 228.125 917.275 228.125 698.438C228.125 479.6 406.163 301.562 625 301.562C843.837 301.562 1021.88 479.6 1021.88 698.438C1021.88 917.275 843.837 1095.31 625 1095.31Z" fill="#F2F2F2"/>
<path d="M1021.88 698.438C1021.88 917.275 843.837 1095.31 625 1095.31V1320.31C967.903 1320.31 1246.88 1041.34 1246.88 698.438C1246.88 355.534 967.903 76.5625 625 76.5625V301.562C843.837 301.562 1021.88 479.6 1021.88 698.438Z" fill="#E2DCDA"/>
<path d="M1600 840.094V1006.78C1600 1055.59 1558.44 1095.31 1507.38 1095.31H625.002C424.158 1095.31 257.721 945.375 231.658 751.562H1507.38C1558.44 751.562 1600 791.281 1600 840.094V840.094Z" fill="#98D400"/>
<path d="M1507.37 751.562H625V1095.31H1507.37C1558.44 1095.31 1600 1055.59 1600 1006.78V840.094C1600 791.281 1558.44 751.562 1507.37 751.562V751.562Z" fill="#6ECD24"/>
</g>
<defs>
<clipPath id="clip0">
<rect width="1600" height="1600" fill="white"/>
</clipPath>
</defs>
</svg>
