<svg width="1600" height="1600" viewBox="0 0 1600 1600" fill="none" xmlns="http://www.w3.org/2000/svg">
<path d="M1593.01 1480.21C1555.04 1391.62 1468.23 1334.38 1371.84 1334.38H1195.34L953.149 1576.56C953.149 1589.51 963.643 1600 976.587 1600H1514.02C1543 1600 1569.82 1585.56 1585.77 1561.37C1601.71 1537.18 1604.42 1506.84 1593.01 1480.21V1480.21Z" fill="#FF8C28"/>
<path d="M1131.36 923.219C1072.56 835.831 989.509 769.403 891.434 731.262C764.316 681.828 671.191 575.722 637.569 446.509L593.166 399.456L620.497 330.137L656.375 229.681C675.15 177.116 667.159 118.491 635.006 72.8656C602.853 27.2406 550.331 0 494.516 0H352.187C303.866 0 257.513 20.5063 225.009 56.2594L119.906 171.875H47.7094C40.6438 171.875 33.5812 173.184 27.1875 176.188C10.1312 184.203 0.015625 200.956 0.015625 218.75V359.375C0.015625 419.541 49.1688 468.606 109.581 468.75C150.044 468.847 183.406 499.928 187.162 539.434L175.887 569.916C123.584 711.284 139.741 870.222 218.766 998.059V1420.53C166.987 1420.53 125.016 1462.5 125.016 1514.28V1553.12C125.016 1579.01 146.003 1600 171.891 1600H453.141H1046.89C1141.82 1600 1218.77 1523.05 1218.77 1428.12V1214.41C1218.77 1110.88 1189.15 1009.12 1131.36 923.219V923.219Z" fill="#FEDB41"/>
<path d="M1131.36 923.219C1072.56 835.831 989.509 769.403 891.434 731.263C858.522 718.463 827.913 701.834 800 682.022V1600H1046.89C1141.82 1600 1218.77 1523.05 1218.77 1428.13V1214.41C1218.77 1110.88 1189.15 1009.12 1131.36 923.219V923.219Z" fill="#FEA832"/>
<path d="M1015.64 1162.5C902.456 1162.5 807.753 1243.15 785.975 1350H734.391C656.85 1350 593.766 1413.08 593.766 1490.62V1600H687.516V1490.62C687.516 1464.78 708.544 1443.75 734.391 1443.75H828.141C854.028 1443.75 875.016 1422.76 875.016 1396.88C875.016 1319.33 938.1 1256.25 1015.64 1256.25C1041.53 1256.25 1062.52 1235.26 1062.52 1209.38C1062.52 1183.49 1041.53 1162.5 1015.64 1162.5Z" fill="#FEA832"/>
<path d="M1062.52 1209.38C1062.52 1183.49 1041.53 1162.5 1015.64 1162.5C918.938 1162.5 835.766 1221.4 800 1305.18V1443.75H828.141C854.028 1443.75 875.016 1422.76 875.016 1396.88C875.016 1319.33 938.1 1256.25 1015.64 1256.25C1041.53 1256.25 1062.52 1235.26 1062.52 1209.38Z" fill="#FF8C28"/>
<path d="M453.141 812.5C427.253 812.5 406.266 833.487 406.266 859.375V1600H500.016V859.375C500.016 833.487 479.028 812.5 453.141 812.5Z" fill="#FEA832"/>
<path d="M551.703 376.013C549.169 376.013 546.572 375.888 544.006 375.65C508.603 372.313 482.181 347.453 476.691 312.319L465.581 241.231C461.581 215.653 437.591 198.156 412.031 202.156C386.453 206.153 368.96 230.128 372.956 255.706L384.066 326.794C396.203 404.463 456.941 461.606 535.231 468.988C540.719 469.503 546.26 469.763 551.703 469.763C582.928 469.763 612.313 461.463 637.572 446.513C632.297 426.241 628.435 405.416 626.191 384.135L620.5 330.141C609.488 360.978 584.035 376.013 551.703 376.013V376.013Z" fill="#FEA832"/>
</svg>
