<svg width="1600" height="1600" viewBox="0 0 1600 1600" fill="none" xmlns="http://www.w3.org/2000/svg">
<g clip-path="url(#clip0)">
<path d="M1600 453.125C1600 306.659 1480.84 187.5 1334.38 187.5H1237.5C1211.61 187.5 1190.63 208.487 1190.63 234.375C1190.63 260.263 1211.61 281.25 1237.5 281.25H1334.38C1429.15 281.25 1506.25 358.353 1506.25 453.125C1506.25 547.897 1429.15 625 1334.38 625H1215.59C1189.7 625 1168.71 645.987 1168.71 671.875C1168.71 697.763 1189.7 718.75 1215.59 718.75C1327.59 718.75 1418.71 809.872 1418.71 921.875C1418.71 947.763 1439.7 968.75 1465.59 968.75C1491.48 968.75 1512.46 947.763 1512.46 921.875C1512.46 836.437 1476.17 759.331 1418.21 705.116C1523.71 669.925 1600 570.297 1600 453.125Z" fill="#FF8C28"/>
<path d="M384.413 625H265.625C170.853 625 93.75 547.897 93.75 453.125C93.75 358.353 170.853 281.25 265.625 281.25H362.5C388.388 281.25 409.375 260.263 409.375 234.375C409.375 208.487 388.388 187.5 362.5 187.5H265.625C119.159 187.5 0 306.659 0 453.125C0 570.297 76.2938 669.925 181.791 705.116C123.828 759.331 87.5375 836.437 87.5375 921.875C87.5375 947.763 108.525 968.75 134.413 968.75C160.3 968.75 181.288 947.763 181.288 921.875C181.288 809.872 272.409 718.75 384.413 718.75C410.3 718.75 431.287 697.763 431.287 671.875C431.287 645.987 410.3 625 384.413 625Z" fill="#FEA832"/>
<path d="M315.625 46.875V529.125C315.625 744.763 446.125 936.709 643.75 1017.01V1178.12C643.75 1204.01 664.737 1225 690.625 1225H909.375C935.263 1225 956.25 1204.01 956.25 1178.12V1017.01C1153.88 936.712 1284.38 744.763 1284.38 529.125V46.875H315.625Z" fill="#FEDB41"/>
<path d="M800 1225H909.375C935.263 1225 956.25 1204.01 956.25 1178.12V1017.01C1153.88 936.712 1284.38 744.763 1284.38 529.125V46.875H800V1225Z" fill="#FEA832"/>
<path d="M799.998 781.25C739.314 781.25 695.789 773.019 663.023 755.341C630.927 738.025 592.664 702.084 592.664 629.206C592.667 514.884 685.677 421.875 799.998 421.875C914.32 421.875 1007.33 514.884 1007.33 629.206C1007.33 702.084 969.067 738.025 936.973 755.341C904.208 773.019 860.683 781.25 799.998 781.25Z" fill="#C18678"/>
<path d="M581.25 506.25C516.634 506.25 464.062 453.678 464.062 389.062C464.062 324.447 516.634 271.875 581.25 271.875C645.866 271.875 698.438 324.447 698.438 389.062C698.438 453.678 645.866 506.25 581.25 506.25Z" fill="#A55C4F"/>
<path d="M800 421.875C735.384 421.875 682.812 369.303 682.812 304.688C682.812 240.072 735.384 187.5 800 187.5C864.616 187.5 917.188 240.072 917.188 304.688C917.188 369.303 864.616 421.875 800 421.875Z" fill="#A55C4F"/>
<path d="M987.5 1131.25H612.5C534.959 1131.25 471.875 1194.33 471.875 1271.88V1553.12H1128.12V1271.88C1128.12 1194.33 1065.04 1131.25 987.5 1131.25Z" fill="#8E7D78"/>
<path d="M987.5 1131.25H800V1553.12H1128.12V1271.88C1128.12 1194.33 1065.04 1131.25 987.5 1131.25Z" fill="#6B5C59"/>
<path d="M901.562 389.062C901.562 324.447 954.134 271.875 1018.75 271.875C1083.37 271.875 1135.94 324.447 1135.94 389.062C1135.94 453.678 1083.37 506.25 1018.75 506.25C954.134 506.25 901.562 453.678 901.562 389.062Z" fill="#784033"/>
<path d="M893.75 1412.5H706.25C680.362 1412.5 659.375 1391.51 659.375 1365.62C659.375 1339.74 680.362 1318.75 706.25 1318.75H893.75C919.638 1318.75 940.625 1339.74 940.625 1365.62C940.625 1391.51 919.638 1412.5 893.75 1412.5Z" fill="#FEDB41"/>
<path d="M1206.25 1600H393.75C367.862 1600 346.875 1579.01 346.875 1553.12C346.875 1527.24 367.862 1506.25 393.75 1506.25H1206.25C1232.14 1506.25 1253.12 1527.24 1253.12 1553.12C1253.12 1579.01 1232.14 1600 1206.25 1600Z" fill="#6B5C59"/>
<path d="M1253.12 1553.12C1253.12 1527.24 1232.14 1506.25 1206.25 1506.25H800V1600H1206.25C1232.14 1600 1253.12 1579.01 1253.12 1553.12Z" fill="#3A3331"/>
<path d="M1300 93.75H300C274.112 93.75 253.125 72.7625 253.125 46.875C253.125 20.9875 274.112 0 300 0H1300C1325.89 0 1346.88 20.9875 1346.88 46.875C1346.88 72.7625 1325.89 93.75 1300 93.75Z" fill="#FEA832"/>
<path d="M1300 93.75C1325.89 93.75 1346.88 72.7625 1346.88 46.875C1346.88 20.9875 1325.89 0 1300 0H800V93.75H1300Z" fill="#FF8C28"/>
<path d="M936.975 755.341C969.072 738.025 1007.33 702.084 1007.33 629.206C1007.33 514.884 914.322 421.875 800 421.875V781.25C860.684 781.25 904.209 773.019 936.975 755.341Z" fill="#A55C4F"/>
<path d="M917.188 304.688C917.188 240.072 864.616 187.5 800 187.5V421.875C864.616 421.875 917.188 369.303 917.188 304.688Z" fill="#784033"/>
<path d="M893.75 1318.75H800V1412.5H893.75C919.638 1412.5 940.625 1391.51 940.625 1365.62C940.625 1339.74 919.638 1318.75 893.75 1318.75Z" fill="#FEA832"/>
</g>
<defs>
<clipPath id="clip0">
<rect width="1600" height="1600" fill="white"/>
</clipPath>
</defs>
</svg>
