<svg width="1600" height="1600" viewBox="0 0 1600 1600" fill="none" xmlns="http://www.w3.org/2000/svg">
<g clip-path="url(#clip0)">
<path d="M1328.12 1406.25H921.875C895.987 1406.25 875 1385.26 875 1359.38C875 1333.49 895.987 1312.5 921.875 1312.5H1328.12C1354.01 1312.5 1375 1333.49 1375 1359.38C1375 1385.26 1354.01 1406.25 1328.12 1406.25Z" fill="#784033"/>
<path d="M390.319 612.256L133.837 758.818C51.2844 805.99 0 894.362 0 989.446V1237.5C0 1383.97 119.159 1503.12 265.625 1503.12H921.875C947.763 1503.12 968.75 1482.14 968.75 1456.25V1034.37L390.319 612.256ZM421.875 909.375C447.763 909.375 468.75 930.362 468.75 956.25C468.75 982.137 447.763 1003.12 421.875 1003.12C395.987 1003.12 375 982.137 375 956.25C375 930.362 395.987 909.375 421.875 909.375ZM171.875 956.25C171.875 930.362 192.862 909.375 218.75 909.375C244.638 909.375 265.625 930.362 265.625 956.25C265.625 982.137 244.638 1003.12 218.75 1003.12C192.862 1003.12 171.875 982.137 171.875 956.25ZM234.375 1315.62C208.487 1315.62 187.5 1294.64 187.5 1268.75C187.5 1242.86 208.487 1221.87 234.375 1221.87C260.263 1221.87 281.25 1242.86 281.25 1268.75C281.25 1294.64 260.263 1315.62 234.375 1315.62ZM328.125 1159.37C302.237 1159.37 281.25 1138.39 281.25 1112.5C281.25 1086.61 302.237 1065.62 328.125 1065.62C354.013 1065.62 375 1086.61 375 1112.5C375 1138.39 354.013 1159.37 328.125 1159.37ZM421.875 1315.62C395.987 1315.62 375 1294.64 375 1268.75C375 1242.86 395.987 1221.87 421.875 1221.87C447.763 1221.87 468.75 1242.86 468.75 1268.75C468.75 1294.64 447.763 1315.62 421.875 1315.62ZM515.625 1159.37C489.737 1159.37 468.75 1138.39 468.75 1112.5C468.75 1086.61 489.737 1065.62 515.625 1065.62C541.513 1065.62 562.5 1086.61 562.5 1112.5C562.5 1138.39 541.513 1159.37 515.625 1159.37ZM609.375 1315.62C583.487 1315.62 562.5 1294.64 562.5 1268.75C562.5 1242.86 583.487 1221.87 609.375 1221.87C635.263 1221.87 656.25 1242.86 656.25 1268.75C656.25 1294.64 635.263 1315.62 609.375 1315.62Z" fill="#C18678"/>
<path d="M421.875 1003.12C395.987 1003.12 375 982.138 375 956.25H265.625C265.625 982.138 244.638 1003.12 218.75 1003.12C192.862 1003.12 171.875 982.138 171.875 956.25H2.11875C0.734375 967.188 0 978.266 0 989.447V1237.5C0 1383.97 119.159 1503.12 265.625 1503.12H921.875C947.763 1503.12 968.75 1482.14 968.75 1456.25V1034.38L861.694 956.25H468.75C468.75 982.138 447.763 1003.12 421.875 1003.12ZM234.375 1315.62C208.487 1315.62 187.5 1294.64 187.5 1268.75C187.5 1242.86 208.487 1221.88 234.375 1221.88C260.263 1221.88 281.25 1242.86 281.25 1268.75C281.25 1294.64 260.263 1315.62 234.375 1315.62ZM328.125 1159.38C302.237 1159.38 281.25 1138.39 281.25 1112.5C281.25 1086.61 302.237 1065.62 328.125 1065.62C354.013 1065.62 375 1086.61 375 1112.5C375 1138.39 354.013 1159.38 328.125 1159.38ZM421.875 1315.62C395.987 1315.62 375 1294.64 375 1268.75C375 1242.86 395.987 1221.88 421.875 1221.88C447.763 1221.88 468.75 1242.86 468.75 1268.75C468.75 1294.64 447.763 1315.62 421.875 1315.62ZM609.375 1221.88C635.263 1221.88 656.25 1242.86 656.25 1268.75C656.25 1294.64 635.263 1315.62 609.375 1315.62C583.487 1315.62 562.5 1294.64 562.5 1268.75C562.5 1242.86 583.487 1221.88 609.375 1221.88ZM515.625 1065.62C541.513 1065.62 562.5 1086.61 562.5 1112.5C562.5 1138.39 541.513 1159.38 515.625 1159.38C489.737 1159.38 468.75 1138.39 468.75 1112.5C468.75 1086.61 489.737 1065.62 515.625 1065.62Z" fill="#A55C4F"/>
<path d="M1265.62 143.75V1456.25C1265.62 1482.14 1286.61 1503.12 1312.5 1503.12H1437.5C1463.39 1503.12 1484.38 1482.14 1484.38 1456.25V143.75H1265.62Z" fill="#8E7D78"/>
<path d="M1265.62 956.25V1456.25C1265.62 1482.14 1286.61 1503.12 1312.5 1503.12H1437.5C1463.39 1503.12 1484.38 1482.14 1484.38 1456.25V956.25H1265.62Z" fill="#6B5C59"/>
<path d="M1553.13 96.875H953.129C935.882 96.875 920.032 106.344 911.857 121.528L761.97 399.887L580.701 503.469L589.226 606.575L820.139 474.625C827.754 470.275 833.995 463.875 838.154 456.15L981.126 190.625H1553.13C1579.02 190.625 1600 169.638 1600 143.75C1600 117.862 1579.02 96.875 1553.13 96.875V96.875Z" fill="#A55C4F"/>
<path d="M834.727 1065.63H1490.63C1551.03 1065.63 1600 1016.66 1600 956.25C1600 895.844 1551.03 846.875 1490.63 846.875H834.72C819.014 846.875 804.433 839.072 795.717 826L580.695 503.469L390.32 612.256L613.711 947.344C663.089 1021.41 745.711 1065.63 834.727 1065.63V1065.63Z" fill="#F2F2F2"/>
<path d="M619.947 956.25C669.869 1024.93 749.347 1065.62 834.725 1065.62H1490.63C1551.03 1065.62 1600 1016.66 1600 956.25H619.947Z" fill="#E2DCDA"/>
</g>
<defs>
<clipPath id="clip0">
<rect width="1600" height="1600" fill="white"/>
</clipPath>
</defs>
</svg>
