<svg width="1600" height="1600" viewBox="0 0 1600 1600" fill="none" xmlns="http://www.w3.org/2000/svg">
<path d="M1079.69 287.5C1053.8 287.5 1032.81 266.513 1032.81 240.625C1032.81 214.737 1053.8 193.75 1079.69 193.75C1107.26 193.75 1129.69 171.319 1129.69 143.75C1129.69 116.181 1107.26 93.75 1079.69 93.75C1053.8 93.75 1032.81 72.7625 1032.81 46.875C1032.81 20.9875 1053.8 0 1079.69 0C1158.95 0 1223.44 64.4875 1223.44 143.75C1223.44 223.013 1158.95 287.5 1079.69 287.5Z" fill="#C6B7B4"/>
<path d="M284.375 240.625H1315.62V1553.12H284.375V240.625Z" fill="#FEDB41"/>
<path d="M800 240.625H1315.62V1553.12H800V240.625Z" fill="#FEA832"/>
<path d="M1331.25 287.5H268.75C242.862 287.5 221.875 266.513 221.875 240.625C221.875 214.737 242.862 193.75 268.75 193.75H1331.25C1357.14 193.75 1378.12 214.737 1378.12 240.625C1378.12 266.513 1357.14 287.5 1331.25 287.5Z" fill="#F2F2F2"/>
<path d="M1331.25 193.75H800V287.5H1331.25C1357.14 287.5 1378.12 266.513 1378.12 240.625C1378.12 214.737 1357.14 193.75 1331.25 193.75Z" fill="#E2DCDA"/>
<path d="M1331.25 1600H268.75C242.862 1600 221.875 1579.01 221.875 1553.12C221.875 1527.24 242.862 1506.25 268.75 1506.25H1331.25C1357.14 1506.25 1378.12 1527.24 1378.12 1553.12C1378.12 1579.01 1357.14 1600 1331.25 1600Z" fill="#F2F2F2"/>
<path d="M800 1037.5C739.316 1037.5 695.791 1029.27 663.025 1011.59C630.929 994.275 592.666 958.334 592.666 885.456C592.669 771.134 685.679 678.125 800 678.125C914.322 678.125 1007.33 771.134 1007.33 885.456C1007.33 958.334 969.069 994.275 936.975 1011.59C904.21 1029.27 860.685 1037.5 800 1037.5Z" fill="#C18678"/>
<path d="M581.25 762.5C516.634 762.5 464.062 709.928 464.062 645.312C464.062 580.697 516.634 528.125 581.25 528.125C645.866 528.125 698.438 580.697 698.438 645.312C698.438 709.928 645.866 762.5 581.25 762.5Z" fill="#A55C4F"/>
<path d="M800 678.125C735.384 678.125 682.812 625.553 682.812 560.938C682.812 496.322 735.384 443.75 800 443.75C864.616 443.75 917.188 496.322 917.188 560.938C917.188 625.553 864.616 678.125 800 678.125Z" fill="#A55C4F"/>
<path d="M901.562 645.312C901.562 580.697 954.134 528.125 1018.75 528.125C1083.37 528.125 1135.94 580.697 1135.94 645.312C1135.94 709.928 1083.37 762.5 1018.75 762.5C954.134 762.5 901.562 709.928 901.562 645.312Z" fill="#784033"/>
<path d="M936.975 1011.59C969.072 994.275 1007.33 958.334 1007.33 885.456C1007.33 771.134 914.322 678.125 800 678.125V1037.5C860.684 1037.5 904.209 1029.27 936.975 1011.59Z" fill="#A55C4F"/>
<path d="M917.188 560.938C917.188 496.322 864.616 443.75 800 443.75V678.125C864.616 678.125 917.188 625.553 917.188 560.938Z" fill="#784033"/>
<path d="M1050 1225H550C524.112 1225 503.125 1204.01 503.125 1178.12C503.125 1152.24 524.112 1131.25 550 1131.25H1050C1075.89 1131.25 1096.88 1152.24 1096.88 1178.12C1096.88 1204.01 1075.89 1225 1050 1225Z" fill="#6B5C59"/>
<path d="M1050 1412.5H550C524.112 1412.5 503.125 1391.51 503.125 1365.62C503.125 1339.74 524.112 1318.75 550 1318.75H1050C1075.89 1318.75 1096.88 1339.74 1096.88 1365.62C1096.88 1391.51 1075.89 1412.5 1050 1412.5Z" fill="#6B5C59"/>
<path d="M1050 1131.25H800V1225H1050C1075.89 1225 1096.88 1204.01 1096.88 1178.12C1096.88 1152.24 1075.89 1131.25 1050 1131.25Z" fill="#3A3331"/>
<path d="M1050 1318.75H800V1412.5H1050C1075.89 1412.5 1096.88 1391.51 1096.88 1365.62C1096.88 1339.74 1075.89 1318.75 1050 1318.75Z" fill="#3A3331"/>
<path d="M1331.25 1506.25H800V1600H1331.25C1357.14 1600 1378.12 1579.01 1378.12 1553.12C1378.12 1527.24 1357.14 1506.25 1331.25 1506.25Z" fill="#E2DCDA"/>
</svg>
