<svg width="1600" height="1600" viewBox="0 0 1600 1600" fill="none" xmlns="http://www.w3.org/2000/svg">
<path d="M800 846.875C774.112 846.875 753.125 825.888 753.125 800V612.5C753.125 586.612 774.112 565.625 800 565.625C825.888 565.625 846.875 586.612 846.875 612.5V800C846.875 825.888 825.888 846.875 800 846.875Z" fill="#6B5C59"/>
<path d="M846.875 800V612.5C846.875 586.612 825.888 565.625 800 565.625V846.875C825.888 846.875 846.875 825.888 846.875 800Z" fill="#3A3331"/>
<path d="M456.25 659.375H109.375C49.0656 659.375 0 610.309 0 550V237.5C0 177.191 49.0656 128.125 109.375 128.125H456.25C482.138 128.125 503.125 149.112 503.125 175V612.5C503.125 638.388 482.138 659.375 456.25 659.375Z" fill="#A55C4F"/>
<path d="M1490.63 128.125H659.375L612.5 159.375L565.625 128.125H456.25C308.913 128.125 189.206 248.709 190.638 396.372C192.056 542.603 313.397 659.375 459.638 659.375H565.625L612.5 628.125L659.375 659.375H1490.63C1551.03 659.375 1600 610.406 1600 550V237.5C1600 177.094 1551.03 128.125 1490.63 128.125Z" fill="#C18678"/>
<path d="M1490.62 128.125H800V659.375H1490.62C1550.93 659.375 1600 610.309 1600 550V237.5C1600 177.191 1550.93 128.125 1490.62 128.125Z" fill="#A55C4F"/>
<path d="M846.875 128.125H940.625V659.375H846.875V128.125Z" fill="#784033"/>
<path d="M565.625 128.125H659.375V659.375H565.625V128.125Z" fill="#A55C4F"/>
<path d="M425 440.625C450.888 440.625 471.875 419.638 471.875 393.75C471.875 367.862 450.888 346.875 425 346.875C399.112 346.875 378.125 367.862 378.125 393.75C378.125 419.638 399.112 440.625 425 440.625Z" fill="#6B5C59"/>
<path d="M1175 440.625C1200.89 440.625 1221.88 419.638 1221.88 393.75C1221.88 367.862 1200.89 346.875 1175 346.875C1149.11 346.875 1128.12 367.862 1128.12 393.75C1128.12 419.638 1149.11 440.625 1175 440.625Z" fill="#3A3331"/>
<path d="M987.5 440.625H800C774.112 440.625 753.125 419.638 753.125 393.75C753.125 367.862 774.112 346.875 800 346.875H987.5C1013.39 346.875 1034.38 367.862 1034.38 393.75C1034.38 419.638 1013.39 440.625 987.5 440.625Z" fill="#F2F2F2"/>
<path d="M987.5 440.625C1013.39 440.625 1034.38 419.638 1034.38 393.75C1034.38 367.862 1013.39 346.875 987.5 346.875H800V440.625H987.5Z" fill="#E2DCDA"/>
<path d="M800 753.125C601.522 753.125 440.625 914.022 440.625 1112.5C440.625 1150.06 446.397 1186.28 457.088 1220.31H1142.91C1153.6 1186.28 1159.38 1150.06 1159.38 1112.5C1159.38 914.022 998.478 753.125 800 753.125Z" fill="#FEA832"/>
<path d="M800 753.125V1220.31H1142.91C1153.6 1186.28 1159.38 1150.06 1159.38 1112.5C1159.38 914.022 998.478 753.125 800 753.125V753.125Z" fill="#FF873C"/>
<path d="M799.998 1471.88C989.384 1471.88 1142.91 1359.25 1142.91 1220.31C1142.91 1081.38 989.384 968.75 799.998 968.75C610.613 968.75 457.086 1081.38 457.086 1220.31C457.086 1359.25 610.613 1471.88 799.998 1471.88Z" fill="#FFDD54"/>
<path d="M799.998 1471.88C989.384 1471.88 1142.91 1359.25 1142.91 1220.31C1142.91 1081.38 989.384 968.75 799.998 968.75C610.613 968.75 457.086 1081.38 457.086 1220.31C457.086 1359.25 610.613 1471.88 799.998 1471.88Z" fill="#FEDB41"/>
<path d="M1142.91 1220.31C1142.91 1059.38 960.913 968.75 800 968.75V1471.88C960.913 1471.88 1142.91 1381.25 1142.91 1220.31Z" fill="#FEA832"/>
<path d="M800 1237.5C774.112 1237.5 753.125 1258.49 753.125 1284.38V1468.81C768.472 1470.81 784.109 1471.88 800 1471.88C815.891 1471.88 831.528 1470.8 846.875 1468.81V1284.38C846.875 1258.49 825.888 1237.5 800 1237.5Z" fill="#FEA832"/>
<path d="M846.875 1468.81V1284.38C846.875 1258.49 825.888 1237.5 800 1237.5V1471.88C815.891 1471.88 831.528 1470.8 846.875 1468.81Z" fill="#FF873C"/>
</svg>
