<svg width="1600" height="1600" viewBox="0 0 1600 1600" fill="none" xmlns="http://www.w3.org/2000/svg">
<g clip-path="url(#clip0)">
<path d="M371.649 1600C370.315 1600 368.977 1599.94 367.63 1599.83C349.508 1598.27 333.921 1586.37 327.646 1569.3L256.877 1376.9L54.8647 1411.82C36.9429 1414.92 18.846 1407.36 8.43973 1392.45C-1.96652 1377.53 -2.81027 1357.94 6.28348 1342.19L276.402 874.328C283.29 862.4 295.074 854.103 308.624 851.644C322.183 849.178 336.124 852.806 346.765 861.556L640.405 1102.96C658.115 1117.52 662.696 1142.75 651.23 1162.6L412.23 1576.56C403.812 1591.14 388.283 1600 371.649 1600V1600Z" fill="#FD4E26"/>
<path d="M1228.36 1600C1211.72 1600 1196.19 1591.15 1187.78 1576.56L948.775 1162.6C937.313 1142.75 941.891 1117.52 959.6 1102.96L1253.24 861.556C1263.88 852.809 1277.82 849.184 1291.38 851.644C1304.93 854.103 1316.72 862.397 1323.6 874.328L1593.72 1342.19C1602.82 1357.94 1601.98 1377.53 1591.57 1392.45C1581.17 1407.36 1563.07 1414.9 1545.15 1411.82L1343.13 1376.9L1272.37 1569.3C1266.09 1586.37 1250.5 1598.27 1232.38 1599.83C1231.03 1599.94 1229.69 1600 1228.36 1600V1600Z" fill="#FD3018"/>
<path d="M800 1218.75C463.991 1218.75 190.625 945.384 190.625 609.375C190.625 273.366 463.991 0 800 0C1136.01 0 1409.38 273.366 1409.38 609.375C1409.38 945.384 1136.01 1218.75 800 1218.75Z" fill="#FEDB41"/>
<path d="M800 0V1218.75C1136.01 1218.75 1409.38 945.384 1409.38 609.375C1409.38 273.366 1136.01 0 800 0Z" fill="#FEA832"/>
<path d="M800 1125C1084.77 1125 1315.62 894.147 1315.62 609.375C1315.62 324.603 1084.77 93.75 800 93.75C515.228 93.75 284.375 324.603 284.375 609.375C284.375 894.147 515.228 1125 800 1125Z" fill="#FEA832"/>
<path d="M800 93.75V1125C1084.32 1125 1315.62 893.691 1315.62 609.375C1315.62 325.059 1084.32 93.75 800 93.75Z" fill="#FF8C28"/>
<path d="M800 975.291C725.203 975.291 671.556 965.144 631.172 943.356C591.612 922.012 544.453 877.712 544.453 787.887C544.453 646.978 659.094 532.341 800 532.341C940.906 532.341 1055.55 646.978 1055.55 787.887C1055.55 877.712 1008.39 922.012 968.831 943.356C928.444 965.144 874.797 975.291 800 975.291Z" fill="#FEDB41"/>
<path d="M530.378 636.338C450.734 636.338 385.938 571.541 385.938 491.897C385.938 412.253 450.734 347.456 530.378 347.456C610.022 347.456 674.819 412.253 674.819 491.897C674.819 571.541 610.022 636.338 530.378 636.338Z" fill="#FEDB41"/>
<path d="M800.001 532.341C720.357 532.341 655.561 467.544 655.561 387.9C655.561 308.256 720.357 243.459 800.001 243.459C879.645 243.459 944.442 308.256 944.442 387.9C944.442 467.544 879.645 532.341 800.001 532.341Z" fill="#FEDB41"/>
<path d="M925.182 491.897C925.182 412.253 989.978 347.456 1069.62 347.456C1149.27 347.456 1214.06 412.253 1214.06 491.897C1214.06 571.541 1149.27 636.338 1069.62 636.338C989.978 636.338 925.182 571.541 925.182 491.897Z" fill="#FEA832"/>
<path d="M968.828 943.356C1008.39 922.012 1055.55 877.712 1055.55 787.887C1055.55 646.978 940.909 532.341 800 532.341V975.291C874.797 975.291 928.444 965.144 968.828 943.356Z" fill="#FEA832"/>
<path d="M944.441 387.9C944.441 308.256 879.644 243.459 800 243.459V532.341C879.644 532.341 944.441 467.544 944.441 387.9V387.9Z" fill="#FEA832"/>
</g>
<defs>
<clipPath id="clip0">
<rect width="1600" height="1600" fill="white"/>
</clipPath>
</defs>
</svg>
