<svg width="1600" height="1600" viewBox="0 0 1600 1600" fill="none" xmlns="http://www.w3.org/2000/svg">
<g clip-path="url(#clip0)">
<path d="M800 1234.38C560.484 1234.38 365.625 1039.52 365.625 800C365.625 560.484 560.484 365.625 800 365.625C1039.52 365.625 1234.38 560.484 1234.38 800C1234.38 1039.52 1039.52 1234.38 800 1234.38Z" fill="#FEDB41"/>
<path d="M800 255.134C774.112 255.134 753.125 234.147 753.125 208.259V46.875C753.125 20.9875 774.112 0 800 0C825.888 0 846.875 20.9875 846.875 46.875V208.259C846.875 234.147 825.888 255.134 800 255.134Z" fill="#FEA832"/>
<path d="M1553.13 846.875H1391.74C1365.85 846.875 1344.87 825.888 1344.87 800C1344.87 774.112 1365.85 753.125 1391.74 753.125H1553.13C1579.01 753.125 1600 774.112 1600 800C1600 825.888 1579.01 846.875 1553.13 846.875Z" fill="#FF873C"/>
<path d="M800 1600C774.112 1600 753.125 1579.01 753.125 1553.12V1391.74C753.125 1365.85 774.112 1344.87 800 1344.87C825.888 1344.87 846.875 1365.85 846.875 1391.74V1553.12C846.875 1579.01 825.888 1600 800 1600Z" fill="#FEA832"/>
<path d="M208.259 846.875H46.875C20.9875 846.875 0 825.888 0 800C0 774.112 20.9875 753.125 46.875 753.125H208.259C234.147 753.125 255.134 774.112 255.134 800C255.134 825.888 234.147 846.875 208.259 846.875Z" fill="#FEA832"/>
<path d="M1218.43 428.45C1206.43 428.45 1194.43 423.875 1185.28 414.719C1166.98 396.416 1166.98 366.734 1185.28 348.428L1299.4 234.312C1317.7 216.006 1347.38 216.006 1365.69 234.312C1383.99 252.616 1383.99 282.297 1365.69 300.603L1251.57 414.719C1242.42 423.875 1230.42 428.45 1218.43 428.45V428.45Z" fill="#FF873C"/>
<path d="M1332.54 1379.42C1320.54 1379.42 1308.55 1374.84 1299.4 1365.69L1185.28 1251.57C1166.97 1233.27 1166.97 1203.59 1185.28 1185.28C1203.58 1166.98 1233.26 1166.97 1251.57 1185.28L1365.69 1299.4C1383.99 1317.7 1383.99 1347.38 1365.69 1365.69C1356.53 1374.84 1344.54 1379.42 1332.54 1379.42Z" fill="#FF873C"/>
<path d="M267.46 1379.42C255.463 1379.42 243.467 1374.84 234.317 1365.68C216.01 1347.38 216.01 1317.7 234.317 1299.39L348.432 1185.28C366.735 1166.97 396.417 1166.97 414.723 1185.28C433.029 1203.58 433.029 1233.26 414.723 1251.57L300.607 1365.68C291.454 1374.84 279.457 1379.42 267.46 1379.42V1379.42Z" fill="#FEA832"/>
<path d="M381.576 428.45C369.579 428.45 357.582 423.875 348.432 414.719L234.314 300.603C216.007 282.3 216.007 252.619 234.314 234.312C252.617 216.006 282.298 216.006 300.604 234.312L414.723 348.428C433.029 366.731 433.029 396.412 414.723 414.719C405.57 423.875 393.573 428.45 381.576 428.45V428.45Z" fill="#FEA832"/>
<path d="M1027.07 300.456C1021.07 300.456 1014.98 299.3 1009.1 296.856C985.196 286.922 973.871 259.487 983.803 235.581L1045.73 86.5562C1055.67 62.6468 1083.11 51.3281 1107.01 61.2593C1130.91 71.1937 1142.24 98.6281 1132.31 122.534L1070.37 271.559C1062.88 289.581 1045.44 300.456 1027.07 300.456Z" fill="#FF873C"/>
<path d="M1495.44 1135.91C1489.44 1135.91 1483.35 1134.76 1477.47 1132.31L1328.44 1070.38C1304.54 1060.45 1293.22 1033.01 1303.15 1009.11C1313.08 985.197 1340.51 973.875 1364.42 983.809L1513.45 1045.74C1537.35 1055.67 1548.68 1083.11 1538.75 1107.02C1531.25 1125.04 1513.81 1135.91 1495.44 1135.91Z" fill="#FF873C"/>
<path d="M510.959 1542.35C504.962 1542.35 498.871 1541.19 492.987 1538.75C469.084 1528.81 457.759 1501.38 467.69 1477.47L529.622 1328.45C539.559 1304.54 566.987 1293.22 590.897 1303.15C614.8 1313.08 626.125 1340.52 616.193 1364.42L554.262 1513.45C546.771 1531.47 529.331 1542.35 510.959 1542.35Z" fill="#FEA832"/>
<path d="M253.55 619.794C247.553 619.794 241.462 618.638 235.578 616.194L86.5527 554.263C62.6464 544.328 51.3214 516.894 61.2527 492.987C71.1902 469.081 98.6214 457.762 122.528 467.691L271.553 529.622C295.456 539.556 306.781 566.991 296.85 590.897C289.362 608.922 271.921 619.794 253.55 619.794Z" fill="#FEA832"/>
<path d="M1346.98 621.078C1328.57 621.078 1311.1 610.156 1303.63 592.078C1293.76 568.147 1305.15 540.741 1329.08 530.863L1478.25 469.278C1502.17 459.4 1529.58 470.787 1539.46 494.719C1549.34 518.65 1537.95 546.056 1514.02 555.934L1364.85 617.519C1359 619.934 1352.94 621.078 1346.98 621.078Z" fill="#FF873C"/>
<path d="M1087.41 1543.02C1069 1543.02 1051.53 1532.1 1044.07 1514.02L982.481 1364.85C972.603 1340.92 983.99 1313.51 1007.92 1303.63C1031.85 1293.76 1059.26 1305.14 1069.14 1329.07L1130.72 1478.25C1140.6 1502.17 1129.22 1529.58 1105.28 1539.46C1099.43 1541.88 1093.37 1543.02 1087.41 1543.02V1543.02Z" fill="#FF873C"/>
<path d="M103.882 1134.28C85.4635 1134.28 68.001 1123.36 60.5354 1105.28C50.6573 1081.35 62.0479 1053.94 85.9791 1044.06L235.151 982.478C259.089 972.594 286.489 983.991 296.367 1007.92C306.245 1031.85 294.854 1059.25 270.923 1069.13L121.751 1130.72C115.901 1133.13 109.839 1134.28 103.882 1134.28V1134.28Z" fill="#FEA832"/>
<path d="M574.21 299.925C555.795 299.925 538.329 289.003 530.863 270.925L469.279 121.753C459.401 97.825 470.788 70.4156 494.723 60.5375C518.645 50.6594 546.057 62.0469 555.938 85.9781L617.523 235.15C627.401 259.081 616.013 286.488 592.079 296.366C586.229 298.778 580.17 299.925 574.21 299.925V299.925Z" fill="#FEA832"/>
<path d="M800 0V255.134C825.888 255.134 846.875 234.147 846.875 208.259V46.875C846.875 20.9875 825.888 0 800 0Z" fill="#FF873C"/>
<path d="M800 365.625V1234.38C1039.52 1234.38 1234.38 1039.52 1234.38 800C1234.38 560.484 1039.52 365.625 800 365.625Z" fill="#FF8C28"/>
<path d="M800 1344.87V1600C825.888 1600 846.875 1579.01 846.875 1553.12V1391.74C846.875 1365.85 825.888 1344.87 800 1344.87V1344.87Z" fill="#FF873C"/>
</g>
<defs>
<clipPath id="clip0">
<rect width="1600" height="1600" fill="white"/>
</clipPath>
</defs>
</svg>
