<svg width="1600" height="1600" viewBox="0 0 1600 1600" fill="none" xmlns="http://www.w3.org/2000/svg">
<path d="M638.69 1237.99C632.633 1237.99 626.58 1236.82 620.865 1234.47C609.074 1229.63 599.768 1220.18 595.087 1208.33L537.574 1062.61L392.393 1006.19C380.512 1001.57 371.024 992.316 366.112 980.55C361.202 968.784 361.296 955.531 366.371 943.834L428.74 800.131L365.977 657.578C360.84 645.913 360.677 632.656 365.524 620.866C370.371 609.075 379.812 599.769 391.668 595.088L537.383 537.575L593.805 392.394C598.424 380.513 607.68 371.025 619.446 366.113C631.208 361.203 644.462 361.294 656.162 366.372L799.865 428.741L942.418 365.978C954.083 360.841 967.343 360.675 979.13 365.525C990.921 370.372 1000.23 379.813 1004.91 391.669L1062.42 537.384L1207.6 593.806C1219.48 598.425 1228.97 607.681 1233.88 619.447C1238.79 631.213 1238.7 644.466 1233.62 656.163L1171.26 799.866L1234.02 942.419C1239.16 954.084 1239.32 967.341 1234.47 979.131C1229.62 990.922 1220.18 1000.23 1208.33 1004.91L1062.61 1062.42L1006.19 1207.6C1001.57 1219.48 992.315 1228.97 980.549 1233.88C968.783 1238.79 955.527 1238.7 943.833 1233.63L800.13 1171.26L657.577 1234.02C651.565 1236.67 645.13 1237.99 638.69 1237.99V1237.99ZM471.774 936.459L590.637 982.65C602.812 987.384 612.462 996.981 617.258 1009.13L664.402 1128.58L781.112 1077.2C793.071 1071.93 806.68 1071.9 818.665 1077.1L936.462 1128.22L982.652 1009.36C987.387 997.188 996.983 987.537 1009.14 982.741L1128.58 935.597L1077.2 818.888C1071.93 806.931 1071.9 793.319 1077.1 781.334L1128.23 663.538L1009.36 617.347C997.19 612.613 987.54 603.016 982.743 590.863L935.599 471.416L818.89 522.8C806.933 528.066 793.324 528.103 781.337 522.9L663.54 471.775L617.349 590.634C612.615 602.809 603.018 612.459 590.865 617.256L471.418 664.4L522.802 781.109C528.068 793.066 528.102 806.678 522.902 818.662L471.774 936.459Z" fill="#0082F5"/>
<path d="M1234.02 942.419L1171.26 799.866L1233.62 656.163C1238.7 644.469 1238.79 631.213 1233.88 619.447C1228.97 607.681 1219.49 598.425 1207.6 593.806L1062.42 537.384L1004.91 391.669C1000.23 379.813 990.922 370.372 979.131 365.525C967.344 360.675 954.084 360.841 942.419 365.978L800 428.684V526.772C806.437 526.772 812.872 525.453 818.891 522.803L935.6 471.419L982.744 590.866C987.541 603.019 997.191 612.616 1009.37 617.35L1128.23 663.541L1077.1 781.338C1071.9 793.322 1071.93 806.931 1077.2 818.891L1128.58 935.6L1009.14 982.744C996.984 987.541 987.387 997.191 982.653 1009.37L936.462 1128.23L818.666 1077.1C812.712 1074.52 806.356 1073.23 800.003 1073.23V1171.32L800.138 1171.26L943.841 1233.63C955.534 1238.7 968.791 1238.79 980.556 1233.88C992.322 1228.97 1001.58 1219.49 1006.2 1207.6L1062.62 1062.42L1208.33 1004.91C1220.19 1000.23 1229.63 990.922 1234.48 979.131C1239.32 967.341 1239.16 954.088 1234.02 942.419Z" fill="#0050BE"/>
<path d="M973.868 95.5281C960.924 73.1062 932.262 65.425 909.837 78.3719L799.999 141.784L690.162 78.3719C667.737 65.4219 639.071 73.1094 626.131 95.5281C613.187 117.947 620.868 146.616 643.287 159.559L772.796 234.331C780.177 238.594 788.237 240.619 796.19 240.619C797.465 240.619 798.734 240.547 799.999 240.444C801.265 240.547 802.534 240.619 803.809 240.619C811.759 240.619 819.821 238.594 827.202 234.331L956.712 159.559C979.131 146.616 986.812 117.947 973.868 95.5281V95.5281Z" fill="#00B4FF"/>
<path d="M956.709 1440.44L827.199 1365.67C818.631 1360.72 809.156 1358.81 799.987 1359.56C790.824 1358.81 781.356 1360.73 772.793 1365.67L643.284 1440.44C620.865 1453.38 613.184 1482.05 626.128 1504.47C634.809 1519.51 650.565 1527.92 666.765 1527.92C674.715 1527.92 682.778 1525.89 690.159 1521.63L799.999 1458.22L909.837 1521.63C917.218 1525.89 925.278 1527.92 933.231 1527.92C949.431 1527.92 965.187 1519.51 973.868 1504.48C986.812 1482.05 979.131 1453.38 956.709 1440.44V1440.44Z" fill="#00B4FF"/>
<path d="M1458.21 800L1521.63 690.162C1534.57 667.744 1526.89 639.075 1504.47 626.131C1482.05 613.181 1453.38 620.866 1440.44 643.287L1365.67 772.797C1360.72 781.362 1358.81 790.834 1359.56 800C1358.81 809.162 1360.72 818.637 1365.67 827.203L1440.44 956.713C1449.12 971.753 1464.88 980.156 1481.08 980.156C1489.03 980.156 1497.09 978.131 1504.47 973.869C1526.89 960.925 1534.57 932.256 1521.63 909.838L1458.21 800Z" fill="#0082F5"/>
<path d="M234.332 772.797L159.56 643.288C146.617 620.869 117.948 613.184 95.5291 626.131C73.1104 639.075 65.4291 667.744 78.3729 690.163L141.785 800L78.3698 909.838C65.426 932.256 73.1073 960.925 95.526 973.869C102.907 978.131 110.967 980.156 118.92 980.156C135.12 980.156 150.876 971.75 159.557 956.713L234.329 827.203C239.273 818.637 241.189 809.166 240.442 800C241.192 790.834 239.276 781.363 234.332 772.797V772.797Z" fill="#00B4FF"/>
<path d="M1421.08 1175.19C1414.38 1150.19 1388.68 1135.34 1363.67 1142.05L1219.23 1180.76C1209.68 1183.32 1201.63 1188.66 1195.68 1195.66C1188.67 1201.62 1183.32 1209.67 1180.76 1219.22L1142.05 1363.67C1135.35 1388.68 1150.19 1414.38 1175.19 1421.08C1179.26 1422.17 1183.34 1422.69 1187.36 1422.69C1208.05 1422.69 1226.99 1408.88 1232.6 1387.94L1265.43 1265.43L1387.93 1232.6C1412.94 1225.9 1427.78 1200.2 1421.08 1175.19Z" fill="#0082F5"/>
<path d="M424.804 178.916C399.791 172.213 374.094 187.056 367.394 212.059L334.569 334.569L212.063 367.394C187.057 374.094 172.219 399.797 178.919 424.803C184.529 445.747 203.469 459.559 224.166 459.559C228.182 459.559 232.263 459.038 236.329 457.95L380.779 419.247C390.351 416.681 398.413 411.319 404.369 404.291C411.357 398.341 416.694 390.309 419.248 380.775L457.954 236.325C464.651 211.322 449.81 185.616 424.804 178.916V178.916Z" fill="#00B4FF"/>
<path d="M1387.93 367.394L1265.43 334.569L1232.6 212.063C1225.9 187.056 1200.2 172.213 1175.19 178.919C1150.19 185.619 1135.35 211.322 1142.05 236.328L1180.76 380.775C1183.31 390.309 1188.65 398.344 1195.64 404.294C1201.59 411.322 1209.65 416.681 1219.23 419.247L1363.68 457.953C1367.74 459.044 1371.82 459.563 1375.84 459.563C1396.53 459.563 1415.48 445.75 1421.08 424.806C1427.78 399.8 1412.94 374.094 1387.93 367.394V367.394Z" fill="#0082F5"/>
<path d="M457.95 1363.67L419.244 1219.22C416.684 1209.67 411.334 1201.61 404.325 1195.66C398.375 1188.65 390.325 1183.31 380.775 1180.75L236.325 1142.05C211.306 1135.34 185.612 1150.18 178.915 1175.19C172.215 1200.2 187.053 1225.9 212.059 1232.6L334.565 1265.42L367.391 1387.93C373.003 1408.87 391.941 1422.69 412.637 1422.69C416.653 1422.69 420.734 1422.17 424.8 1421.08C449.809 1414.38 464.65 1388.67 457.95 1363.67V1363.67Z" fill="#00B4FF"/>
<path d="M1553.12 753.125H913.166L1365.68 300.606C1383.99 282.3 1383.99 252.622 1365.68 234.316C1347.38 216.009 1317.7 216.009 1299.39 234.316L846.875 686.834V46.875C846.875 20.9875 825.888 0 800 0C774.112 0 753.125 20.9875 753.125 46.875V686.834L300.606 234.316C282.303 216.009 252.622 216.009 234.316 234.316C216.009 252.622 216.009 282.3 234.316 300.606L686.834 753.125H46.875C20.9875 753.125 0 774.112 0 800C0 825.888 20.9875 846.875 46.875 846.875H686.834L234.316 1299.39C216.009 1317.7 216.009 1347.38 234.316 1365.68C243.469 1374.84 255.466 1379.42 267.459 1379.42C279.453 1379.42 291.453 1374.84 300.603 1365.68L753.125 913.166V1553.12C753.125 1579.01 774.112 1600 800 1600C825.888 1600 846.875 1579.01 846.875 1553.12V913.166L1299.39 1365.68C1308.55 1374.84 1320.54 1379.42 1332.54 1379.42C1344.53 1379.42 1356.53 1374.84 1365.68 1365.68C1383.99 1347.38 1383.99 1317.7 1365.68 1299.39L913.166 846.875H1553.12C1579.01 846.875 1600 825.888 1600 800C1600 774.112 1579.01 753.125 1553.12 753.125V753.125Z" fill="#00B4FF"/>
<path d="M1553.12 753.125H913.166L1365.68 300.606C1383.99 282.3 1383.99 252.622 1365.68 234.316C1347.38 216.009 1317.7 216.009 1299.39 234.316L846.875 686.834V46.875C846.875 20.9875 825.888 0 800 0V1600C825.888 1600 846.875 1579.01 846.875 1553.12V913.166L1299.39 1365.68C1308.55 1374.84 1320.54 1379.42 1332.54 1379.42C1344.53 1379.42 1356.53 1374.84 1365.68 1365.68C1383.99 1347.38 1383.99 1317.7 1365.68 1299.39L913.166 846.875H1553.12C1579.01 846.875 1600 825.888 1600 800C1600 774.112 1579.01 753.125 1553.12 753.125Z" fill="#0082F5"/>
<path d="M973.869 95.5281C960.925 73.1062 932.263 65.425 909.838 78.3719L800 141.784V240.447C801.266 240.55 802.534 240.622 803.809 240.622C811.759 240.622 819.822 238.597 827.203 234.334L956.713 159.563C979.131 146.616 986.813 117.947 973.869 95.5281Z" fill="#0082F5"/>
<path d="M956.71 1440.44L827.2 1365.67C818.635 1360.72 809.16 1358.81 799.997 1359.56V1458.22L909.835 1521.63C917.216 1525.89 925.275 1527.92 933.228 1527.92C949.428 1527.92 965.185 1519.51 973.866 1504.48C986.813 1482.05 979.131 1453.38 956.71 1440.44Z" fill="#0082F5"/>
</svg>
