<svg width="1600" height="1600" viewBox="0 0 1600 1600" fill="none" xmlns="http://www.w3.org/2000/svg">
<path d="M1202.75 1304.82H397.247C383.444 1304.82 370.341 1298.73 361.434 1288.19C352.528 1277.64 348.725 1263.7 351.034 1250.1L472.138 536.994C483.656 469.14 541.969 419.894 610.788 419.894H989.166C1057.97 419.894 1116.28 469.128 1127.81 536.959C1137.32 592.89 1204.38 987.906 1215.72 1054.57C1226.81 1119.75 1237.9 1184.93 1248.97 1250.09C1251.28 1263.7 1247.48 1277.64 1238.57 1288.19C1229.66 1298.73 1216.56 1304.82 1202.75 1304.82Z" fill="#FD4E26"/>
<path d="M1248.97 1250.09C1237.9 1184.93 1226.81 1119.75 1215.72 1054.57C1204.37 987.903 1137.31 592.891 1127.81 536.956C1116.28 469.125 1057.97 419.891 989.163 419.891H800V1304.82H1202.75C1216.56 1304.82 1229.66 1298.73 1238.57 1288.19C1247.47 1277.64 1251.28 1263.7 1248.97 1250.09Z" fill="#FD3018"/>
<path d="M893.75 1268.6H706.25C680.362 1268.6 659.375 1247.62 659.375 1221.73V909.228C659.375 831.687 722.459 768.603 800 768.603C877.541 768.603 940.625 831.687 940.625 909.228V1221.73C940.625 1247.62 919.638 1268.6 893.75 1268.6Z" fill="#FFBFAB"/>
<path d="M800 768.603V1268.6H893.75C919.638 1268.6 940.625 1247.62 940.625 1221.73V909.228C940.625 831.687 877.541 768.603 800 768.603Z" fill="#FF9468"/>
<path d="M1359.38 1537.35H240.625C214.737 1537.35 193.75 1516.37 193.75 1490.48V1256.1C193.75 1230.22 214.737 1209.23 240.625 1209.23H1359.38C1385.26 1209.23 1406.25 1230.22 1406.25 1256.1V1490.48C1406.25 1516.37 1385.26 1537.35 1359.38 1537.35Z" fill="#6B5C59"/>
<path d="M162.5 909.509H46.875C20.9875 909.509 0 888.522 0 862.634C0 836.747 20.9875 815.759 46.875 815.759H162.5C188.388 815.759 209.375 836.747 209.375 862.634C209.375 888.522 188.388 909.509 162.5 909.509Z" fill="#FD4E26"/>
<path d="M1553.12 908.949H1437.5C1411.61 908.949 1390.62 887.962 1390.62 862.074C1390.62 836.187 1411.61 815.199 1437.5 815.199H1553.12C1579.01 815.199 1600 836.187 1600 862.074C1600 887.962 1579.01 908.949 1553.12 908.949Z" fill="#FD3018"/>
<path d="M800 271.728C774.112 271.728 753.125 250.74 753.125 224.853V109.228C753.125 83.3403 774.112 62.3528 800 62.3528C825.888 62.3528 846.875 83.3403 846.875 109.228V224.853C846.875 250.74 825.888 271.728 800 271.728Z" fill="#FD4E26"/>
<path d="M349.023 458.646C337.026 458.646 325.029 454.068 315.879 444.915L234.116 363.156C215.81 344.853 215.81 315.171 234.116 296.865C252.42 278.562 282.101 278.562 300.407 296.865L382.17 378.624C400.476 396.928 400.476 426.609 382.17 444.915C373.016 454.068 361.02 458.646 349.023 458.646Z" fill="#FD4E26"/>
<path d="M1250.58 458.253C1238.59 458.253 1226.59 453.674 1217.44 444.521C1199.13 426.218 1199.13 396.537 1217.44 378.231L1299.2 296.471C1317.5 278.168 1347.18 278.168 1365.49 296.471C1383.8 314.774 1383.8 344.456 1365.49 362.762L1283.73 444.521C1274.58 453.674 1262.58 458.253 1250.58 458.253Z" fill="#FD3018"/>
<path d="M1507.42 1537.65H94.9219C69.0344 1537.65 48.0469 1516.66 48.0469 1490.77C48.0469 1464.88 69.0344 1443.9 94.9219 1443.9H1507.42C1533.31 1443.9 1554.3 1464.88 1554.3 1490.77C1554.3 1516.66 1533.31 1537.65 1507.42 1537.65Z" fill="#6B5C59"/>
<path d="M800 62.3528V271.728C825.888 271.728 846.875 250.74 846.875 224.853V109.228C846.875 83.3403 825.888 62.3528 800 62.3528Z" fill="#FD3018"/>
<path d="M1359.38 1209.23H800V1537.35H1359.38C1385.26 1537.35 1406.25 1516.37 1406.25 1490.48V1256.1C1406.25 1230.22 1385.26 1209.23 1359.38 1209.23Z" fill="#3A3331"/>
<path d="M1507.42 1443.9H800V1537.65H1507.42C1533.31 1537.65 1554.3 1516.66 1554.3 1490.77C1554.3 1464.88 1533.31 1443.9 1507.42 1443.9Z" fill="#3A3331"/>
</svg>
