<svg width="1600" height="1600" viewBox="0 0 1600 1600" fill="none" xmlns="http://www.w3.org/2000/svg">
<path d="M1459.38 565.628H1365.62C1339.37 565.628 1318.75 586.25 1318.75 612.503V987.503C1318.75 1013.75 1339.37 1034.38 1365.62 1034.38H1459.38C1537.19 1034.38 1600 971.562 1600 893.753V706.253C1600 628.437 1537.19 565.628 1459.38 565.628Z" fill="#E2DCDA"/>
<path d="M1600 800.003V893.753C1600 971.562 1537.19 1034.38 1459.38 1034.38H1365.62C1339.37 1034.38 1318.75 1013.75 1318.75 987.503V800.003H1600Z" fill="#C6B7B4"/>
<path d="M1271.88 378.128H140.625C62.8094 378.128 0 440.938 0 518.753V1081.25C0 1159.06 62.8094 1221.88 140.625 1221.88H1271.88C1349.69 1221.88 1412.5 1159.06 1412.5 1081.25V518.753C1412.5 440.938 1349.69 378.128 1271.88 378.128Z" fill="#F2F2F2"/>
<path d="M1412.5 800.003V1081.25C1412.5 1159.06 1349.69 1221.88 1271.88 1221.88H140.625C62.8094 1221.88 0 1159.06 0 1081.25V800.003H1412.5Z" fill="#E2DCDA"/>
<path d="M1178.12 565.628C82.1875 565.628 890.625 565.628 234.375 565.628C208.122 565.628 187.5 586.25 187.5 612.503V987.503C187.5 1013.75 208.122 1034.38 234.375 1034.38H1178.12C1204.38 1034.38 1225 1013.75 1225 987.503V612.503C1225 586.25 1204.38 565.628 1178.12 565.628Z" fill="#98D400"/>
<path d="M1225 800.003V987.503C1225 1013.75 1204.38 1034.38 1178.12 1034.38H234.375C208.122 1034.38 187.5 1013.75 187.5 987.503V800.003H1225Z" fill="#6ECD24"/>
<path d="M1002.5 755.937L760.624 675.312L845.937 246.875C856.249 196.253 788.749 169.059 760.627 211.25L706.249 292.812L385.627 773.75C368.752 800.003 380.94 834.691 410.002 844.062L651.874 924.687L566.562 1353.13C556.249 1403.75 622.809 1430.94 651.871 1388.75L706.249 1307.19L1026.87 826.25C1043.75 800.003 1031.56 765.316 1002.5 755.937Z" fill="#FEDB41"/>
<path d="M377.961 800.003C378.111 819.337 390.092 837.641 410.002 844.062L651.873 924.687L566.561 1353.12C556.248 1403.75 622.808 1430.94 651.87 1388.75L706.245 1307.19L1026.87 826.25C1032.18 817.987 1034.6 808.887 1034.54 800.003H377.961Z" fill="#FEA832"/>
</svg>
