<svg width="1600" height="1600" viewBox="0 0 1600 1600" fill="none" xmlns="http://www.w3.org/2000/svg">
<path d="M800 426.872C729.688 426.872 659.375 472.816 659.375 565.625V1034.38C659.375 1060.62 679.997 1081.25 706.25 1081.25C732.503 1081.25 753.125 1060.62 753.125 1034.38C753.125 1008.12 773.747 987.5 800 987.5C826.253 987.5 846.875 1008.12 846.875 1034.38C846.875 1060.62 867.497 1081.25 893.75 1081.25C920.003 1081.25 940.625 1060.62 940.625 1034.38V565.625C940.625 472.813 870.312 426.872 800 426.872Z" fill="#6B5C59"/>
<path d="M940.625 565.625V1034.38C940.625 1060.62 920.003 1081.25 893.75 1081.25C867.497 1081.25 846.875 1060.62 846.875 1034.38C846.875 1008.12 826.253 987.5 800 987.5V426.872C870.312 426.872 940.625 472.813 940.625 565.625Z" fill="#3A3331"/>
<path d="M800 893.75C722.184 893.75 659.375 956.559 659.375 1034.38C659.375 1112.18 722.184 1175 800 1175C877.816 1175 940.625 1112.18 940.625 1034.38C940.625 956.559 877.816 893.75 800 893.75ZM800 1081.25C773.747 1081.25 753.125 1060.62 753.125 1034.38C753.125 1008.12 773.747 987.5 800 987.5C826.253 987.5 846.875 1008.12 846.875 1034.38C846.875 1060.62 826.253 1081.25 800 1081.25Z" fill="#8E7D78"/>
<path d="M893.75 1034.38C893.75 1085.94 851.562 1128.12 800 1128.12C748.438 1128.12 706.25 1085.94 706.25 1034.38C706.25 982.812 748.438 940.625 800 940.625C851.562 940.625 893.75 982.812 893.75 1034.38Z" fill="#E2DCDA"/>
<path d="M940.625 1034.38C940.625 1112.18 877.816 1175 800 1175V1081.25C826.253 1081.25 846.875 1060.62 846.875 1034.38C846.875 1008.12 826.253 987.5 800 987.5V893.75C877.816 893.75 940.625 956.559 940.625 1034.38Z" fill="#6B5C59"/>
<path d="M893.75 1034.38C893.75 1085.94 851.562 1128.12 800 1128.12V940.625C851.562 940.625 893.75 982.812 893.75 1034.38Z" fill="#C6B7B4"/>
<path d="M940.625 425C935.634 425 930.647 424.222 925.747 422.575C906.613 416.166 893.75 398.266 893.75 378.125V237.5C893.75 134.091 980.966 50 1084.37 50C1171.21 50 1248.02 111.525 1266.98 196.3L1291.33 305.066C1295.41 323.284 1288.31 342.144 1273.25 353.178C1258.14 364.119 1238 365.172 1221.98 355.787C1143.06 309.875 1033.37 333.038 978.072 406.372C969.006 418.316 955.044 425 940.625 425Z" fill="#6B5C59"/>
<path d="M656.25 425C641.832 425 627.869 418.316 618.807 406.369C563.553 333.034 457.078 309.872 378.022 355.784C361.953 365.259 341.813 364.206 326.753 353.175C311.694 342.144 304.597 323.284 308.672 305.063L333.025 196.297C351.975 111.525 428.788 50 515.625 50C619.035 50 703.125 134.091 703.125 237.5V378.125C703.125 398.266 690.263 416.166 671.128 422.575C666.228 424.222 661.241 425 656.25 425Z" fill="#8E7D78"/>
<path d="M703.125 1221.88C677.216 1221.88 656.25 1200.91 656.25 1175C656.25 1019.91 530.091 893.75 375 893.75C261.475 893.75 159.575 961.591 115.403 1066.6C111.285 1076.4 108.078 1086.29 104.828 1096.95C97.2753 1121.53 71.4128 1135.59 46.5566 1128.03C21.8816 1120.62 7.78469 1094.71 15.0159 1069.99L198.763 439.969C219.225 368.419 268.022 307.766 332.613 273.847C372.619 250.409 420.366 237.5 468.75 237.5C557.832 237.5 639.816 278.469 693.694 349.881C695.113 351.803 696.394 353.819 697.538 355.925C731.416 401.975 750 459.516 750 518.75V1175C750 1200.91 729.035 1221.88 703.125 1221.88Z" fill="#C6B7B4"/>
<path d="M468.751 518.75L386.251 800.937C382.504 800 378.748 800 375.001 800C344.061 800 314.061 803.747 284.998 811.25L378.748 492.497C396.761 431.728 485.936 460.756 468.751 518.75Z" fill="#8E7D78"/>
<path d="M375 846.875C242.569 846.875 123.687 925.978 72.1906 1048.43C67.475 1059.69 63.7219 1071.04 59.8312 1083.81C51.225 1113.29 46.875 1143.96 46.875 1175C46.875 1355.91 194.091 1503.12 375 1503.12C555.909 1503.12 703.125 1355.91 703.125 1175C703.125 994.091 555.909 846.875 375 846.875Z" fill="#F2F2F2"/>
<path d="M1539.76 1082.39C1536.28 1071 1532.53 1059.64 1527.77 1048.34C1476.27 925.931 1357.43 846.875 1225 846.875C1044.09 846.875 893.75 994.091 893.75 1175C893.75 1355.91 1044.09 1503.12 1225 1503.12C1405.91 1503.12 1553.12 1355.91 1553.12 1175C1553.12 1144.01 1548.73 1113.11 1539.76 1082.39Z" fill="#E2DCDA"/>
<path d="M893.75 1221.88C867.841 1221.88 846.875 1200.91 846.875 1175V518.75C846.875 459.378 865.553 401.7 899.606 355.603C900.659 353.587 901.85 351.666 903.178 349.881C957.059 278.469 1042.17 237.5 1131.25 237.5C1179.63 237.5 1227.38 250.409 1269.22 274.853C1331.98 307.766 1380.77 368.419 1401.33 440.197L1584.98 1069.99C1592.22 1094.71 1578.12 1120.62 1553.44 1128.03C1528.68 1135.36 1502.77 1121.48 1495.17 1096.95C1491.92 1086.28 1488.72 1076.4 1484.55 1066.51C1440.43 961.591 1338.52 893.75 1225 893.75C1069.91 893.75 940.625 1019.91 940.625 1175C940.625 1200.91 919.659 1221.88 893.75 1221.88Z" fill="#8E7D78"/>
<path d="M1315 811.25C1285.94 803.747 1255.94 800 1225 800C1221.25 800 1217.5 800 1213.75 800.937L1131.25 518.75C1114.07 460.756 1203.24 431.728 1221.25 492.497L1315 811.25Z" fill="#6B5C59"/>
<path d="M375 1550C168.228 1550 0 1381.77 0 1175C0 1139.52 5.03437 1104.18 15.0156 1070.03C19.4562 1055.62 23.6688 1042.98 28.9313 1030.35C87.8 890.363 223.619 800 375 800C581.772 800 750 968.228 750 1175C750 1381.77 581.772 1550 375 1550ZM375 893.75C261.475 893.75 159.575 961.591 115.403 1066.6C111.284 1076.4 108.078 1086.29 104.828 1096.95C97.55 1121.9 93.75 1148.4 93.75 1175C93.75 1330.09 219.909 1456.25 375 1456.25C530.091 1456.25 656.25 1330.09 656.25 1175C656.25 1019.91 530.091 893.75 375 893.75Z" fill="#8E7D78"/>
<path d="M1225 1550C1018.23 1550 846.875 1381.77 846.875 1175C846.875 968.228 1018.23 800 1225 800C1376.38 800 1512.2 890.363 1571.02 1030.26C1576.33 1042.98 1580.55 1055.62 1584.8 1069.3C1594.97 1104.18 1600 1139.52 1600 1175C1600 1381.77 1431.77 1550 1225 1550ZM1225 893.75C1069.91 893.75 940.625 1019.91 940.625 1175C940.625 1330.09 1069.91 1456.25 1225 1456.25C1380.09 1456.25 1506.25 1330.09 1506.25 1175C1506.25 1148.4 1502.45 1121.9 1494.99 1096.22C1491.92 1086.28 1488.72 1076.4 1484.55 1066.51C1440.42 961.591 1338.52 893.75 1225 893.75Z" fill="#6B5C59"/>
</svg>
