<svg width="1600" height="1600" viewBox="0 0 1600 1600" fill="none" xmlns="http://www.w3.org/2000/svg">
<g clip-path="url(#clip0)">
<path d="M1553.13 445.209H1452.71C1426.82 445.209 1405.83 424.222 1405.83 398.334C1405.83 372.447 1426.82 351.459 1452.71 351.459H1553.13C1579.01 351.459 1600 372.447 1600 398.334C1600 424.222 1579.02 445.209 1553.13 445.209Z" fill="#FEDB41"/>
<path d="M1099.93 1405.83H947.293V1202.99C947.293 1177.75 927.896 1156.03 902.684 1154.84C875.765 1153.58 853.543 1175.03 853.543 1201.67V1452.71C853.543 1478.59 874.53 1499.58 900.418 1499.58H1101.25C1127.89 1499.58 1149.34 1477.36 1148.07 1450.44C1146.88 1425.23 1125.16 1405.83 1099.93 1405.83Z" fill="#FD4E26"/>
<path d="M900.417 1405.83H746.458V1201.67C746.458 1175.78 725.47 1154.79 699.583 1154.79C673.695 1154.79 652.708 1175.78 652.708 1201.67V1405.83H599.167C573.279 1405.83 552.292 1426.82 552.292 1452.71C552.292 1478.59 573.279 1499.58 599.167 1499.58H900.417C926.305 1499.58 947.292 1478.59 947.292 1452.71C947.292 1426.82 926.305 1405.83 900.417 1405.83Z" fill="#FF873C"/>
<path d="M1051.04 1248.54H548.959C523.071 1248.54 502.084 1227.55 502.084 1201.67C502.084 1175.78 523.071 1154.79 548.959 1154.79C716.906 1154.79 853.543 1018.15 853.543 850.207V348.128C853.543 335.694 858.481 323.775 867.271 314.985C867.271 314.982 939.315 242.938 997.05 185.157C1050.87 131.307 1125.45 100.422 1201.67 100.422C1280.24 100.422 1357.03 132.235 1412.34 187.697C1468.57 243.775 1499.58 318.597 1499.58 398.288V800L1051.04 1248.54Z" fill="#FEA832"/>
<path d="M1201.67 100.419C1125.45 100.419 1050.87 131.303 997.049 185.153C980.952 201.266 963.743 218.481 947.293 234.938V1248.54H1051.04L1499.58 800V398.281C1499.58 318.591 1468.57 243.772 1412.34 187.691C1357.02 132.231 1280.24 100.419 1201.67 100.419V100.419Z" fill="#FF8C28"/>
<path d="M1201.67 445.209C1227.56 445.209 1248.54 424.223 1248.54 398.334C1248.54 372.446 1227.56 351.459 1201.67 351.459C1175.78 351.459 1154.79 372.446 1154.79 398.334C1154.79 424.223 1175.78 445.209 1201.67 445.209Z" fill="#784033"/>
<path d="M548.959 1248.54H46.8745C27.9151 1248.54 10.8213 1237.12 3.56822 1219.6C-3.68491 1202.09 0.324468 1181.93 13.7307 1168.52L947.293 234.938V850.206C947.293 1069.85 768.603 1248.54 548.959 1248.54Z" fill="#FEDB41"/>
<path d="M1499.58 800.05V800C1252.26 800 1051.04 1001.19 1051.04 1248.54C1298.37 1248.54 1499.58 1047.35 1499.58 800.05Z" fill="#FEA832"/>
</g>
<defs>
<clipPath id="clip0">
<rect width="1600" height="1600" fill="white"/>
</clipPath>
</defs>
</svg>
