<svg width="1600" height="1600" viewBox="0 0 1600 1600" fill="none" xmlns="http://www.w3.org/2000/svg">
<path fill-rule="evenodd" clip-rule="evenodd" d="M800 1406.77C761.059 1493.06 674.262 1553.12 573.438 1553.12C431.625 1553.12 318.522 1434.66 325.294 1292.64C222.344 1266.25 170.281 1151.13 217.488 1056.58C117.269 1014.53 46.875 915.491 46.875 800C46.875 684.509 117.269 585.469 217.491 543.425C170.284 448.872 222.347 333.753 325.297 307.359C318.522 165.344 431.625 46.875 573.438 46.875C674.262 46.875 761.059 106.937 800 193.234C838.941 106.937 925.738 46.875 1026.56 46.875C1168.38 46.875 1281.48 165.344 1274.7 307.359C1377.65 333.753 1429.72 448.872 1382.51 543.425C1482.73 585.472 1553.12 684.509 1553.12 800C1553.12 915.491 1482.73 1014.53 1382.51 1056.58C1429.72 1151.13 1377.65 1266.25 1274.7 1292.64C1281.48 1434.66 1168.38 1553.12 1026.56 1553.12C925.738 1553.12 838.941 1493.06 800 1406.77Z" fill="#FFBFAB"/>
<path fill-rule="evenodd" clip-rule="evenodd" d="M1553.12 800C1553.12 684.509 1482.73 585.469 1382.51 543.425C1429.72 448.872 1377.65 333.753 1274.7 307.359C1281.48 165.344 1168.38 46.875 1026.56 46.875C925.738 46.875 838.944 106.937 800 193.234V1406.77C838.941 1493.06 925.738 1553.12 1026.56 1553.12C1168.38 1553.12 1281.48 1434.66 1274.71 1292.64C1377.66 1266.25 1429.72 1151.13 1382.51 1056.58C1482.73 1014.53 1553.12 915.491 1553.12 800V800Z" fill="#FFB293"/>
<path d="M1600 800C1600 683.8 1538.73 578.278 1440.71 520.322C1452.22 473.975 1447.84 424.797 1427.47 380.175C1405.68 332.469 1367.92 295.178 1321.15 274.131C1316.4 205.753 1288.33 141.912 1240.27 91.4969C1184.01 32.4937 1108.12 0 1026.56 0C937.959 0 855.319 39.9031 800 105.912C744.684 39.9031 662.044 0 573.438 0C491.884 0 415.991 32.4938 359.734 91.5C311.666 141.916 283.6 205.753 278.847 274.134C232.075 295.181 194.316 332.472 172.531 380.178C152.153 424.8 147.781 473.981 159.294 520.325C61.275 578.278 0 683.8 0 800C0 916.2 61.275 1021.72 159.294 1079.68C147.781 1126.03 152.156 1175.2 172.531 1219.82C194.319 1267.53 232.078 1304.82 278.847 1325.87C283.6 1394.25 311.666 1458.09 359.734 1508.5C415.991 1567.51 491.884 1600 573.438 1600C662.044 1600 744.684 1560.1 800 1494.09C855.319 1560.1 937.959 1600 1026.56 1600C1108.12 1600 1184.01 1567.51 1240.27 1508.5C1288.33 1458.08 1316.4 1394.24 1321.15 1325.87C1367.93 1304.82 1405.68 1267.53 1427.47 1219.82C1447.85 1175.2 1452.22 1126.02 1440.71 1079.68C1538.73 1021.72 1600 916.2 1600 800V800ZM1373.29 1009.38H1150V874.631H1315.62C1341.51 874.631 1362.5 853.644 1362.5 827.756C1362.5 824.047 1362.5 690.628 1362.5 690.628C1362.5 664.741 1341.51 643.753 1315.62 643.753C1289.73 643.753 1268.75 664.741 1268.75 690.628V780.881H1150V699.631C1150 647.938 1107.94 605.881 1056.25 605.881H962.5C936.612 605.881 915.625 626.869 915.625 652.756C915.625 678.644 936.612 699.631 962.5 699.631H1056.25V1009.38H846.863V925C846.863 899.112 825.875 878.125 799.988 878.125C774.1 878.125 753.113 899.112 753.113 925V1009.38C753.113 1061.07 795.169 1103.12 846.863 1103.12H1349.89C1356.05 1128.84 1353.51 1156.1 1342.19 1180.88C1327.04 1214.04 1298.21 1238.22 1263.06 1247.24C1241.52 1252.76 1226.82 1272.66 1227.88 1294.88C1230.54 1350.61 1210.84 1403.51 1172.41 1443.81C1134.02 1484.07 1082.23 1506.25 1026.56 1506.25C950.634 1506.25 881.134 1463.3 846.875 1396.07V1296.88H931.25C957.138 1296.88 978.125 1275.89 978.125 1250C978.125 1224.11 957.138 1203.12 931.25 1203.12H846.875C795.181 1203.12 753.125 1245.18 753.125 1296.88V1396.06C718.872 1463.3 649.372 1506.25 573.438 1506.25C517.775 1506.25 465.978 1484.08 427.588 1443.81C399.941 1414.82 382.053 1379.29 375.144 1340.9H487.5C539.194 1340.9 581.25 1298.84 581.25 1247.15V1189.2H621.875C647.763 1189.2 668.75 1168.21 668.75 1142.33C668.75 1116.44 647.763 1095.45 621.875 1095.45H581.25V1037.5C581.25 985.806 539.194 943.75 487.5 943.75H406.25C380.362 943.75 359.375 964.737 359.375 990.625C359.375 1016.51 380.362 1037.5 406.25 1037.5H487.5V1247.15H341.122C339.825 1247.15 338.553 1247.24 337.284 1247.34C337.166 1247.31 337.056 1247.27 336.937 1247.23C301.791 1238.22 272.95 1214.04 257.809 1180.88C242.634 1147.65 243.222 1109.97 259.431 1077.51C265.222 1065.91 265.95 1052.43 261.441 1040.27C256.931 1028.11 247.584 1018.37 235.625 1013.35C149.438 977.194 93.75 893.447 93.75 800C93.75 706.553 149.438 622.806 235.622 586.653C237.006 586.072 238.347 585.412 239.659 584.709H312.497V725.334C312.497 751.222 333.484 772.209 359.372 772.209C385.259 772.209 406.247 751.222 406.247 725.334V584.709H581.25V812.834C581.25 838.722 602.237 859.709 628.125 859.709C654.013 859.709 675 838.722 675 812.834V728.459H720.678C746.566 728.459 767.553 707.472 767.553 681.584C767.553 655.697 746.566 634.709 720.678 634.709H675V584.709C675 533.016 632.944 490.959 581.25 490.959H553.128V365.625C553.128 339.737 532.141 318.75 506.253 318.75C480.366 318.75 459.378 339.737 459.378 365.625V490.956H248.844C244.387 467.006 247.356 442.009 257.809 419.119C272.953 385.959 301.791 361.775 336.937 352.763C358.481 347.238 373.178 327.338 372.116 305.122C369.456 249.388 389.156 196.494 427.588 156.187C465.978 115.925 517.775 93.75 573.438 93.75C651.759 93.75 723.237 139.447 756.25 210.353V368.75C756.25 420.444 798.306 462.5 850 462.5H1100C1125.89 462.5 1146.88 441.513 1146.88 415.625C1146.88 389.737 1125.89 368.75 1100 368.75H1090.62V303.125C1090.62 277.237 1069.64 256.25 1043.75 256.25C1017.86 256.25 996.875 277.237 996.875 303.125V368.75H850V203.125C850 201.547 849.916 199.987 849.763 198.447C884.944 134.372 952.719 93.75 1026.56 93.75C1082.23 93.75 1134.02 115.925 1172.41 156.191C1210.84 196.497 1230.54 249.387 1227.88 305.125C1226.82 327.341 1241.52 347.241 1263.06 352.766C1298.21 361.778 1327.05 385.963 1342.19 419.122C1357.37 452.353 1356.78 490.028 1340.57 522.491C1334.78 534.091 1334.05 547.575 1338.56 559.731C1343.07 571.887 1352.42 581.634 1364.38 586.65C1450.56 622.806 1506.25 706.553 1506.25 800C1506.25 890.184 1454.37 971.316 1373.29 1009.38V1009.38Z" fill="#FFB293"/>
<path d="M1600 800C1600 683.8 1538.73 578.278 1440.71 520.322C1452.22 473.975 1447.84 424.797 1427.47 380.175C1405.68 332.469 1367.92 295.178 1321.15 274.131C1316.4 205.753 1288.33 141.912 1240.27 91.4969C1184.01 32.4937 1108.12 0 1026.56 0C937.959 0 855.319 39.9031 800 105.912V447.997C814.484 457.169 831.625 462.503 850 462.503H1100C1125.89 462.503 1146.88 441.516 1146.88 415.628C1146.88 389.741 1125.89 368.753 1100 368.753H1090.62V303.125C1090.62 277.237 1069.64 256.25 1043.75 256.25C1017.86 256.25 996.875 277.237 996.875 303.125V368.75H850V203.125C850 201.547 849.916 199.987 849.763 198.447C884.944 134.372 952.719 93.75 1026.56 93.75C1082.23 93.75 1134.02 115.925 1172.41 156.191C1210.84 196.497 1230.54 249.387 1227.88 305.125C1226.82 327.341 1241.52 347.241 1263.06 352.766C1298.21 361.778 1327.05 385.963 1342.19 419.122C1357.37 452.353 1356.78 490.028 1340.57 522.491C1334.78 534.091 1334.05 547.575 1338.56 559.731C1343.07 571.887 1352.42 581.634 1364.38 586.65C1450.56 622.806 1506.25 706.553 1506.25 800C1506.25 890.184 1454.37 971.316 1373.29 1009.38H1150V874.631H1315.62C1341.51 874.631 1362.5 853.644 1362.5 827.756C1362.5 824.047 1362.5 690.628 1362.5 690.628C1362.5 664.741 1341.51 643.753 1315.62 643.753C1289.73 643.753 1268.75 664.741 1268.75 690.628V780.881H1150V699.631C1150 647.938 1107.94 605.881 1056.25 605.881H962.5C936.612 605.881 915.625 626.869 915.625 652.756C915.625 678.644 936.612 699.631 962.5 699.631H1056.25V1009.38H846.863V925C846.863 899.116 825.881 878.131 800 878.125V1090.52C813.797 1098.52 829.797 1103.12 846.863 1103.12H1349.89C1356.05 1128.84 1353.51 1156.09 1342.19 1180.88C1327.04 1214.04 1298.21 1238.22 1263.06 1247.23C1241.52 1252.76 1226.82 1272.66 1227.88 1294.87C1230.54 1350.61 1210.84 1403.5 1172.41 1443.81C1134.02 1484.08 1082.23 1506.25 1026.56 1506.25C950.634 1506.25 881.134 1463.3 846.875 1396.07V1296.88H931.25C957.138 1296.88 978.125 1275.89 978.125 1250C978.125 1224.11 957.138 1203.12 931.25 1203.12H846.875C829.806 1203.12 813.8 1207.73 800 1215.74V1494.09C855.319 1560.1 937.959 1600 1026.56 1600C1108.12 1600 1184.01 1567.51 1240.27 1508.5C1288.33 1458.08 1316.4 1394.24 1321.15 1325.87C1367.93 1304.82 1405.68 1267.53 1427.47 1219.82C1447.85 1175.2 1452.22 1126.02 1440.71 1079.68C1538.73 1021.72 1600 916.2 1600 800Z" fill="#FF9468"/>
</svg>
