<svg width="1600" height="1600" viewBox="0 0 1600 1600" fill="none" xmlns="http://www.w3.org/2000/svg">
<g clip-path="url(#clip0)">
<path d="M939.131 1600H52.175C23.3594 1600 0 1576.64 0 1547.82V52.175C0 23.3594 23.3594 0 52.175 0H886.956C915.769 0 939.131 23.3594 939.131 52.175V1600Z" fill="#F2F2F2"/>
<path d="M886.957 0H469.566V1600H939.132V52.175C939.132 23.3594 915.773 0 886.957 0Z" fill="#E2DCDA"/>
<path d="M1530.43 1600H939.131V243.478H1547.83C1576.64 243.478 1600 266.838 1600 295.653V1532.62L1530.43 1600Z" fill="#C6B7B4"/>
<path d="M260.866 417.391C232.063 417.391 208.691 394.019 208.691 365.216V295.653C208.691 266.85 232.063 243.478 260.866 243.478C289.67 243.478 313.041 266.85 313.041 295.653V365.219C313.041 394.022 289.67 417.391 260.866 417.391Z" fill="#00B4FF"/>
<path d="M260.866 730.434C232.063 730.434 208.691 707.063 208.691 678.259V573.913C208.691 545.109 232.063 521.738 260.866 521.738C289.67 521.738 313.041 545.109 313.041 573.913V678.259C313.041 707.066 289.67 730.434 260.866 730.434Z" fill="#00B4FF"/>
<path d="M678.261 417.391C649.458 417.391 626.086 394.019 626.086 365.216V295.653C626.086 266.85 649.458 243.478 678.261 243.478C707.064 243.478 730.436 266.85 730.436 295.653V365.219C730.436 394.022 707.067 417.391 678.261 417.391Z" fill="#0082F5"/>
<path d="M678.261 730.434C649.458 730.434 626.086 707.063 626.086 678.259V573.913C626.086 545.109 649.458 521.738 678.261 521.738C707.064 521.738 730.436 545.109 730.436 573.913V678.259C730.436 707.066 707.067 730.434 678.261 730.434Z" fill="#0082F5"/>
<path d="M678.261 1087.16C649.458 1087.16 626.086 1063.79 626.086 1034.99V886.956C626.086 858.153 649.458 834.781 678.261 834.781C707.064 834.781 730.436 858.153 730.436 886.956V1034.99C730.436 1063.79 707.067 1087.16 678.261 1087.16Z" fill="#0082F5"/>
<path d="M1339.13 556.522H1095.66C1066.85 556.522 1043.48 533.15 1043.48 504.347C1043.48 475.544 1066.85 452.172 1095.66 452.172H1339.13C1367.94 452.172 1391.31 475.544 1391.31 504.347C1391.31 533.15 1367.94 556.522 1339.13 556.522Z" fill="#0082F5"/>
<path d="M1339.13 765.219H1095.66C1066.85 765.219 1043.48 741.847 1043.48 713.044C1043.48 684.241 1066.85 660.869 1095.66 660.869H1339.13C1367.94 660.869 1391.31 684.241 1391.31 713.044C1391.31 741.847 1367.94 765.219 1339.13 765.219Z" fill="#0082F5"/>
<path d="M1339.13 973.913H1095.66C1066.85 973.913 1043.48 950.541 1043.48 921.737C1043.48 892.934 1066.85 869.562 1095.66 869.562H1339.13C1367.94 869.562 1391.31 892.934 1391.31 921.737C1391.31 950.544 1367.94 973.913 1339.13 973.913Z" fill="#0082F5"/>
<path d="M260.866 1043.48C232.063 1043.48 208.691 1020.11 208.691 991.303V886.956C208.691 858.153 232.063 834.781 260.866 834.781C289.67 834.781 313.041 858.153 313.041 886.956V991.303C313.041 1020.11 289.67 1043.48 260.866 1043.48Z" fill="#00B4FF"/>
<path d="M260.866 1356.52C232.063 1356.52 208.691 1333.15 208.691 1304.35V1200C208.691 1171.2 232.063 1147.83 260.866 1147.83C289.67 1147.83 313.041 1171.2 313.041 1200V1304.35C313.041 1333.15 289.67 1356.52 260.866 1356.52Z" fill="#00B4FF"/>
<path d="M469.564 1400.48C440.761 1400.48 417.389 1377.1 417.389 1348.3V1200C417.389 1171.2 440.761 1147.83 469.564 1147.83C498.367 1147.83 521.739 1171.2 521.739 1200V1348.3C521.739 1377.11 498.367 1400.48 469.564 1400.48Z" fill="#00B4FF"/>
<path d="M521.741 1348.3V1200C521.741 1171.2 498.37 1147.82 469.566 1147.82V1400.47C498.37 1400.47 521.741 1377.11 521.741 1348.3Z" fill="#0082F5"/>
<path d="M469.564 1087.43C440.761 1087.43 417.389 1064.06 417.389 1035.26V886.956C417.389 858.153 440.761 834.781 469.564 834.781C498.367 834.781 521.739 858.153 521.739 886.956V1035.26C521.739 1064.06 498.367 1087.43 469.564 1087.43Z" fill="#00B4FF"/>
<path d="M521.741 1035.26V886.956C521.741 858.153 498.37 834.781 469.566 834.781V1087.43C498.37 1087.43 521.741 1064.06 521.741 1035.26Z" fill="#0082F5"/>
<path d="M469.564 730.434C440.761 730.434 417.389 707.063 417.389 678.259V573.913C417.389 545.109 440.761 521.738 469.564 521.738C498.367 521.738 521.739 545.109 521.739 573.913V678.259C521.739 707.066 498.367 730.434 469.564 730.434Z" fill="#00B4FF"/>
<path d="M521.741 678.259V573.913C521.741 545.109 498.37 521.738 469.566 521.738V730.434C498.37 730.434 521.741 707.066 521.741 678.259Z" fill="#0082F5"/>
<path d="M469.564 417.391C440.761 417.391 417.389 394.019 417.389 365.216V295.653C417.389 266.85 440.761 243.478 469.564 243.478C498.367 243.478 521.739 266.85 521.739 295.653V365.219C521.739 394.022 498.367 417.391 469.564 417.391Z" fill="#00B4FF"/>
<path d="M521.741 365.219V295.653C521.741 266.85 498.37 243.478 469.566 243.478V417.391C498.37 417.391 521.741 394.022 521.741 365.219Z" fill="#0082F5"/>
<path d="M1600 1495.3V1547.82C1600 1576.35 1579.82 1600 1539.48 1600H408.697C386.437 1600 365.915 1586.09 358.956 1563.82C336.347 1494.26 349.565 1425.74 387.478 1372.87C431.653 1312.69 507.478 1278.61 584 1288.69C624.697 1216.69 708.522 1172.87 792.697 1184.35C826.784 1125.22 881.394 1091.13 939.131 1081.39C950.609 1079.3 962.434 1078.26 973.912 1078.26C1044.52 1078.26 1115.13 1113.74 1155.13 1184.35C1239.31 1172.87 1323.13 1216.69 1363.83 1288.69C1409.74 1282.43 1456.35 1292.52 1495.65 1315.13C1564.87 1355.48 1600 1425.04 1600 1495.3Z" fill="#6ECD24"/>
<path d="M1600 1495.3V1547.82C1600 1576.35 1579.82 1600 1539.48 1600H939.131V1081.39C950.609 1079.3 962.434 1078.26 973.912 1078.26C1044.52 1078.26 1115.13 1113.74 1155.13 1184.35C1239.31 1172.87 1323.13 1216.69 1363.83 1288.69C1409.74 1282.43 1456.35 1292.52 1495.65 1315.13C1564.87 1355.48 1600 1425.04 1600 1495.3Z" fill="#408509"/>
</g>
<defs>
<clipPath id="clip0">
<rect width="1600" height="1600" fill="white"/>
</clipPath>
</defs>
</svg>
