<svg width="1600" height="1600" viewBox="0 0 1600 1600" fill="none" xmlns="http://www.w3.org/2000/svg">
<path d="M1045.85 703.581C1045.85 837.493 910.469 837.493 865.983 837.493H836.006L808.239 660.333L836.006 483.174C882.67 483.174 926.537 502.119 959.531 536.551L993.605 572.066C1027.28 607.185 1045.85 653.914 1045.85 703.581V703.581Z" fill="#784033"/>
<path d="M836.006 483.174V837.493H803.012C749.273 837.493 712.721 830.386 684.542 814.441C657.903 799.372 626.167 767.9 626.167 703.581C626.167 653.914 644.713 607.185 678.387 572.066L712.461 536.551C745.456 502.119 789.322 483.174 836.006 483.174V483.174Z" fill="#A55C4F"/>
<path d="M925.937 316.435C925.937 373.897 885.588 420.647 836.006 420.647L808.239 321.016L836.006 212.224C885.588 212.224 925.937 258.973 925.937 316.435V316.435Z" fill="#784033"/>
<path d="M836.005 212.224V420.647C786.403 420.647 746.074 373.897 746.074 316.435C746.074 258.973 786.403 212.224 836.005 212.224V212.224Z" fill="#A55C4F"/>
<path d="M659.357 353.893C641.089 334.841 617.547 323.267 593.068 321.302C567.234 319.232 542.463 328.424 525.108 346.523C490.043 383.093 493.212 445.899 532.172 486.531C552.998 508.251 579.898 519.306 605.786 519.306C628.325 519.306 650.1 510.925 666.42 493.903C701.485 457.331 698.315 394.527 659.357 353.893V353.893Z" fill="#A55C4F"/>
<path d="M1146.89 346.523C1129.53 328.422 1104.79 319.23 1078.93 321.302C1054.45 323.265 1030.91 334.841 1012.64 353.891C994.371 372.943 983.274 397.495 981.389 423.025C979.403 449.968 988.216 475.8 1005.57 493.903C1021.9 510.925 1043.67 519.306 1066.21 519.306C1092.09 519.306 1119 508.249 1139.82 486.533C1158.09 467.481 1169.19 442.929 1171.07 417.399C1173.06 390.457 1164.24 364.625 1146.89 346.523V346.523Z" fill="#784033"/>
<path d="M1282.5 1013.34L1059.93 1221.76C1030.59 1249.23 992.724 1264.36 953.298 1264.36H669.973L503.812 1386.06C498.775 1389.74 492.77 1391.73 486.613 1391.73H321.197C304.67 1391.73 291.271 1377.75 291.271 1360.52V1136.19C291.271 1126.56 295.535 1117.47 302.825 1111.56L488.361 961.057C528.632 928.389 578.196 910.654 629.217 910.654H938.134C979.986 910.654 1013.92 946.68 1012.93 990.558C1011.96 1033.15 977.584 1066.7 936.73 1066.7H978.627C983.499 1066.7 988.195 1064.85 991.846 1061.48L1177.37 890.318C1203.84 865.9 1243.03 862.848 1272.69 882.895C1293.49 896.96 1306.54 919.811 1308.48 945.59C1310.42 971.367 1300.95 996.06 1282.5 1013.34V1013.34Z" fill="#FFBFAB"/>
<path d="M1308.48 945.589C1306.54 919.811 1293.5 896.959 1272.69 882.894C1243.04 862.847 1203.84 865.902 1177.38 890.318L991.848 1061.48C988.197 1064.85 983.501 1066.7 978.629 1066.7H936.732H879.84V1264.36H953.298C992.724 1264.36 1030.59 1249.23 1059.93 1221.76L1282.5 1013.34C1300.95 996.059 1310.42 971.366 1308.48 945.589V945.589Z" fill="#FFB293"/>
<path d="M991.848 1061.48C988.201 1064.84 983.499 1066.7 978.629 1066.7H777.069C760.542 1066.7 747.144 1080.67 747.144 1097.91C747.144 1115.15 760.542 1129.12 777.069 1129.12H938.134C1012.97 1129.12 1073.74 1065.13 1072.79 986.855C1072.76 986.845 1072.77 986.849 1072.75 986.838L991.848 1061.48Z" fill="#FFB293"/>
<path d="M1072.75 986.838L991.848 1061.48C988.201 1064.84 983.499 1066.7 978.629 1066.7H879.84V1129.12H938.134C1012.97 1129.12 1073.74 1065.13 1072.79 986.855C1072.76 986.845 1072.78 986.849 1072.75 986.838Z" fill="#FF9468"/>
</svg>
