<svg width="1600" height="1600" viewBox="0 0 1600 1600" fill="none" xmlns="http://www.w3.org/2000/svg">
<path d="M328.125 1503.12C198.684 1503.12 93.75 1398.19 93.75 1268.75V1114.55C93.75 1054.83 140.778 1004.57 200.487 1003.16C261.997 1001.7 312.5 1051.32 312.5 1112.5V1142.42C312.5 1167.67 331.897 1189.38 357.109 1190.57C384.028 1191.84 406.25 1170.39 406.25 1143.75V1115.58C406.25 1004.12 317.734 911.1 206.278 909.4C92.8375 907.669 0 999.447 0 1112.5V1268.75C0 1449.97 146.906 1596.87 328.125 1596.87H459.375C485.263 1596.87 506.25 1575.89 506.25 1550C506.25 1524.11 485.263 1503.12 459.375 1503.12H328.125Z" fill="#6B5C59"/>
<path d="M1600 391.162V300C1600 281.25 1588.82 264.3 1571.59 256.916L1352.84 163.166C1347.01 160.666 1340.73 159.375 1334.38 159.375H1256.25V50C1256.25 24.1125 1235.26 3.125 1209.38 3.125C1096.59 3.125 1001.78 87.8094 989.094 199.881L988.981 200.878L962.288 553.4C951.688 693.387 878.616 818.337 761.806 896.209L687.275 945.897C534.787 1047.56 443.75 1217.66 443.75 1400.92V1596.88H1162.5L1209.38 1553.12L1256.25 1596.88H1553.12C1579.01 1596.88 1600 1575.89 1600 1550V1487.5C1600 1392.58 1523.05 1315.62 1428.12 1315.62H1412.5V1219.69L1465.31 1135.2C1533.91 1025.44 1529.62 886.45 1454.39 781.122C1426.98 742.756 1412.5 697.556 1412.5 650.409V620.806C1521.66 598.631 1600 503.372 1600 391.162Z" fill="#8E7D78"/>
<path d="M1571.59 256.916L1352.84 163.166C1347.01 160.666 1340.73 159.375 1334.38 159.375H1256.25V50C1256.25 24.1125 1235.26 3.125 1209.38 3.125C1131.02 3.125 1061.37 44.0219 1021.88 106.556V1596.88H1162.5L1209.38 1553.12L1256.25 1596.88H1553.12C1579.01 1596.88 1600 1575.89 1600 1550V1487.5C1600 1392.58 1523.05 1315.62 1428.12 1315.62H1412.5V1219.69L1465.31 1135.2C1533.91 1025.44 1529.62 886.45 1454.39 781.122C1426.98 742.756 1412.5 697.556 1412.5 650.409V620.806C1521.66 598.628 1600 503.372 1600 391.162V300C1600 281.247 1588.82 264.3 1571.59 256.916Z" fill="#6B5C59"/>
<path d="M1287.5 425C1313.39 425 1334.38 404.013 1334.38 378.125C1334.38 352.237 1313.39 331.25 1287.5 331.25C1261.61 331.25 1240.62 352.237 1240.62 378.125C1240.62 404.013 1261.61 425 1287.5 425Z" fill="#504541"/>
<path d="M1256.25 1596.88H1162.5V1487.5C1162.5 1444.35 1127.52 1409.38 1084.38 1409.38H1053.12C1027.24 1409.38 1006.25 1388.39 1006.25 1362.5C1006.25 1284.83 943.291 1221.88 865.625 1221.88C839.737 1221.88 818.75 1200.89 818.75 1175C818.75 1149.11 839.737 1128.12 865.625 1128.12C978.934 1128.12 1073.72 1208.95 1095.36 1315.97C1185.03 1321.66 1256.25 1396.42 1256.25 1487.5V1596.88Z" fill="#6B5C59"/>
<path d="M1095.36 1315.97C1085.18 1265.6 1058.78 1221.03 1021.88 1187.97V1397.37C1030.17 1404.81 1041.1 1409.37 1053.12 1409.37H1084.38C1127.52 1409.37 1162.5 1444.35 1162.5 1487.5V1596.87H1256.25V1487.5C1256.25 1396.42 1185.03 1321.66 1095.36 1315.97Z" fill="#413835"/>
</svg>
