<svg width="1600" height="1600" viewBox="0 0 1600 1600" fill="none" xmlns="http://www.w3.org/2000/svg">
<path d="M106.934 1200.15C141.565 1259.9 184.18 1315.54 234.314 1365.69C385.425 1516.78 586.316 1600 800 1600C1013.7 1600 1214.59 1516.78 1365.69 1365.69C1415.83 1315.54 1458.44 1259.9 1493.07 1200.15C1562.81 1079.82 1600 942.786 1600 800C1600 657.214 1562.81 520.178 1493.07 399.854C1458.44 340.1 1415.82 284.448 1365.69 234.314C1214.59 83.2153 1013.7 0 800 0C586.316 0 385.413 83.2153 234.314 234.314C184.167 284.448 141.553 340.1 106.934 399.854C37.1948 520.178 0 657.227 0 800C0 942.773 37.1948 1079.82 106.934 1200.15ZM595.837 800C595.837 762.842 605.859 728.015 623.279 697.961C658.63 636.975 724.573 595.825 800 595.825C875.427 595.825 941.37 636.975 976.733 697.961C994.141 728.003 1004.17 762.842 1004.17 800C1004.17 837.158 994.141 871.985 976.733 902.026C941.382 963.025 875.427 1004.16 800 1004.16C724.573 1004.16 658.63 963.025 623.267 902.026C605.859 871.985 595.837 837.158 595.837 800V800Z" fill="#FF8398"/>
<path d="M800 1302.08V1600C1013.7 1600 1214.59 1516.78 1365.69 1365.69C1415.83 1315.54 1458.44 1259.9 1493.07 1200.15L1234.88 1051.07C1148.06 1201.12 985.828 1302.08 800 1302.08Z" fill="#8E7D78"/>
<path d="M1302.09 800C1302.09 891.467 1277.61 977.222 1234.88 1051.07L1493.07 1200.15C1562.8 1079.82 1600 942.786 1600 800C1600 657.214 1562.8 520.178 1493.07 399.854L1234.88 548.914C1277.61 622.778 1302.09 708.533 1302.09 800Z" fill="#6B5C59"/>
<path d="M365.125 1051.07L106.934 1200.15C141.565 1259.9 184.18 1315.54 234.314 1365.69C385.425 1516.78 586.316 1600 800 1600V1302.08C614.172 1302.08 451.941 1201.12 365.125 1051.07Z" fill="#C18678"/>
<path d="M1234.88 548.914L1493.07 399.854C1458.44 340.1 1415.82 284.448 1365.69 234.314C1214.59 83.2153 1013.7 0 800 0V297.913C985.828 297.913 1148.06 398.877 1234.88 548.914V548.914Z" fill="#A55C4F"/>
<path d="M106.934 1200.15L365.125 1051.07C322.388 977.222 297.925 891.467 297.925 800C297.925 708.533 322.388 622.778 365.125 548.926L106.934 399.854C37.1948 520.178 0 657.227 0 800C0 942.773 37.1948 1079.82 106.934 1200.15Z" fill="#FF873C"/>
<path d="M800 297.913V0C586.316 0 385.413 83.2153 234.314 234.314C184.167 284.448 141.553 340.1 106.934 399.854L365.125 548.926C451.941 398.877 614.172 297.913 800 297.913Z" fill="#FD4E26"/>
<path d="M1004.18 800C1004.18 837.158 994.142 871.985 976.734 902.026L1234.88 1051.07C1277.61 977.222 1302.09 891.467 1302.09 800C1302.09 708.521 1277.61 622.778 1234.88 548.914L976.734 697.961C994.142 728.003 1004.18 762.842 1004.18 800V800Z" fill="#3A3331"/>
<path d="M976.733 697.961L1234.88 548.926C1148.06 398.877 985.828 297.913 800 297.913V595.825C875.427 595.825 941.37 636.975 976.733 697.961Z" fill="#784033"/>
<path d="M800 1004.16V1302.08C985.828 1302.08 1148.06 1201.12 1234.88 1051.07L976.733 902.039C941.382 963.025 875.427 1004.16 800 1004.16V1004.16Z" fill="#6B5C59"/>
<path d="M800 1302.08V1004.16C724.573 1004.16 658.631 963.025 623.267 902.026L365.125 1051.07C451.941 1201.12 614.173 1302.08 800 1302.08V1302.08Z" fill="#A55C4F"/>
<path d="M595.838 800C595.838 762.842 605.86 728.015 623.28 697.961L365.125 548.926C322.389 622.778 297.926 708.533 297.926 800C297.926 891.467 322.389 977.222 365.125 1051.07L623.268 902.026C605.86 871.985 595.838 837.158 595.838 800Z" fill="#FD4E26"/>
<path d="M800 595.825V297.913C614.173 297.913 451.941 398.877 365.125 548.926L623.279 697.961C658.631 636.975 724.573 595.825 800 595.825Z" fill="#FD3018"/>
</svg>
