<svg width="1600" height="1600" viewBox="0 0 1600 1600" fill="none" xmlns="http://www.w3.org/2000/svg">
<g clip-path="url(#clip0)">
<path d="M574.363 578.674H429.271C403.404 578.674 382.433 599.646 382.433 625.525V856.921C382.433 882.8 403.404 903.772 429.271 903.772H574.363C600.242 903.772 621.213 882.8 621.213 856.921V625.525C621.213 599.646 600.242 578.674 574.363 578.674Z" fill="#F2F2F2"/>
<path d="M1156.88 846.582L1117.7 673.438C1112.86 652.087 1093.89 636.926 1072 636.926H732.455C710.568 636.926 691.599 652.087 686.765 673.438L647.58 846.582C644.443 860.474 647.788 875.037 656.674 886.169C665.561 897.29 679.038 903.772 693.271 903.772H1111.19C1125.42 903.772 1138.9 897.29 1147.79 886.169C1156.67 875.037 1160.02 860.474 1156.88 846.582Z" fill="#F2F2F2"/>
<path d="M1156.88 846.582L1117.7 673.438C1112.86 652.087 1093.89 636.926 1072 636.926H797.128V903.772H1111.19C1125.42 903.772 1138.9 897.29 1147.79 886.169C1156.67 875.037 1160.02 860.474 1156.88 846.582Z" fill="#C6B7B4"/>
<path d="M1328.3 1133.56C1319.56 1146.28 1305.13 1153.89 1289.67 1153.89H263.598C248.168 1153.89 233.74 1146.28 225 1133.56C216.247 1120.81 214.343 1104.61 219.873 1090.21L243.762 1028.09L279.528 935.12L316.064 840.112C323.034 822.021 340.429 810.071 359.789 810.071H1193.48C1212.87 810.071 1230.23 822.021 1237.2 840.112L1273.74 935.12L1309.79 1028.81L1333.39 1090.21C1338.95 1104.61 1337.04 1120.81 1328.3 1133.56V1133.56Z" fill="#C6B7B4"/>
<path d="M1333.39 1090.21L1309.78 1028.81L1273.74 935.12L1237.2 840.112C1230.23 822.021 1212.87 810.071 1193.48 810.071H797.128V1153.89H1289.67C1305.13 1153.89 1319.56 1146.28 1328.3 1133.56C1337.04 1120.81 1338.95 1104.61 1333.39 1090.21V1090.21Z" fill="#8E7D78"/>
<path d="M1549.46 1085.78C1541.46 1070.08 1525.32 1060.19 1507.71 1060.19H124.658C110.058 1060.19 96.2888 1067 87.4266 1078.6C78.5643 1090.21 75.6224 1105.29 79.4676 1119.37L169.091 1448C172.936 1462.12 183.166 1473.62 196.728 1479.1C218.53 1487.92 241.918 1492.2 268.249 1492.2C338.842 1492.2 375.768 1461.24 405.443 1436.36C429.82 1415.92 445.921 1402.42 482.408 1402.42C518.907 1402.42 534.996 1415.92 559.373 1436.36C589.048 1461.24 625.962 1492.2 696.543 1492.2C767.111 1492.2 804.038 1461.24 833.701 1436.36C858.078 1415.93 874.179 1402.43 910.666 1402.43C947.177 1402.43 963.29 1415.93 987.667 1436.38C1017.34 1461.25 1054.26 1492.2 1124.82 1492.2C1195.41 1492.2 1232.34 1461.25 1262.02 1436.38C1284.66 1417.41 1299.62 1404.87 1329.9 1402.76C1343.71 1401.79 1356.39 1394.78 1364.53 1383.58L1545.6 1134.59C1555.96 1120.35 1557.45 1101.49 1549.46 1085.78Z" fill="#F2F2F2"/>
<path d="M1549.46 1085.78C1541.46 1070.08 1525.32 1060.19 1507.71 1060.19H797.128V1464.16C811.129 1455.29 822.897 1445.42 833.7 1436.36C858.077 1415.93 874.178 1402.43 910.665 1402.43C947.176 1402.43 963.289 1415.93 987.667 1436.38C1017.33 1461.25 1054.26 1492.2 1124.82 1492.2C1195.41 1492.2 1232.34 1461.25 1262.02 1436.38C1284.65 1417.41 1299.62 1404.87 1329.9 1402.76C1343.71 1401.79 1356.38 1394.78 1364.53 1383.58L1545.6 1134.59C1555.96 1120.35 1557.45 1101.49 1549.46 1085.78V1085.78Z" fill="#C6B7B4"/>
<path d="M1309.78 1028.81H865.243C834.103 1028.81 808.896 1007.85 808.896 981.958C808.896 956.104 834.103 935.12 865.243 935.12H1273.74L1309.78 1028.81Z" fill="#6B5C59"/>
<path d="M548.68 981.958C548.68 1007.85 522.569 1028.81 490.404 1028.81H253.942C250.476 1028.81 247.082 1028.56 243.762 1028.09L279.528 935.12H490.404C522.569 935.12 548.68 956.104 548.68 981.958V981.958Z" fill="#8E7D78"/>
<path d="M677.78 1045.52C651.901 1045.52 630.93 1024.54 630.93 998.669V965.283C630.93 939.417 651.901 918.445 677.78 918.445C703.647 918.445 724.63 939.417 724.63 965.283V998.669C724.63 1024.54 703.647 1045.52 677.78 1045.52Z" fill="#6B5C59"/>
<path d="M767.026 1251.4C741.147 1251.4 720.176 1230.43 720.176 1204.55V1197.61C720.176 1171.74 741.147 1150.76 767.026 1150.76C792.893 1150.76 813.877 1171.74 813.877 1197.61V1204.55C813.877 1230.43 792.893 1251.4 767.026 1251.4Z" fill="#6B5C59"/>
<path d="M797.128 1161.73V1240.43C807.357 1231.84 813.876 1218.96 813.876 1204.55V1197.61C813.876 1183.2 807.357 1170.32 797.128 1161.73V1161.73Z" fill="#3A3331"/>
<path d="M334.154 1251.4C308.275 1251.4 287.304 1230.43 287.304 1204.55V1197.61C287.304 1171.74 308.275 1150.76 334.154 1150.76C360.021 1150.76 380.992 1171.74 380.992 1197.61V1204.55C380.992 1230.43 360.021 1251.4 334.154 1251.4Z" fill="#6B5C59"/>
<path d="M479.514 1251.4C453.636 1251.4 432.664 1230.43 432.664 1204.55V1197.61C432.664 1171.74 453.636 1150.76 479.514 1150.76C505.381 1150.76 526.353 1171.74 526.353 1197.61V1204.55C526.353 1230.43 505.381 1251.4 479.514 1251.4Z" fill="#6B5C59"/>
<path d="M624.864 1251.4C598.997 1251.4 578.025 1230.43 578.025 1204.55V1197.61C578.025 1171.74 598.997 1150.76 624.864 1150.76C650.742 1150.76 671.714 1171.74 671.714 1197.61V1204.55C671.714 1230.43 650.742 1251.4 624.864 1251.4Z" fill="#6B5C59"/>
<path d="M913.449 1251.4C887.582 1251.4 866.61 1230.43 866.61 1204.55V1197.61C866.61 1171.74 887.582 1150.76 913.449 1150.76C939.327 1150.76 960.299 1171.74 960.299 1197.61V1204.55C960.299 1230.43 939.327 1251.4 913.449 1251.4Z" fill="#3A3331"/>
<path d="M1058.81 1251.4C1032.94 1251.4 1011.97 1230.43 1011.97 1204.55V1197.61C1011.97 1171.74 1032.94 1150.76 1058.81 1150.76C1084.69 1150.76 1105.66 1171.74 1105.66 1197.61V1204.55C1105.66 1230.43 1084.69 1251.4 1058.81 1251.4V1251.4Z" fill="#3A3331"/>
<path d="M1204.17 1251.4C1178.3 1251.4 1157.32 1230.43 1157.32 1204.55V1197.61C1157.32 1171.74 1178.3 1150.76 1204.17 1150.76C1230.05 1150.76 1251.02 1171.74 1251.02 1197.61V1204.55C1251.02 1230.43 1230.05 1251.4 1204.17 1251.4Z" fill="#3A3331"/>
<path d="M1553.14 1492.2C1482.57 1492.2 1445.65 1461.24 1415.99 1436.36C1391.61 1415.93 1375.5 1402.42 1338.98 1402.42C1335.68 1402.42 1332.88 1402.51 1330.45 1402.71C1330.27 1402.73 1330.09 1402.75 1329.9 1402.76C1299.62 1404.87 1284.65 1417.41 1262.02 1436.38C1232.34 1461.25 1195.41 1492.2 1124.82 1492.2C1054.26 1492.2 1017.34 1461.24 987.667 1436.38C963.29 1415.93 947.176 1402.43 910.665 1402.43C874.179 1402.43 858.078 1415.93 833.7 1436.36C804.037 1461.24 767.111 1492.21 696.53 1492.21C625.962 1492.21 589.036 1461.24 559.373 1436.36C534.995 1415.93 518.894 1402.43 482.408 1402.43C445.921 1402.43 429.82 1415.93 405.443 1436.36C375.768 1461.24 338.841 1492.2 268.236 1492.2C241.918 1492.2 218.529 1487.92 196.728 1479.1C168.469 1467.72 148.596 1451.06 131.066 1436.35C106.689 1415.92 90.6003 1402.42 54.1136 1402.42C28.247 1402.42 7.27539 1381.45 7.27539 1355.58C7.27539 1329.7 28.247 1308.73 54.1136 1308.73C124.682 1308.73 161.596 1339.69 191.259 1364.56C205.224 1376.27 217.272 1386.38 231.786 1392.22C242.272 1396.46 254.186 1398.51 268.248 1398.51C304.76 1398.51 320.873 1385.01 345.25 1364.56C374.913 1339.69 411.839 1308.73 482.408 1308.73C552.989 1308.73 589.902 1339.69 619.578 1364.56C643.943 1385.01 660.044 1398.51 696.53 1398.51C733.029 1398.51 749.13 1385.01 773.495 1364.56C803.171 1339.69 840.085 1308.73 910.665 1308.73C981.258 1308.73 1018.2 1339.69 1047.87 1364.58C1072.24 1385.01 1088.34 1398.51 1124.82 1398.51C1161.34 1398.51 1177.45 1385.01 1201.84 1364.56C1228.94 1341.85 1262.65 1313.59 1323.13 1309.3C1328.03 1308.91 1333.22 1308.73 1339 1308.73C1409.59 1308.73 1446.52 1339.69 1476.19 1364.58C1500.57 1385.01 1516.67 1398.51 1553.16 1398.51C1579.02 1398.51 1600.01 1419.48 1600.01 1445.36C1600.01 1471.23 1579.02 1492.2 1553.14 1492.2V1492.2Z" fill="#0082F5"/>
<path d="M1553.14 1398.51C1516.66 1398.51 1500.56 1385.01 1476.18 1364.58C1446.5 1339.7 1409.58 1308.73 1338.98 1308.73C1333.21 1308.73 1328.02 1308.92 1323.11 1309.31C1262.64 1313.6 1228.93 1341.86 1201.83 1364.58C1177.44 1385.01 1161.32 1398.51 1124.82 1398.51C1088.34 1398.51 1072.24 1385.01 1047.86 1364.58C1018.18 1339.69 981.258 1308.73 910.665 1308.73C857.455 1308.73 823.385 1326.32 797.128 1345.64V1464.16C811.117 1455.27 822.897 1445.42 833.7 1436.36C858.077 1415.92 874.178 1402.42 910.665 1402.42C947.176 1402.42 963.289 1415.92 987.667 1436.36C1017.33 1461.24 1054.26 1492.2 1124.82 1492.2C1195.41 1492.2 1232.33 1461.24 1262.01 1436.38C1284.65 1417.4 1299.6 1404.86 1329.89 1402.75C1330.08 1402.73 1330.26 1402.72 1330.45 1402.71C1332.88 1402.51 1335.68 1402.42 1338.98 1402.42C1375.49 1402.42 1391.61 1415.92 1415.99 1436.36C1445.65 1461.24 1482.57 1492.2 1553.14 1492.2C1579.01 1492.2 1599.99 1471.23 1599.99 1445.35C1599.99 1419.48 1579.02 1398.51 1553.14 1398.51V1398.51Z" fill="#00B4FF"/>
</g>
<defs>
<clipPath id="clip0">
<rect width="1600" height="1600" fill="white"/>
</clipPath>
</defs>
</svg>
