<svg width="1600" height="1600" viewBox="0 0 1600 1600" fill="none" xmlns="http://www.w3.org/2000/svg">
<path d="M1201.67 1600H398.334C178.694 1600 0 1421.31 0 1201.67V398.334C0 178.694 178.694 0 398.334 0H1201.67C1421.31 0 1600 178.694 1600 398.334V1201.67C1600 1421.31 1421.31 1600 1201.67 1600Z" fill="#0082F5"/>
<path d="M1600 1201.67V398.334C1600 178.694 1421.31 0 1201.67 0H800V1600H1201.67C1421.31 1600 1600 1421.31 1600 1201.67Z" fill="#0050BE"/>
<path d="M398.334 93.75C230.388 93.75 93.75 230.388 93.75 398.334V1201.67C93.75 1369.61 230.388 1506.25 398.334 1506.25H1201.67C1369.61 1506.25 1506.25 1369.61 1506.25 1201.67V398.334C1506.25 230.388 1369.61 93.75 1201.67 93.75H398.334Z" fill="#00B4FF"/>
<path d="M1506.25 1201.67V398.334C1506.25 230.388 1369.61 93.75 1201.67 93.75H800V1506.25H1201.67C1369.61 1506.25 1506.25 1369.61 1506.25 1201.67Z" fill="#0082F5"/>
<path d="M1074.48 909.791H800.001V635.312C800.001 604.994 775.423 580.416 745.104 580.416C532.876 580.416 360.832 752.459 360.832 964.687C360.832 1176.92 532.876 1348.96 745.104 1348.96C957.332 1348.96 1129.38 1176.92 1129.38 964.687C1129.38 934.369 1104.8 909.791 1074.48 909.791Z" fill="#E2DCDA"/>
<path d="M1074.48 909.791H800V1345.04C986.219 1318.4 1129.38 1158.27 1129.38 964.688C1129.38 934.369 1104.8 909.791 1074.48 909.791Z" fill="#C6B7B4"/>
<path d="M1362.27 1051.74C1320.41 1009.88 1269.36 958.828 1229.75 919.21C1188.58 878.028 1132.72 854.894 1074.48 854.894H909.789V761.144H1066.46C1101.2 761.144 1129.37 732.975 1129.37 698.228C1129.37 663.481 1101.21 635.313 1066.46 635.313H909.789V607.866C909.789 547.231 860.63 498.075 799.996 498.075C739.533 498.075 690.205 547.119 690.205 607.866V964.688C690.205 1025.28 739.393 1074.48 799.996 1074.48H1074.47C1074.47 1074.48 1147.13 1147.13 1206.99 1207.01C1249.89 1249.88 1319.39 1249.88 1362.26 1207.01C1405.1 1164.18 1405.19 1094.67 1362.27 1051.74Z" fill="#F2F2F2"/>
<path d="M1074.48 1074.48C1074.48 1074.48 1147.13 1147.13 1207 1207.01C1249.9 1249.88 1319.4 1249.88 1362.27 1207.01C1405.1 1164.17 1405.19 1094.66 1362.27 1051.74C1320.41 1009.88 1269.36 958.825 1229.75 919.206C1188.58 878.025 1132.72 854.891 1074.48 854.891H909.788V761.141H1066.45C1101.2 761.141 1129.37 732.972 1129.37 698.225C1129.37 663.478 1101.2 635.31 1066.45 635.31H909.788V607.863C909.788 547.228 860.629 498.072 799.994 498.072V1074.48H1074.48Z" fill="#E2DCDA"/>
<path d="M799.999 498.072C868.215 498.072 923.515 442.772 923.515 374.556C923.515 306.34 868.215 251.041 799.999 251.041C731.783 251.041 676.483 306.34 676.483 374.556C676.483 442.772 731.783 498.072 799.999 498.072Z" fill="#F2F2F2"/>
<path d="M923.516 374.556C923.516 306.387 868.181 251.041 800 251.041V498.072C868.181 498.072 923.516 442.725 923.516 374.556V374.556Z" fill="#E2DCDA"/>
</svg>
