<svg width="1600" height="1600" viewBox="0 0 1600 1600" fill="none" xmlns="http://www.w3.org/2000/svg">
<path d="M1056.42 568.757H893.748C867.861 568.757 846.873 547.769 846.873 521.882C846.873 495.994 867.861 475.007 893.748 475.007H1056.42C1082.31 475.007 1103.29 495.994 1103.29 521.882C1103.29 547.769 1082.31 568.757 1056.42 568.757Z" fill="#6ECD24"/>
<path d="M706.252 568.759H543.58C517.693 568.759 496.705 547.772 496.705 521.884C496.705 495.997 517.693 475.009 543.58 475.009H706.252C732.139 475.009 753.127 495.997 753.127 521.884C753.127 547.772 732.143 568.759 706.252 568.759Z" fill="#FEDB41"/>
<path d="M706.253 381.259H464.325C438.438 381.259 417.45 360.272 417.45 334.384C417.45 308.497 438.438 287.509 464.325 287.509H706.253C732.141 287.509 753.128 308.497 753.128 334.384C753.128 360.272 732.144 381.259 706.253 381.259Z" fill="#FEDB41"/>
<path d="M1135.68 381.258H893.748C867.861 381.258 846.873 360.27 846.873 334.383C846.873 308.495 867.861 287.508 893.748 287.508H1135.68C1161.56 287.508 1182.55 308.495 1182.55 334.383C1182.55 360.27 1161.57 381.258 1135.68 381.258Z" fill="#6ECD24"/>
<path d="M706.253 193.759H430.472C404.584 193.759 383.597 172.772 383.597 146.884C383.597 120.997 404.584 100.009 430.472 100.009H706.253C732.14 100.009 753.128 120.997 753.128 146.884C753.128 172.772 732.144 193.759 706.253 193.759Z" fill="#FEDB41"/>
<path d="M1169.53 193.759H893.748C867.861 193.759 846.873 172.771 846.873 146.884C846.873 120.996 867.861 100.009 893.748 100.009H1169.53C1195.42 100.009 1216.4 120.996 1216.4 146.884C1216.4 172.771 1195.42 193.759 1169.53 193.759Z" fill="#6ECD24"/>
<path d="M706.251 1506.25H430.47C404.582 1506.25 383.595 1485.26 383.595 1459.38C383.595 1433.49 404.582 1412.5 430.47 1412.5H706.251C732.139 1412.5 753.126 1433.49 753.126 1459.38C753.126 1485.26 732.142 1506.25 706.251 1506.25Z" fill="#98D400"/>
<path d="M1169.53 1506.25H893.748C867.861 1506.25 846.873 1485.26 846.873 1459.38C846.873 1433.49 867.861 1412.5 893.748 1412.5H1169.53C1195.42 1412.5 1216.4 1433.49 1216.4 1459.38C1216.4 1485.26 1195.42 1506.25 1169.53 1506.25Z" fill="#FEA832"/>
<path d="M1137.32 1318.75H893.751C867.863 1318.75 846.876 1297.76 846.876 1271.88C846.876 1245.99 867.863 1225 893.751 1225H1137.32C1163.21 1225 1184.2 1245.99 1184.2 1271.88C1184.2 1297.76 1163.21 1318.75 1137.32 1318.75Z" fill="#FEA832"/>
<path d="M706.25 1318.75H462.678C436.79 1318.75 415.803 1297.76 415.803 1271.88C415.803 1245.99 436.79 1225 462.678 1225H706.25C732.137 1225 753.125 1245.99 753.125 1271.88C753.125 1297.76 732.14 1318.75 706.25 1318.75V1318.75Z" fill="#98D400"/>
<path d="M706.25 1131.25H540.428C514.54 1131.25 493.553 1110.27 493.553 1084.38C493.553 1058.49 514.54 1037.5 540.428 1037.5H706.25C732.137 1037.5 753.125 1058.49 753.125 1084.38C753.125 1110.27 732.14 1131.25 706.25 1131.25V1131.25Z" fill="#98D400"/>
<path d="M1059.57 1131.25H893.748C867.861 1131.25 846.873 1110.27 846.873 1084.38C846.873 1058.49 867.861 1037.5 893.748 1037.5H1059.57C1085.46 1037.5 1106.44 1058.49 1106.44 1084.38C1106.44 1110.27 1085.46 1131.25 1059.57 1131.25Z" fill="#FEA832"/>
<path d="M1221.44 47.9456C1211.83 472.318 1056.04 641.445 830.594 835.535C820.375 844.347 810.157 853.128 800.032 861.91C632.408 1007.44 481.252 1159.6 472.284 1554.19C471.721 1579.72 450.846 1600 425.44 1600H424.378C398.471 1599.41 377.972 1577.94 378.565 1552.06C388.175 1127.69 543.958 958.562 769.407 764.473C779.657 755.66 789.875 746.848 800.032 738.035C967.624 592.536 1118.75 440.381 1127.72 45.8206C1128.31 19.9458 1149.87 -0.460373 1175.62 0.00837403C1201.53 0.602121 1222.03 22.0707 1221.44 47.9456V47.9456Z" fill="#00B4FF"/>
<path d="M1221.43 47.9466C1211.82 472.319 1056.04 641.446 830.591 835.536C820.373 844.348 810.154 853.129 800.029 861.911L799.985 738.071C967.578 592.572 1118.75 440.382 1127.71 45.8247C1128.31 19.9499 1149.87 -0.456253 1175.62 0.0124939C1201.53 0.603115 1222.03 22.0717 1221.43 47.9466V47.9466Z" fill="#0082F5"/>
<path d="M1221.44 1552.06C1222.03 1577.94 1201.53 1599.41 1175.62 1600H1174.56C1149.15 1600 1128.28 1579.72 1127.72 1554.19C1118.75 1159.63 967.624 1007.47 800.032 861.973C789.875 853.16 779.657 844.348 769.407 835.535C553.239 649.433 388.387 481.722 378.565 47.9463C377.972 22.0715 398.471 0.60285 424.378 0.0091038C450.127 -0.490893 471.69 19.9465 472.284 45.8213C481.252 440.413 632.408 592.568 800.032 738.099C810.157 746.88 820.375 755.661 830.594 764.473C1046.76 950.572 1211.61 1117.93 1221.44 1552.06V1552.06Z" fill="#FD4E26"/>
<path d="M1221.43 1552.06C1222.03 1577.94 1201.53 1599.41 1175.62 1600H1174.56C1149.15 1600 1128.28 1579.72 1127.71 1554.19C1118.75 1159.63 967.621 1007.47 800.028 861.973V738.099C810.153 746.88 820.372 755.661 830.591 764.474C1046.76 950.573 1211.6 1117.93 1221.43 1552.06V1552.06Z" fill="#FD3018"/>
</svg>
