<svg width="1600" height="1600" viewBox="0 0 1600 1600" fill="none" xmlns="http://www.w3.org/2000/svg">
<g clip-path="url(#clip0)">
<path d="M1302.08 784.115H1051.04C1025.16 784.115 1004.17 763.128 1004.17 737.24V486.2C1004.17 460.312 1025.16 439.325 1051.04 439.325H1255.21L1348.96 737.24C1348.96 763.128 1327.97 784.115 1302.08 784.115V784.115Z" fill="#C6B7B4"/>
<path d="M1051.04 439.322H800C774.112 439.322 753.125 460.309 753.125 486.197V737.237C753.125 763.125 774.112 784.112 800 784.112H1051.04V439.322Z" fill="#E2DCDA"/>
<path d="M800.002 439.322H548.961C523.073 439.322 502.086 460.309 502.086 486.197V737.237C502.086 763.125 523.073 784.112 548.961 784.112H800.002V439.322Z" fill="#F2F2F2"/>
<path d="M548.959 439.322H344.793L251.043 737.237C251.043 763.125 272.03 784.112 297.918 784.112H548.959V439.322Z" fill="#E2DCDA"/>
<path d="M297.922 1160.68C287.819 1160.68 277.787 1157.42 269.453 1151.05C266.666 1148.92 200.459 1097.85 134.419 1006.58C46.4813 885.04 0 748.503 0 611.719V486.197C0 460.309 20.9875 439.322 46.875 439.322H344.791V1112.4C344.791 1128.98 336.744 1144.88 322.653 1153.62C315.016 1158.36 306.444 1160.68 297.922 1160.68Z" fill="#F2F2F2"/>
<path d="M1302.08 1160.68C1293.58 1160.68 1285.03 1158.37 1277.4 1153.65C1263.28 1144.92 1255.21 1129 1255.21 1112.4V439.322H1553.13C1579.01 439.322 1600 460.309 1600 486.197V611.719C1600 748.503 1553.52 885.041 1465.58 1006.58C1399.54 1097.85 1333.33 1148.92 1330.55 1151.04C1322.21 1157.42 1312.18 1160.68 1302.08 1160.68V1160.68Z" fill="#E2DCDA"/>
</g>
<defs>
<clipPath id="clip0">
<rect width="1600" height="1600" fill="white"/>
</clipPath>
</defs>
</svg>
