<svg width="1600" height="1600" viewBox="0 0 1600 1600" fill="none" xmlns="http://www.w3.org/2000/svg">
<g clip-path="url(#clip0)">
<path d="M1034.36 1171.88H565.619C539.71 1171.88 518.744 1150.91 518.744 1125V937.505C518.744 911.596 539.71 890.63 565.619 890.63H659.367V750.007H565.619C539.71 750.007 518.744 729.042 518.744 703.133V515.635C518.744 489.726 539.71 468.76 565.619 468.76C605.352 468.76 640.874 443.629 654.058 406.277C660.742 387.508 678.411 375.011 698.276 375.011H893.74C919.649 375.011 940.614 395.977 940.614 421.886V890.63H1034.36C1060.27 890.63 1081.24 911.596 1081.24 937.505V1125C1081.24 1150.91 1060.27 1171.88 1034.36 1171.88Z" fill="#FEDB41"/>
<path d="M800.024 1171.88H1034.36C1060.27 1171.88 1081.24 1150.91 1081.24 1125V937.505C1081.24 911.596 1060.27 890.63 1034.36 890.63H940.613V421.886C940.613 395.977 919.648 375.011 893.739 375.011H800.024V1171.88Z" fill="#FEA832"/>
<path d="M1565.08 918.358C1560.68 917.199 1481.4 896.865 1397.82 913.196C1405.2 877.309 1409.27 841.19 1410.08 805.21C1457.03 784.541 1537.37 739.638 1575.28 662.477C1629.54 552 1577.43 420.186 1575.19 414.627C1566.06 392.017 1541.11 380.186 1517.83 387.414C1512.55 389.055 1401.46 424.398 1338.72 508.879C1320.54 475.095 1298.96 442.639 1274.03 411.948C1293.79 367.011 1321.54 281.881 1295.53 199.173C1258.6 81.7586 1129.94 22.2843 1124.48 19.8093C1102.72 9.94691 1077.02 18.0281 1064.83 38.5716C1061.77 43.7246 990.311 166.139 1027.24 283.553C1059.88 387.343 1164.18 445.848 1191.73 459.742C1477.79 793.053 1239.38 1310.55 800 1310.55C359.406 1310.55 119.99 790.382 411.005 456.592C444.595 439.104 539.979 382.036 571.472 284.034C609.128 166.851 538.438 43.9965 535.41 38.8247C523.341 18.2031 497.692 9.96254 475.87 19.6905C470.395 22.1311 341.368 80.8023 303.709 197.985C276.725 281.959 305.375 368.833 324.9 413.239C300.46 443.442 279.116 475.429 261.044 508.832C197.817 424.698 85.8808 393.674 80.5558 392.239C57.6842 386.08 33.8095 397.955 24.919 419.908C22.669 425.464 -29.5429 557.237 24.6378 667.758C62.3904 744.763 142.158 787.166 189.626 806.494C190.551 842.531 194.726 878.512 202.064 914.024C118.752 897.371 39.6001 917.149 35.2064 918.28C10.8285 924.552 -4.24628 948.958 1.06303 973.564C2.36927 979.62 34.2876 1122.67 139.136 1185.84C184.958 1213.45 236.501 1221.38 280.622 1221.38C310.994 1221.38 337.84 1217.62 356.871 1213.93C378.33 1236.9 401.421 1258.02 425.949 1277.18C403.943 1283.92 382.027 1293.71 361.571 1307.64C259.835 1376.92 240.076 1517.28 239.285 1523.22C236.129 1546.9 251.294 1569.17 274.488 1574.91C277.36 1575.62 312.403 1584.03 359.396 1584.03C407.596 1584.03 468.367 1575.18 519.879 1540.1C582.006 1497.79 613.559 1428.98 628.893 1380.46C683.336 1396.08 740.764 1404.3 799.997 1404.3C858.415 1404.3 915.077 1396.3 968.849 1381.08C984.405 1429.55 1016.79 1499.9 1080.66 1542.3C1130.95 1575.69 1189.63 1584.38 1237.06 1584.38C1286.35 1584.38 1323.49 1575 1326.44 1574.23C1349.57 1568.22 1364.47 1545.78 1361.04 1522.14C1360.18 1516.2 1338.77 1376.09 1236.23 1308C1215.81 1294.45 1194.01 1284.97 1172.14 1278.49C1197.75 1258.63 1221.8 1236.63 1244.08 1212.64C1263.69 1216.53 1290.3 1220.28 1320.21 1220.28C1363.73 1220.28 1414.11 1212.34 1459.61 1185.31C1564.87 1122.77 1597.55 979.867 1598.88 973.817C1604.32 949.248 1589.4 924.777 1565.08 918.358V918.358Z" fill="#98D400"/>
<path d="M1080.66 1542.3C1130.95 1575.69 1189.63 1584.37 1237.06 1584.37C1286.35 1584.37 1323.49 1575 1326.44 1574.23C1349.57 1568.22 1364.47 1545.78 1361.04 1522.13C1360.18 1516.2 1338.77 1376.08 1236.23 1308C1215.81 1294.44 1194.01 1284.97 1172.14 1278.49C1197.75 1258.63 1221.8 1236.63 1244.08 1212.63C1263.68 1216.52 1290.3 1220.28 1320.21 1220.28C1363.73 1220.28 1414.11 1212.33 1459.61 1185.3C1564.87 1122.77 1597.55 979.863 1598.88 973.813C1604.32 949.251 1589.4 924.78 1565.08 918.361C1560.68 917.202 1481.4 896.867 1397.83 913.198C1405.2 877.311 1409.27 841.193 1410.08 805.212C1457.04 784.544 1537.37 739.641 1575.28 662.48C1629.55 552.003 1577.43 420.189 1575.19 414.629C1566.06 392.02 1541.11 380.189 1517.83 387.417C1512.55 389.058 1401.46 424.401 1338.72 508.881C1320.54 475.097 1298.96 442.642 1274.03 411.951C1293.79 367.014 1321.54 281.884 1295.53 199.176C1258.6 81.7614 1129.94 22.2871 1124.48 19.8121C1102.72 9.94974 1077.02 18.0309 1064.83 38.5744C1061.77 43.7275 990.313 166.142 1027.24 283.556C1059.88 387.345 1164.19 445.851 1191.73 459.744C1477.79 793.056 1239.38 1310.55 800.003 1310.55V1404.3C858.421 1404.3 915.08 1396.29 968.851 1381.07C984.404 1429.54 1016.79 1499.89 1080.66 1542.3Z" fill="#6ECD24"/>
</g>
<defs>
<clipPath id="clip0">
<rect width="1600" height="1600" fill="white"/>
</clipPath>
</defs>
</svg>
