<svg width="1600" height="1600" viewBox="0 0 1600 1600" fill="none" xmlns="http://www.w3.org/2000/svg">
<path d="M1600 800C1600 1013.69 1516.78 1214.59 1365.69 1365.69H234.313C83.2188 1214.59 0 1013.69 0 800C0 586.312 83.2188 385.406 234.313 234.312H1365.69C1516.78 385.406 1600 586.312 1600 800Z" fill="#FEA832"/>
<path d="M1600 800C1600 1013.69 1516.78 1214.59 1365.69 1365.69H800V234.312H1365.69C1516.78 385.406 1600 586.312 1600 800Z" fill="#FF8C28"/>
<path d="M1365.69 234.313L1135.88 464.125H464.127L234.314 234.313C385.408 83.2188 586.314 0 800.002 0C1013.69 0 1214.6 83.2188 1365.69 234.313Z" fill="#FEDB41"/>
<path d="M1365.69 1365.69C1214.6 1516.78 1013.69 1600 800.002 1600C586.314 1600 385.408 1516.78 234.314 1365.69L464.127 1135.88H1135.88L1365.69 1365.69Z" fill="#FEDB41"/>
<path d="M1135.88 1135.88L1365.69 1365.69C1214.59 1516.78 1013.69 1600 800 1600V1135.88H1135.88Z" fill="#FEA832"/>
<path d="M1135.88 464.125H800V0C1013.69 0 1214.59 83.2188 1365.69 234.313L1135.88 464.125Z" fill="#FEA832"/>
<path d="M800 1321.88C1088.22 1321.88 1321.88 1088.22 1321.88 800C1321.88 511.776 1088.22 278.125 800 278.125C511.776 278.125 278.125 511.776 278.125 800C278.125 1088.22 511.776 1321.88 800 1321.88Z" fill="#FF8C28"/>
<path d="M1321.88 800C1321.88 1087.75 1087.75 1321.88 800 1321.88V278.125C1087.75 278.125 1321.88 512.25 1321.88 800Z" fill="#FEBB3A"/>
<path d="M907.596 915.844H1001.35C1001.35 1026.88 911.033 1117.19 800.002 1117.19C697.377 1117.19 612.439 1040 600.189 940.625H538.439V846.875H598.658V753.125H538.439V659.375H600.189C612.439 560 697.377 482.812 800.002 482.812C911.033 482.812 1001.35 573.125 1001.35 684.156H907.596C907.596 624.844 859.314 576.562 800.002 576.562C749.189 576.562 706.502 611.969 695.283 659.375H800.002V753.125H692.408V846.875H800.002V940.625H695.283C706.502 988.031 749.189 1023.44 800.002 1023.44C859.314 1023.44 907.596 975.156 907.596 915.844Z" fill="#FEA832"/>
<path d="M907.594 915.844H1001.34C1001.34 1026.88 911.031 1117.19 800 1117.19V1023.44C859.313 1023.44 907.594 975.156 907.594 915.844Z" fill="#FEDB41"/>
<path d="M800 576.563V482.812C911.031 482.812 1001.34 573.125 1001.34 684.156H907.594C907.594 624.844 859.313 576.563 800 576.563Z" fill="#FEDB41"/>
</svg>
