<svg width="1600" height="1600" viewBox="0 0 1600 1600" fill="none" xmlns="http://www.w3.org/2000/svg">
<g clip-path="url(#clip0)">
<path d="M964.215 1271.46L1034.37 1178.12V1084.38C1034.37 1006.83 1097.46 943.75 1175 943.75H1553.12C1579.01 943.75 1600 964.737 1600 990.625V1259.56L964.215 1271.46Z" fill="#FFB293"/>
<path d="M565.625 1084.38C565.625 1006.83 502.541 943.75 425 943.75H46.875C20.9875 943.75 0 964.737 0 990.625V1259.56L587.5 1262.5L565.625 1156.25V1084.38Z" fill="#FFBFAB"/>
<path d="M1570.44 1216C1517 1194.75 1454.31 1201.22 1406.81 1232.87C1379.91 1250.81 1345.09 1250.81 1318.19 1232.87C1259.69 1193.88 1184.06 1193.88 1125.56 1232.87C1098.62 1250.81 1063.84 1250.81 1036.97 1232.87C1020.28 1221.75 1002 1213.69 982.625 1208.88C982.438 1208.81 890.969 1208.63 800 1208.41C710.125 1208.22 620.75 1208.06 620.594 1208.09C600 1212.81 580.656 1221.16 563.062 1232.87C536.156 1250.81 501.344 1250.81 474.438 1232.87C415.938 1193.88 340.312 1193.88 281.813 1232.87C254.875 1250.81 220.094 1250.81 193.187 1232.87C145.687 1201.22 82.9688 1194.75 29.5625 1216C11.7188 1223.09 0 1240.38 0 1259.56V1553.13C0 1579 21 1600 46.875 1600H1553.12C1579 1600 1600 1579 1600 1553.13V1259.56C1600 1240.37 1588.28 1223.09 1570.44 1216Z" fill="#FFB293"/>
<path d="M1600 1259.56V1553.13C1600 1579 1579 1600 1553.12 1600H800V1208.41C890.969 1208.63 982.438 1208.81 982.625 1208.88C1002 1213.69 1020.28 1221.75 1036.97 1232.87C1063.84 1250.81 1098.62 1250.81 1125.56 1232.87C1184.06 1193.88 1259.69 1193.88 1318.19 1232.87C1345.09 1250.81 1379.91 1250.81 1406.81 1232.87C1454.31 1201.22 1517 1194.75 1570.44 1216C1588.28 1223.09 1600 1240.37 1600 1259.56Z" fill="#FF9468"/>
<path d="M1205.5 11.2783C1188.13 -3.59666 1162.56 -3.78416 1145 10.8721C1138.41 16.3721 1130.72 22.5596 1122.13 29.5283C992.969 134.247 885.219 247.06 800 370.935C646 594.778 565.625 854.685 565.625 1168.09C565.625 1297.12 663.656 1412.4 799.094 1412.4H800C928.031 1411.9 1034.38 1309.03 1034.38 1178.12C1034.38 1148.28 1028.47 1112.22 1021 1066.59C990.75 882.122 934.5 538.81 1215.19 70.9971C1226.97 51.3721 1222.84 26.1565 1205.5 11.2783V11.2783Z" fill="#6B5C59"/>
<path d="M1215.19 71C934.5 538.812 990.75 882.125 1021 1066.59C1028.47 1112.22 1034.38 1148.28 1034.38 1178.12C1034.38 1309.03 928.031 1411.91 800 1412.41V370.937C885.219 247.062 992.969 134.25 1122.12 29.5312C1130.72 22.5625 1138.41 16.375 1145 10.875C1162.56 -3.78129 1188.13 -3.59379 1205.5 11.2812C1222.84 26.1562 1226.97 51.3718 1215.19 71V71Z" fill="#3A3331"/>
</g>
<defs>
<clipPath id="clip0">
<rect width="1600" height="1600" fill="white"/>
</clipPath>
</defs>
</svg>
