<svg width="1600" height="1600" viewBox="0 0 1600 1600" fill="none" xmlns="http://www.w3.org/2000/svg">
<g clip-path="url(#clip0)">
<path d="M1166.25 532.295C983.701 422.724 1094.24 64.8773 1095.37 61.3022C1105.97 27.9699 1077.58 -5.07084 1042.88 0.652327C1038.96 1.31088 946.351 17.1162 858.042 77.2644C781.728 129.228 726.948 201.791 705.727 293.616C659.095 247.078 618.39 230.583 615.725 229.519C582.838 216.609 548.467 242.888 551.656 277.375C552.158 283.803 562.977 436.209 426.844 534.494C352.647 588.088 304.322 645.821 279.077 711.05C233.417 829.057 244.55 959.168 311.252 1087.33C360.33 1181.6 422.329 1241.87 424.931 1244.42C433.681 1252.85 445.409 1257.59 457.577 1257.59H1138.87C1151.04 1257.59 1162.77 1252.85 1171.51 1244.42C1174.15 1241.87 1236.12 1181.6 1285.19 1087.33C1407.17 852.953 1329.9 630.533 1166.25 532.295V532.295Z" fill="#FEDB41"/>
<path d="M1285.2 1087.33C1236.12 1181.6 1174.15 1241.87 1171.52 1244.41C1162.77 1252.85 1151.04 1257.58 1138.87 1257.58H800V125.025C818.941 106.143 838.792 90.372 858.047 77.2636C946.356 17.1155 1038.96 1.3101 1042.88 0.651543C1077.52 -5.06222 1105.99 27.9189 1095.38 61.3014C1094.25 64.8796 983.706 422.723 1166.25 532.295C1330.05 630.617 1407.1 853.093 1285.2 1087.33Z" fill="#FEA832"/>
<path d="M97.4849 1324.04C75.5205 1324.04 55.8798 1308.58 51.4111 1286.22C46.3151 1260.74 62.8386 1235.96 88.3122 1230.87L213.751 1205.78C239.231 1200.68 264.009 1217.21 269.102 1242.68C274.197 1268.16 257.674 1292.94 232.2 1298.03C96.2556 1325.23 104.152 1324.04 97.4849 1324.04V1324.04Z" fill="#FEDB41"/>
<path d="M248.069 1574.91C206.539 1574.91 185.086 1524.33 214.809 1494.61L315.16 1394.26C333.528 1375.89 363.313 1375.89 381.684 1394.26C400.054 1412.63 400.054 1442.41 381.684 1460.78L281.332 1561.14C272.144 1570.32 260.105 1574.91 248.069 1574.91V1574.91Z" fill="#FEDB41"/>
<path d="M1502.51 1324.04C1495.79 1324.04 1503.98 1325.27 1367.79 1298.03C1342.32 1292.94 1325.8 1268.16 1330.89 1242.68C1335.99 1217.2 1360.76 1200.68 1386.24 1205.78L1511.68 1230.87C1537.16 1235.96 1553.68 1260.74 1548.58 1286.22C1544.11 1308.58 1524.47 1324.04 1502.51 1324.04V1324.04Z" fill="#FEA832"/>
<path d="M1351.93 1574.91C1339.89 1574.91 1327.85 1570.32 1318.67 1561.13L1218.32 1460.78C1199.95 1442.41 1199.95 1412.63 1218.32 1394.26C1236.69 1375.89 1266.47 1375.89 1284.84 1394.26L1385.19 1494.61C1414.91 1524.33 1393.46 1574.91 1351.93 1574.91V1574.91Z" fill="#FEA832"/>
<path d="M1175.69 893.902C1079.39 797.606 922.824 796.825 825.809 893.902L800 919.68C797.777 917.51 808.505 928.188 774.222 893.902C676.884 796.568 520.327 797.922 424.341 893.902C327.232 991.017 327.937 1147.44 424.309 1243.82C521.402 1340.84 754.519 1574.04 766.759 1586.23C785.023 1604.5 814.827 1604.68 833.273 1586.23C1162.74 1256.74 1175.78 1244.02 1175.78 1243.69C1272.15 1147.23 1272.09 990.334 1175.69 893.902V893.902Z" fill="#FD4E26"/>
<path d="M1175.78 1243.69C1175.78 1244 1165 1254.47 833.27 1586.23C824.464 1595.04 812.629 1600 799.903 1600C799.903 895.866 799.683 919.373 799.997 919.68L825.806 893.903C922.598 797.051 1079.15 797.364 1175.69 893.903C1272.09 990.334 1272.15 1147.23 1175.78 1243.69Z" fill="#FD3018"/>
</g>
<defs>
<clipPath id="clip0">
<rect width="1600" height="1600" fill="white"/>
</clipPath>
</defs>
</svg>
