<svg width="1600" height="1600" viewBox="0 0 1600 1600" fill="none" xmlns="http://www.w3.org/2000/svg">
<path d="M1315.63 515.625C1315.63 648.747 1264.06 776.247 1169.38 873.75C1150.63 891.563 1138.44 913.122 1132.81 937.5L1029.69 1031.25H627.499L466.252 937.5C460.627 914.062 448.439 890.625 430.627 871.875C312.502 750.941 262.817 585.937 293.749 420C330.314 216.562 489.689 52.5 690.317 11.25C726.874 3.74687 763.439 0 800.002 0C919.067 0 1032.5 39.3719 1125.31 115.309C1246.25 213.747 1315.63 359.997 1315.63 515.625Z" fill="#FEDB41"/>
<path d="M1315.62 515.625C1315.62 648.747 1264.06 776.247 1169.38 873.75C1150.63 891.563 1138.43 913.122 1132.81 937.5L1029.69 1031.25H800V0C919.066 0 1032.5 39.3719 1125.31 115.309C1246.25 213.747 1315.62 359.997 1315.62 515.625Z" fill="#FCBF29"/>
<path d="M893.75 1318.75H706.25C679.997 1318.75 659.375 1339.37 659.375 1365.62V1459.38C659.375 1537.18 722.184 1600 800 1600C877.816 1600 940.625 1537.18 940.625 1459.38V1365.62C940.625 1339.37 920.003 1318.75 893.75 1318.75Z" fill="#6B5C59"/>
<path d="M987.5 375C909.684 375 846.875 437.809 846.875 515.625V562.5H753.125V515.625C753.125 437.809 690.316 375 612.5 375C534.684 375 471.875 437.809 471.875 515.625C471.875 593.434 534.684 656.25 612.5 656.25H659.375V984.375C659.375 1010.62 679.997 1031.25 706.25 1031.25H893.75C920.003 1031.25 940.625 1010.62 940.625 984.375V656.25H987.5C1065.32 656.25 1128.12 593.434 1128.12 515.625C1128.12 437.809 1065.32 375 987.5 375ZM659.375 562.5H612.5C586.247 562.5 565.625 541.872 565.625 515.625C565.625 489.372 586.247 468.75 612.5 468.75C638.753 468.75 659.375 489.372 659.375 515.625V562.5ZM846.875 937.5H753.125V656.25H846.875V937.5ZM987.5 562.5H940.625V515.625C940.625 489.372 961.247 468.75 987.5 468.75C1013.75 468.75 1034.38 489.372 1034.38 515.625C1034.38 541.872 1013.75 562.5 987.5 562.5Z" fill="#FEA832"/>
<path d="M940.625 1365.62V1459.38C940.625 1537.18 877.816 1600 800 1600V1318.75H893.75C920.003 1318.75 940.625 1339.37 940.625 1365.62Z" fill="#3A3331"/>
<path d="M987.5 375C909.684 375 846.875 437.809 846.875 515.625V562.5H800V656.25H846.875V937.5H800V1031.25H893.75C920.003 1031.25 940.625 1010.62 940.625 984.375V656.25H987.5C1065.32 656.25 1128.12 593.434 1128.12 515.625C1128.12 437.809 1065.32 375 987.5 375ZM987.5 562.5H940.625V515.625C940.625 489.372 961.247 468.75 987.5 468.75C1013.75 468.75 1034.38 489.372 1034.38 515.625C1034.38 541.872 1013.75 562.5 987.5 562.5Z" fill="#FF8C28"/>
<path d="M1123.44 1225C1101.87 1331.88 1007.19 1412.5 893.75 1412.5H706.25C593.75 1412.5 502.816 1334.68 478.438 1225L561.875 1131.25H989.375L1123.44 1225Z" fill="#8E7D78"/>
<path d="M989.381 1131.25L1123.44 1225C1101.88 1331.88 1007.19 1412.5 893.756 1412.5H800.006V1131.25H989.381Z" fill="#6B5C59"/>
<path d="M1132.81 937.5H466.248C469.995 948.75 471.873 960 471.873 971.25C471.873 1018.12 467.186 1180.93 478.436 1225H1123.44C1130.94 1186.56 1128.12 1011.56 1128.12 972.188C1128.12 960 1130 948.75 1132.81 937.5Z" fill="#C6B7B4"/>
<path d="M1128.12 972.188C1128.12 1011.56 1130.94 1186.56 1123.44 1225H800V937.5H1132.81C1130 948.75 1128.12 960 1128.12 972.188Z" fill="#8E7D78"/>
<path d="M1553.12 562.5H1459.38C1433.47 562.5 1412.5 541.534 1412.5 515.625C1412.5 489.716 1433.47 468.75 1459.38 468.75H1553.12C1579.03 468.75 1600 489.716 1600 515.625C1600 541.534 1579.03 562.5 1553.12 562.5Z" fill="#FF8C28"/>
<path d="M1329.36 361.266C1311.05 342.956 1311.05 313.291 1329.36 294.981L1423.11 201.231C1441.42 182.922 1471.08 182.922 1489.39 201.231C1507.7 219.541 1507.7 249.206 1489.39 267.516L1395.64 361.266C1377.33 379.578 1347.67 379.578 1329.36 361.266Z" fill="#FF8C28"/>
<path d="M1423.11 830.016L1329.36 736.266C1311.05 717.956 1311.05 688.291 1329.36 669.981C1347.67 651.672 1377.33 651.672 1395.64 669.981L1489.39 763.731C1507.7 782.041 1507.7 811.706 1489.39 830.016C1471.08 848.328 1441.42 848.328 1423.11 830.016Z" fill="#FF8C28"/>
<path d="M140.625 562.5H46.875C20.9656 562.5 0 541.534 0 515.625C0 489.716 20.9656 468.75 46.875 468.75H140.625C166.534 468.75 187.5 489.716 187.5 515.625C187.5 541.534 166.534 562.5 140.625 562.5Z" fill="#FEA832"/>
<path d="M204.357 361.266L110.607 267.516C92.2977 249.206 92.2977 219.541 110.607 201.231C128.916 182.922 158.582 182.922 176.891 201.231L270.641 294.981C288.951 313.291 288.951 342.956 270.641 361.266C252.329 379.578 222.666 379.578 204.357 361.266Z" fill="#FEA832"/>
<path d="M110.607 830.016C92.2977 811.706 92.2977 782.041 110.607 763.731L204.357 669.981C222.666 651.672 252.332 651.672 270.641 669.981C288.951 688.291 288.951 717.956 270.641 736.266L176.891 830.016C158.579 848.328 128.916 848.328 110.607 830.016Z" fill="#FEA832"/>
</svg>
