<svg width="1600" height="1600" viewBox="0 0 1600 1600" fill="none" xmlns="http://www.w3.org/2000/svg">
<path d="M203.125 331.25H659.375V593.75H203.125V331.25Z" fill="#FF8C28"/>
<path d="M1585.03 987.397C1551.82 1041.23 1461.8 1081.25 1362.5 1081.25H284.375L190.625 1175V1362.5L284.375 1456.25H471.875L518.75 1362.5L565.625 1456.25H659.375L706.25 1362.5L753.125 1456.25H846.875L893.75 1362.5L940.625 1456.25H1034.38L1081.25 1362.5L1128.12 1456.25H1221.88L1268.75 1362.5L1315.62 1452.97C1476.24 1437 1600 1341.62 1600 1221.88V940.625L1585.03 987.397Z" fill="#FEDB41"/>
<path d="M893.75 1362.5L940.625 1456.25H1034.38L1081.25 1362.5L1128.12 1456.25H1221.88L1268.75 1362.5L1315.62 1452.97C1476.24 1437 1600 1341.62 1600 1221.88V940.625L1585.03 987.397C1551.82 1041.23 1461.8 1081.25 1362.5 1081.25H800V1456.25H846.875L893.75 1362.5Z" fill="#FEA832"/>
<path d="M518.75 1268.75C492.862 1268.75 471.875 1289.73 471.875 1315.62V1456.25H565.625V1315.62C565.625 1289.73 544.638 1268.75 518.75 1268.75Z" fill="#8E7D78"/>
<path d="M706.25 1268.75C680.362 1268.75 659.375 1289.73 659.375 1315.62V1456.25H753.125V1315.62C753.125 1289.73 732.138 1268.75 706.25 1268.75Z" fill="#8E7D78"/>
<path d="M893.75 1268.75C867.862 1268.75 846.875 1289.73 846.875 1315.62V1456.25H940.625V1315.62C940.625 1289.73 919.638 1268.75 893.75 1268.75Z" fill="#6B5C59"/>
<path d="M1081.25 1268.75C1055.36 1268.75 1034.38 1289.73 1034.38 1315.62V1456.25H1128.12V1315.62C1128.12 1289.73 1107.14 1268.75 1081.25 1268.75Z" fill="#6B5C59"/>
<path d="M46.875 1081.25C20.6219 1081.25 0 1101.87 0 1128.12V1409.38C0 1435.62 20.6219 1456.25 46.875 1456.25H284.375V1081.25H46.875Z" fill="#F2F2F2"/>
<path d="M1268.75 1268.75C1242.86 1268.75 1221.88 1289.73 1221.88 1315.62V1456.25H1268.75C1284.85 1456.25 1300.2 1454.5 1315.62 1452.97V1315.62C1315.62 1289.73 1294.64 1268.75 1268.75 1268.75Z" fill="#6B5C59"/>
<path d="M1268.75 518.75H331.25V331.25H0V659.375C0 779.291 123.597 874.541 284.375 890.472L331.25 800L378.125 893.75H471.875L518.75 800L565.625 893.75H659.375L706.25 800L753.125 893.75H846.875L893.75 800L940.625 893.75H1034.38L1081.25 800L1128.12 893.75H1221.88L1268.75 800L1315.62 893.75H1362.5C1462.1 893.75 1551.89 933.559 1585.03 987.397C1594.15 972.616 1600 956.984 1600 940.625V753.125C1600 621.7 1452.73 518.75 1268.75 518.75Z" fill="#FEA832"/>
<path d="M893.75 800L940.625 893.75H1034.38L1081.25 800L1128.12 893.75H1221.88L1268.75 800L1315.62 893.75H1362.5C1462.1 893.75 1551.89 933.559 1585.03 987.397C1594.15 972.616 1600 956.984 1600 940.625V753.125C1600 621.7 1452.73 518.75 1268.75 518.75H800V893.75H846.875L893.75 800Z" fill="#FF8C28"/>
<path d="M331.25 706.25C305.362 706.25 284.375 727.231 284.375 753.125V890.472C299.803 892 315.144 893.75 331.25 893.75H378.125V753.125C378.125 727.231 357.138 706.25 331.25 706.25Z" fill="#6B5C59"/>
<path d="M518.75 706.25C492.862 706.25 471.875 727.231 471.875 753.125V893.75H565.625V753.125C565.625 727.231 544.638 706.25 518.75 706.25Z" fill="#6B5C59"/>
<path d="M706.25 706.25C680.362 706.25 659.375 727.231 659.375 753.125V893.75H753.125V753.125C753.125 727.231 732.138 706.25 706.25 706.25Z" fill="#6B5C59"/>
<path d="M893.75 706.25C867.862 706.25 846.875 727.231 846.875 753.125V893.75H940.625V753.125C940.625 727.231 919.638 706.25 893.75 706.25Z" fill="#3A3331"/>
<path d="M1081.25 706.25C1055.36 706.25 1034.38 727.231 1034.38 753.125V893.75H1128.12V753.125C1128.12 727.231 1107.14 706.25 1081.25 706.25Z" fill="#3A3331"/>
<path d="M1268.75 706.25C1242.86 706.25 1221.88 727.231 1221.88 753.125V893.75H1315.62V753.125C1315.62 727.231 1294.64 706.25 1268.75 706.25Z" fill="#3A3331"/>
<path d="M659.375 331.25C659.375 434.803 512.469 518.75 331.25 518.75C150.031 518.75 0 434.803 0 331.25C0 227.697 150.031 143.75 331.25 143.75C512.469 143.75 659.375 227.697 659.375 331.25Z" fill="#FEDB41"/>
<path d="M425 378.125H237.5C211.591 378.125 190.625 357.159 190.625 331.25C190.625 305.341 211.591 284.375 237.5 284.375H425C450.909 284.375 471.875 305.341 471.875 331.25C471.875 357.159 450.909 378.125 425 378.125Z" fill="#3A3331"/>
</svg>
