<svg width="1600" height="1600" viewBox="0 0 1600 1600" fill="none" xmlns="http://www.w3.org/2000/svg">
<path d="M896.875 0H703.125C573.684 0 468.75 104.934 468.75 234.375V428.125C468.75 454.013 489.737 475 515.625 475H609.375C635.263 475 656.25 454.013 656.25 428.125V234.375C656.25 208.487 677.237 187.5 703.125 187.5H896.875C922.763 187.5 943.75 208.487 943.75 234.375V428.125C943.75 454.013 964.737 475 990.625 475H1084.38C1110.26 475 1131.25 454.013 1131.25 428.125V234.375C1131.25 104.934 1026.32 0 896.875 0Z" fill="#8E7D78"/>
<path d="M896.875 0H800V187.5H896.875C922.763 187.5 943.75 208.487 943.75 234.375V428.125C943.75 454.013 964.737 475 990.625 475H1084.38C1110.26 475 1131.25 454.013 1131.25 428.125V234.375C1131.25 105 1026.25 0 896.875 0Z" fill="#6B5C59"/>
<path d="M1412.5 385.938L1318.75 481.563L1283.13 518.125L1225 465.625L1131.25 381.25H468.75L375 463.75L325.309 507.809L281.25 468.437L187.5 385.938C80.625 407.503 0 502.188 0 615.625V1365.62C0 1495 105 1600 234.375 1600H281.25L324.378 1520.32L375 1600H1225L1270.94 1523.12L1318.75 1600H1365.62C1495 1600 1600 1495 1600 1365.62V615.625C1600 502.184 1519.38 407.503 1412.5 385.938Z" fill="#FD4E26"/>
<path d="M1600 615.625V1365.62C1600 1495 1495 1600 1365.62 1600H1318.75L1270.94 1523.12L1225 1600H800V381.25H1131.25L1225 465.628L1283.13 518.128L1318.75 481.566L1412.5 385.938C1519.38 407.503 1600 502.184 1600 615.625Z" fill="#FD3018"/>
<path d="M325.309 507.809L375 463.75V1600H281.25V468.437L325.309 507.809Z" fill="#6B5C59"/>
<path d="M1283.13 518.128L1318.75 481.563V1600H1225V465.628L1283.13 518.128Z" fill="#3A3331"/>
<path d="M1084.38 850H943.75V709.375C943.75 683.122 923.128 662.5 896.875 662.5H703.125C676.872 662.5 656.25 683.122 656.25 709.375V850H515.625C489.372 850 468.75 870.622 468.75 896.875V1084.38C468.75 1110.63 489.372 1131.25 515.625 1131.25H656.25V1271.88C656.25 1298.13 676.872 1318.75 703.125 1318.75H896.875C923.128 1318.75 943.75 1298.13 943.75 1271.88V1131.25H1084.38C1110.63 1131.25 1131.25 1110.63 1131.25 1084.38V896.875C1131.25 870.622 1110.63 850 1084.38 850Z" fill="#F2F2F2"/>
<path d="M234.375 381.25C218.441 381.25 202.497 383.128 187.5 385.938V521.875C187.5 599.691 250.309 662.5 328.125 662.5C405.941 662.5 468.75 599.691 468.75 521.875V381.25H234.375Z" fill="#8E7D78"/>
<path d="M1365.62 381.25H1131.25V521.875C1131.25 599.691 1194.06 662.5 1271.88 662.5C1349.69 662.5 1412.5 599.691 1412.5 521.875V385.938C1397.5 383.128 1381.56 381.25 1365.62 381.25Z" fill="#6B5C59"/>
<path d="M1131.25 896.875V1084.38C1131.25 1110.63 1110.63 1131.25 1084.38 1131.25H943.75V1271.88C943.75 1298.13 923.128 1318.75 896.875 1318.75H800V662.5H896.875C923.128 662.5 943.75 683.122 943.75 709.375V850H1084.38C1110.63 850 1131.25 870.622 1131.25 896.875Z" fill="#E2DCDA"/>
</svg>
