<svg width="1600" height="1600" viewBox="0 0 1600 1600" fill="none" xmlns="http://www.w3.org/2000/svg">
<path d="M421.875 940.625H234.375C208.122 940.625 187.5 961.247 187.5 987.5V1362.5C187.5 1440.31 250.309 1503.12 328.125 1503.12C405.941 1503.12 468.75 1440.31 468.75 1362.5V987.5C468.75 961.247 448.128 940.625 421.875 940.625Z" fill="#8E7D78"/>
<path d="M468.75 987.5V1362.5C468.75 1440.31 405.941 1503.12 328.125 1503.12V940.625H421.875C448.128 940.625 468.75 961.247 468.75 987.5Z" fill="#6B5C59"/>
<path d="M562.5 425V987.5C562.5 1013.75 541.875 1034.38 515.625 1034.38H234.375C148.666 1034.38 77.4531 979.178 72.625 969.531C25.75 924.812 0 863.813 0 800V612.5C0 596.438 1.625 580.781 4.6875 565.625C26.4375 458.687 121.063 378.125 234.375 378.125H515.625C541.875 378.125 562.5 398.75 562.5 425Z" fill="#FD4E26"/>
<path d="M562.5 706.25V987.5C562.5 1013.75 541.875 1034.38 515.625 1034.38H234.375C148.666 1034.38 77.4531 979.178 72.625 969.531C25.75 924.812 0 863.813 0 800V706.25H562.5Z" fill="#FD3018"/>
<path d="M1110.63 199.06C1097.5 189.688 1081.56 187.81 1066.56 194.372L468.75 378.125V1034.38L1066.56 1218.12C1080.63 1223.75 1097.5 1222.81 1110.63 1213.43C1123.75 1205 1131.25 1190.93 1131.25 1175V237.5C1131.25 221.56 1123.75 207.5 1110.63 199.06Z" fill="#F2F2F2"/>
<path d="M1131.25 706.25V1175C1131.25 1190.93 1123.75 1205 1110.63 1213.43C1097.5 1222.81 1080.63 1223.75 1066.56 1218.12L468.75 1034.38V706.25H1131.25Z" fill="#E2DCDA"/>
<path d="M281.25 612.5C281.25 638.406 260.281 659.375 234.375 659.375H0V612.5C0 596.438 1.625 580.781 4.6875 565.625H234.375C260.281 565.625 281.25 586.594 281.25 612.5Z" fill="#6B5C59"/>
<path d="M281.25 800C281.25 825.906 260.281 846.875 234.375 846.875H4.6875C1.64688 831.912 0 815.956 0 800V753.125H234.375C260.281 753.125 281.25 774.094 281.25 800Z" fill="#3A3331"/>
<path d="M1553.12 753.125H1459.38C1433.47 753.125 1412.5 732.159 1412.5 706.25C1412.5 680.341 1433.47 659.375 1459.38 659.375H1553.12C1579.03 659.375 1600 680.341 1600 706.25C1600 732.159 1579.03 753.125 1553.12 753.125Z" fill="#00B4FF"/>
<path d="M1363.29 521.084C1351.3 521.084 1339.3 516.506 1330.15 507.35C1311.84 489.041 1311.84 459.375 1330.15 441.066L1396.43 374.781C1414.74 356.472 1444.41 356.472 1462.72 374.781C1481.03 393.09 1481.03 422.756 1462.72 441.066L1396.43 507.35C1387.28 516.506 1375.28 521.084 1363.29 521.084Z" fill="#00B4FF"/>
<path d="M1429.57 1051.45C1417.58 1051.45 1405.59 1046.87 1396.43 1037.72L1330.15 971.431C1311.84 953.122 1311.84 923.456 1330.15 905.147C1348.46 886.837 1378.13 886.837 1396.43 905.147L1462.72 971.431C1481.03 989.741 1481.03 1019.41 1462.72 1037.72C1453.56 1046.87 1441.57 1051.45 1429.57 1051.45Z" fill="#0082F5"/>
<path d="M1225 190.625V1221.88C1225 1273.44 1182.81 1315.62 1131.25 1315.62C1079.69 1315.62 1037.5 1273.44 1037.5 1221.88V190.625C1037.5 139.062 1079.69 96.875 1131.25 96.875C1182.81 96.875 1225 139.062 1225 190.625Z" fill="#FD4E26"/>
<path d="M1225 706.25V1221.88C1225 1273.44 1182.81 1315.62 1131.25 1315.62C1079.69 1315.62 1037.5 1273.44 1037.5 1221.88V706.25H1225Z" fill="#FD3018"/>
</svg>
