<svg width="1600" height="1600" viewBox="0 0 1600 1600" fill="none" xmlns="http://www.w3.org/2000/svg">
<g clip-path="url(#clip0)">
<path d="M1409.21 1271.53C1409.21 1451.01 1264.22 1599.5 1080.43 1599.5C1015.44 1599.5 959.178 1581.26 908.536 1547.73L800.034 1548.89L692.189 1550.04C621.864 1593.91 537.418 1609.28 454.379 1593.38C325.789 1568.76 222.473 1465.91 197.261 1337.51C163.239 1164.15 266.836 1005.85 425.137 958.55C423.824 742.172 450.88 495.177 524.016 294.701C571.659 164.143 660.603 0 800.003 0H800.034C939.402 0.0312415 1028.35 164.174 1075.99 294.701C1149.47 496.146 1176.15 744.015 1174.84 958.488C1312.8 999.133 1409.21 1124.97 1409.21 1271.53V1271.53Z" fill="#FFBFAB"/>
<path d="M1409.21 1271.53C1409.21 1451.01 1264.22 1599.5 1080.43 1599.5C1015.44 1599.5 959.178 1581.26 908.536 1547.73L800.034 1548.89V0C939.402 0.0312415 1028.35 164.174 1075.99 294.701C1149.47 496.146 1176.15 744.015 1174.84 958.488C1312.8 999.133 1409.21 1124.97 1409.21 1271.53Z" fill="#FFB293"/>
<path d="M1134.85 1410.8C1079.21 1419.02 1027.22 1455.41 988.515 1513.3C952.462 1567.23 882.544 1599.63 801.504 1600H800.035C718.932 1599.97 648.827 1567.98 612.212 1514.3C572.285 1455.76 520.049 1419.02 465.064 1410.83C439.446 1407.02 421.795 1383.18 425.606 1357.57C429.418 1331.98 453.255 1314.3 478.873 1318.14C560.007 1330.2 634.862 1381.12 689.628 1461.51C708.185 1488.72 751.517 1506.15 800.035 1506.28H801.097C849.459 1506.06 892.448 1488.37 910.599 1461.19C964.24 1381.03 1039.03 1330.2 1121.2 1318.08C1146.82 1314.33 1170.62 1332.01 1174.4 1357.63C1178.18 1383.22 1160.47 1407.05 1134.85 1410.8V1410.8Z" fill="#FFB293"/>
<path d="M1134.85 1410.8C1079.21 1419.02 1027.22 1455.41 988.514 1513.3C952.461 1567.23 882.543 1599.63 801.503 1600H800.034V1506.28H801.096C849.458 1506.06 892.446 1488.37 910.598 1461.19C964.239 1381.03 1039.03 1330.2 1121.2 1318.08C1146.81 1314.33 1170.62 1332.01 1174.4 1357.63C1178.18 1383.22 1160.47 1407.05 1134.85 1410.8Z" fill="#FF9468"/>
</g>
<defs>
<clipPath id="clip0">
<rect width="1600" height="1600" fill="white"/>
</clipPath>
</defs>
</svg>
