<svg width="1600" height="1600" viewBox="0 0 1600 1600" fill="none" xmlns="http://www.w3.org/2000/svg">
<path fill-rule="evenodd" clip-rule="evenodd" d="M1389.06 640.649C1415.72 640.649 1437.35 662.268 1437.35 688.928C1437.35 715.601 1415.72 737.219 1389.06 737.219H1321.45V909.473C1321.45 936.145 1299.83 957.764 1273.17 957.764C1246.5 957.764 1224.88 936.145 1224.88 909.473V688.928C1224.88 662.268 1246.5 640.649 1273.17 640.649H1389.06Z" fill="#DFF3FF"/>
<path d="M210.791 737.219C184.119 737.219 162.5 715.601 162.5 688.928C162.5 662.268 184.119 640.649 210.791 640.649H326.685C353.357 640.649 374.976 662.268 374.976 688.928V909.473C374.976 936.145 353.357 957.764 326.685 957.764C300.012 957.764 278.394 936.145 278.394 909.473V737.219H210.791Z" fill="#F2F2F2"/>
<path fill-rule="evenodd" clip-rule="evenodd" d="M686.474 0H913.378C1017.67 0 1104.89 68.4204 1115.1 159.57L1175.22 696.79C1179.56 735.62 1166.88 770.544 1137.15 799.524C1107.41 828.516 1069.15 843.457 1024.72 843.457H575.121C530.688 843.457 492.443 828.516 462.707 799.524C432.958 770.544 420.287 735.62 424.633 696.777L484.753 159.57C494.958 68.4082 582.177 0 686.474 0V0Z" fill="#00B4FF"/>
<path d="M423.267 1551.7C423.267 1578.36 401.648 1599.99 374.976 1599.99C348.303 1599.99 326.685 1578.36 326.685 1551.7V1480.87C326.685 1443.6 341.87 1409.79 366.345 1385.31C390.82 1360.84 424.634 1345.65 461.902 1345.65H751.636V1001.21C751.636 974.536 773.254 952.917 799.927 952.917C826.599 952.917 848.218 974.536 848.218 1001.21V1345.65H1137.94C1175.21 1345.65 1209.02 1360.84 1233.51 1385.31C1257.98 1409.79 1273.16 1443.6 1273.16 1480.87V1551.71C1273.16 1578.38 1251.54 1600 1224.87 1600C1198.21 1600 1176.59 1578.38 1176.59 1551.71V1480.87C1176.59 1470.26 1172.23 1460.61 1165.22 1453.6C1158.2 1446.58 1148.56 1442.24 1137.94 1442.24H848.218V1551.71C848.218 1578.38 826.599 1600 799.927 1600C773.254 1600 751.636 1578.38 751.636 1551.71V1442.24H461.902C451.294 1442.24 441.638 1446.58 434.631 1453.6C427.612 1460.61 423.267 1470.26 423.267 1480.87V1551.7Z" fill="#F2F2F2"/>
<path d="M799.927 952.917C826.599 952.917 848.218 974.536 848.218 1001.21V1345.65H1137.94C1175.21 1345.65 1209.02 1360.84 1233.51 1385.31C1257.98 1409.79 1273.16 1443.6 1273.16 1480.87V1551.71C1273.16 1578.38 1251.54 1600 1224.87 1600C1198.21 1600 1176.59 1578.38 1176.59 1551.71V1480.87C1176.59 1470.26 1172.23 1460.61 1165.22 1453.6C1158.2 1446.58 1148.56 1442.24 1137.94 1442.24H848.218V1551.71C848.218 1578.38 826.599 1600 799.927 1600V952.917Z" fill="#C6B7B4"/>
<path fill-rule="evenodd" clip-rule="evenodd" d="M799.927 0H913.379C1017.68 0 1104.89 68.4204 1115.1 159.57L1175.22 696.79C1179.57 735.62 1166.88 770.544 1137.15 799.524C1107.41 828.516 1069.15 843.457 1024.72 843.457H799.927V0Z" fill="#0082F5"/>
<path d="M1389.06 640.649C1415.72 640.649 1437.35 662.268 1437.35 688.928C1437.35 715.601 1415.72 737.219 1389.06 737.219H1321.45V909.473C1321.45 936.145 1299.83 957.764 1273.17 957.764C1246.5 957.764 1224.88 936.145 1224.88 909.473V688.928C1224.88 662.268 1246.5 640.649 1273.17 640.649H1389.06Z" fill="#C6B7B4"/>
<path fill-rule="evenodd" clip-rule="evenodd" d="M400.732 811.267H1199.12C1266.41 811.267 1321.45 866.321 1321.45 933.606C1321.45 1000.89 1266.41 1055.93 1199.12 1055.93H400.732C333.447 1055.93 278.394 1000.89 278.394 933.606C278.394 866.321 333.447 811.267 400.732 811.267Z" fill="#0082F5"/>
<path fill-rule="evenodd" clip-rule="evenodd" d="M799.927 811.267H1199.12C1266.41 811.267 1321.45 866.321 1321.45 933.606C1321.45 1000.89 1266.41 1055.93 1199.12 1055.93H799.927V811.267Z" fill="#0050BE"/>
</svg>
