<svg width="1600" height="1600" viewBox="0 0 1600 1600" fill="none" xmlns="http://www.w3.org/2000/svg">
<path d="M675.002 1600H565.624L518.749 1537.5L471.874 1600H362.502C338.383 1600 318.202 1581.7 315.849 1557.7L284.599 1238.95C283.308 1225.78 287.643 1212.69 296.524 1202.89C305.411 1193.09 318.027 1187.5 331.252 1187.5H706.252C719.477 1187.5 732.092 1193.09 740.977 1202.89C749.861 1212.69 754.192 1225.78 752.902 1238.95L721.652 1557.7C719.302 1581.7 699.121 1600 675.002 1600Z" fill="#FFBFAB"/>
<path d="M706.25 1187.5H518.75V1537.5L565.622 1600H675C699.119 1600 719.3 1581.7 721.653 1557.7L752.903 1238.95C754.194 1225.78 749.859 1212.69 740.978 1202.89C732.091 1193.09 719.475 1187.5 706.25 1187.5Z" fill="#FFB293"/>
<path d="M471.869 1187.5H565.619V1600H471.869V1187.5Z" fill="#FFB293"/>
<path d="M518.75 1187.5H565.622V1600H518.75V1187.5Z" fill="#FF9468"/>
<path d="M1300 1600H925C899.112 1600 878.125 1579.01 878.125 1553.12V984.375C878.125 958.487 899.112 937.5 925 937.5H1300C1325.89 937.5 1346.88 958.487 1346.88 984.375V1553.12C1346.88 1579.01 1325.89 1600 1300 1600Z" fill="#FF8659"/>
<path d="M1112.5 1171.88V1553.12" stroke="black" stroke-width="30" stroke-miterlimit="10" stroke-linecap="round" stroke-linejoin="round"/>
<path d="M1300 1600H925C899.112 1600 878.125 1579.01 878.125 1553.12V984.375C878.125 958.487 899.112 937.5 925 937.5H1300C1325.89 937.5 1346.88 958.487 1346.88 984.375V1553.12C1346.88 1579.01 1325.89 1600 1300 1600Z" fill="#00B4FF"/>
<path d="M1300 937.5H1112.5V1600H1300C1325.89 1600 1346.88 1579.01 1346.88 1553.12V984.375C1346.88 958.487 1325.89 937.5 1300 937.5Z" fill="#0082F5"/>
<path d="M1159.38 1600H1065.62V1171.88C1065.62 1145.99 1086.61 1125 1112.5 1125C1138.39 1125 1159.38 1145.99 1159.38 1171.88V1600Z" fill="#0082F5"/>
<path d="M1159.38 1171.88C1159.38 1145.99 1138.39 1125 1112.5 1125V1600H1159.38V1171.88Z" fill="#0050BE"/>
<path d="M1393.75 1031.25H831.25C805.362 1031.25 784.375 1010.26 784.375 984.375V858.647L640.691 590.625H157.812C106.9 590.625 65.625 549.35 65.625 498.438C65.625 447.525 106.9 406.25 157.812 406.25H707.566C739.303 406.25 770.363 397.45 797.597 381.153C872.656 336.238 958.55 312.5 1046.03 312.5H1112.5C1293.72 312.5 1440.62 459.406 1440.62 640.625V984.375C1440.62 1010.26 1419.64 1031.25 1393.75 1031.25Z" fill="#8E7D78"/>
<path d="M1393.75 1031.25C1419.64 1031.25 1440.62 1010.26 1440.62 984.375V640.625C1440.62 459.406 1293.72 312.5 1112.5 312.5V1031.25H1393.75Z" fill="#6B5C59"/>
<path d="M768.75 1281.25H268.75C242.862 1281.25 221.875 1260.26 221.875 1234.38V984.375C221.875 958.487 242.862 937.5 268.75 937.5H768.75C794.638 937.5 815.625 958.487 815.625 984.375V1234.38C815.625 1260.26 794.638 1281.25 768.75 1281.25Z" fill="#0082F5"/>
<path d="M768.75 937.5H518.75V1281.25H768.75C794.638 1281.25 815.625 1260.26 815.625 1234.38V984.375C815.625 958.487 794.638 937.5 768.75 937.5Z" fill="#0050BE"/>
<path d="M831.353 588.513H206.147C176.394 640.819 159.375 701.269 159.375 765.625V984.375C159.375 1010.26 180.362 1031.25 206.25 1031.25H831.25C857.138 1031.25 878.125 1010.26 878.125 984.375V765.625C878.125 701.269 861.106 640.819 831.353 588.513Z" fill="#FD4E26"/>
<path d="M518.75 588.513V1031.25H831.25C857.138 1031.25 878.125 1010.26 878.125 984.375V765.625C878.125 701.269 861.106 640.819 831.353 588.513H518.75Z" fill="#FD3018"/>
<path d="M336.459 646.353C353.456 646.353 370.409 643.784 386.793 638.794C419.896 676.334 467.496 698.438 518.75 698.438C570.003 698.438 617.603 676.334 650.706 638.794C667.09 643.784 684.043 646.353 701.04 646.353C750.234 646.353 797.703 625.272 831.353 588.513C769.496 479.763 652.553 406.25 518.75 406.25C384.946 406.25 268.003 479.763 206.146 588.513C239.796 625.272 287.265 646.353 336.459 646.353V646.353Z" fill="#E2DCDA"/>
<path d="M650.706 638.794C667.091 643.784 684.044 646.353 701.041 646.353C750.234 646.353 797.703 625.272 831.353 588.513C769.497 479.763 652.553 406.25 518.75 406.25V698.438C570.003 698.438 617.603 676.334 650.706 638.794Z" fill="#C6B7B4"/>
<path d="M362.5 46.875C310.722 46.875 268.75 88.8469 268.75 140.625C268.75 192.4 310.722 234.375 362.5 234.375C367.281 234.375 371.869 233.659 376.456 232.969L454.844 154.581C455.534 149.994 456.25 145.406 456.25 140.625C456.25 88.8469 414.278 46.875 362.5 46.875V46.875Z" fill="#C6B7B4"/>
<path d="M1112.5 359.375C1013.42 359.375 932.812 278.766 932.812 179.688C932.812 80.6094 1013.42 0 1112.5 0C1211.58 0 1292.19 80.6094 1292.19 179.688C1292.19 278.766 1211.58 359.375 1112.5 359.375Z" fill="#FFB293"/>
<path d="M1112.5 0V359.375C1211.58 359.375 1292.19 278.766 1292.19 179.688C1292.19 80.6094 1211.58 0 1112.5 0Z" fill="#FF9468"/>
<path d="M1553.12 1600C1527.24 1600 1506.25 1579.01 1506.25 1553.12V1078.12C1506.25 1052.28 1485.22 1031.25 1459.38 1031.25H1396.88C1370.99 1031.25 1350 1010.26 1350 984.375C1350 958.487 1370.99 937.5 1396.88 937.5H1459.38C1536.92 937.5 1600 1000.58 1600 1078.12V1553.12C1600 1579.01 1579.01 1600 1553.12 1600Z" fill="#784033"/>
<path d="M518.75 453.125C419.672 453.125 339.062 372.519 339.062 273.438C339.062 174.356 419.672 93.75 518.75 93.75C617.828 93.75 698.438 174.356 698.438 273.438C698.438 372.519 617.828 453.125 518.75 453.125Z" fill="#FFB293"/>
<path d="M518.75 93.75V453.125C617.828 453.125 698.438 372.519 698.438 273.438C698.438 174.356 617.828 93.75 518.75 93.75Z" fill="#FF9468"/>
<path d="M46.875 1600C20.9875 1600 0 1579.01 0 1553.12V1078.12C0 1000.58 63.0844 937.5 140.625 937.5H206.25C232.138 937.5 253.125 958.487 253.125 984.375C253.125 1010.26 232.138 1031.25 206.25 1031.25H140.625C114.778 1031.25 93.75 1052.28 93.75 1078.12V1553.12C93.75 1579.01 72.7625 1600 46.875 1600Z" fill="#A55C4F"/>
</svg>
