<svg width="1600" height="1600" viewBox="0 0 1600 1600" fill="none" xmlns="http://www.w3.org/2000/svg">
<path d="M799.999 1600C605.446 1600 447.168 1441.72 447.168 1247.17C447.168 1052.62 605.446 894.337 799.999 894.337C994.552 894.337 1152.83 1052.62 1152.83 1247.17C1152.83 1441.72 994.552 1600 799.999 1600ZM799.999 988.087C657.14 988.087 540.918 1104.31 540.918 1247.17C540.918 1390.03 657.14 1506.25 799.999 1506.25C942.859 1506.25 1059.08 1390.03 1059.08 1247.17C1059.08 1104.31 942.859 988.087 799.999 988.087Z" fill="#6B5C59"/>
<path d="M1059.08 1247.17C1059.08 1390.03 942.859 1506.25 800 1506.25V1600C994.553 1600 1152.83 1441.72 1152.83 1247.17C1152.83 1052.62 994.553 894.337 800 894.337V988.087C942.859 988.087 1059.08 1104.31 1059.08 1247.17Z" fill="#3A3331"/>
<path d="M800 1071.88C712.119 1071.88 640.625 1000.38 640.625 912.5V800C640.625 774.112 661.612 753.125 687.5 753.125H912.5C938.388 753.125 959.375 774.112 959.375 800V912.5C959.375 1000.38 887.878 1071.88 800 1071.88Z" fill="#00B4FF"/>
<path d="M912.5 753.125H800V1071.88C887.878 1071.88 959.375 1000.38 959.375 912.5V800C959.375 774.112 938.388 753.125 912.5 753.125Z" fill="#0082F5"/>
<path d="M941.212 658.594H658.79C632.902 658.594 611.915 637.606 611.915 611.719V436.272C566.809 388.459 541.309 324.875 541.309 258.691C541.309 116.05 657.356 0 799.999 0C942.643 0 1058.69 116.05 1058.69 258.691C1058.69 324.875 1033.19 388.459 988.084 436.272V611.719C988.087 637.606 967.099 658.594 941.212 658.594Z" fill="#FEDB41"/>
<path d="M941.212 658.594C967.1 658.594 988.088 637.606 988.088 611.719V436.272C1033.19 388.459 1058.69 324.875 1058.69 258.691C1058.69 116.05 942.644 0 800 0V658.594H941.212Z" fill="#FEA832"/>
<path d="M1231.84 846.875H368.162C268.975 846.875 188.281 766.181 188.281 666.994C188.281 610.672 234.106 564.844 290.428 564.844H1309.57C1365.89 564.844 1411.72 610.669 1411.72 666.994C1411.72 766.181 1331.02 846.875 1231.84 846.875Z" fill="#0082F5"/>
<path d="M1309.57 564.844H800V846.875H1231.84C1331.02 846.875 1411.72 766.181 1411.72 666.994C1411.72 610.669 1365.89 564.844 1309.57 564.844Z" fill="#0050BE"/>
</svg>
