<svg width="1600" height="1600" viewBox="0 0 1600 1600" fill="none" xmlns="http://www.w3.org/2000/svg">
<path d="M800 565.625C515.934 565.625 284.375 797.184 284.375 1081.25C284.375 1365.32 515.934 1600 800 1600C1084.07 1600 1315.62 1365.32 1315.62 1081.25C1315.62 797.184 1084.07 565.625 800 565.625Z" fill="#C18678"/>
<path d="M1315.62 1081.25C1315.62 1365.32 1084.07 1600 800 1600V565.625C1084.07 565.625 1315.62 797.184 1315.62 1081.25Z" fill="#A55C4F"/>
<path d="M1128.12 1034.38V1128.12C1128.12 1154.38 1107.5 1175 1081.25 1175H893.75V1362.5C893.75 1388.75 873.128 1409.38 846.875 1409.38H753.125C726.872 1409.38 706.25 1388.75 706.25 1362.5V1175H518.75C492.497 1175 471.875 1154.38 471.875 1128.12V1034.38C471.875 1008.12 492.497 987.5 518.75 987.5H706.25V800C706.25 773.747 726.872 753.125 753.125 753.125H846.875C873.128 753.125 893.75 773.747 893.75 800V987.5H1081.25C1107.5 987.5 1128.12 1008.12 1128.12 1034.38Z" fill="#FD4E26"/>
<path d="M1034.38 565.625C929.228 565.625 846.875 442.075 846.875 284.375C846.875 126.675 929.228 0 1034.38 0C1139.52 0 1221.88 126.675 1221.88 284.375C1221.88 442.075 1139.52 565.625 1034.38 565.625Z" fill="#A55C4F"/>
<path d="M1409.38 846.875C1305.97 846.875 1221.88 741.728 1221.88 612.5C1221.88 483.272 1305.97 378.125 1409.38 378.125C1512.78 378.125 1600 483.272 1600 612.5C1600 741.728 1512.78 846.875 1409.38 846.875Z" fill="#A55C4F"/>
<path d="M565.625 565.625C460.478 565.625 378.125 442.075 378.125 284.375C378.125 126.675 460.478 0 565.625 0C670.772 0 753.125 126.675 753.125 284.375C753.125 442.075 670.772 565.625 565.625 565.625Z" fill="#C18678"/>
<path d="M190.625 846.875C87.2156 846.875 0 741.728 0 612.5C0 483.272 87.2156 378.125 190.625 378.125C294.034 378.125 378.125 483.272 378.125 612.5C378.125 741.728 294.034 846.875 190.625 846.875Z" fill="#C18678"/>
<path d="M1128.12 1034.38V1128.12C1128.12 1154.38 1107.5 1175 1081.25 1175H893.75V1362.5C893.75 1388.75 873.128 1409.38 846.875 1409.38H800V753.125H846.875C873.128 753.125 893.75 773.747 893.75 800V987.5H1081.25C1107.5 987.5 1128.12 1008.12 1128.12 1034.38Z" fill="#FD3018"/>
</svg>
