<svg width="1600" height="1600" viewBox="0 0 1600 1600" fill="none" xmlns="http://www.w3.org/2000/svg">
<g clip-path="url(#clip0)">
<path d="M1122.5 682.812C1114.06 668.747 1098.12 659.375 1081.25 659.375H846.875V425C846.875 404.378 832.809 385.628 812.187 380.003C808.44 379.066 803.747 378.125 800 378.125C784.065 378.125 769.059 386.566 759.687 400.625L478.437 869.375C469.997 884.378 469.997 902.191 477.5 917.188C485.94 931.253 501.875 940.625 518.75 940.625H753.125V1175C753.125 1195.62 767.19 1214.37 787.812 1220C791.559 1220.93 796.253 1221.88 800 1221.88C815.934 1221.88 831.878 1213.43 840.312 1199.37L1121.56 730.625C1130 715.622 1130 697.809 1122.5 682.812Z" fill="#FEDB41"/>
<path d="M1121.56 730.625L840.312 1199.37C831.878 1213.43 815.938 1221.88 800 1221.88V378.125C803.747 378.125 808.441 379.062 812.187 380.003C832.809 385.628 846.875 404.378 846.875 425V659.375H1081.25C1098.13 659.375 1114.06 668.747 1122.5 682.812C1130 697.809 1130 715.622 1121.56 730.625Z" fill="#FEA832"/>
<path d="M1457.19 1114.06L1452.5 1255.62L1445.94 1437.5C1446.88 1455.31 1438.44 1473.12 1422.5 1481.56C1407.5 1490.93 1387.81 1490.93 1371.87 1479.68L1295 1424.37C1169.38 1527.5 989.379 1600 800.001 1600C650.004 1600 483.126 1550 343.438 1452.5L506.563 1332.5C593.751 1381.25 693.126 1409.38 800.001 1409.38C906.876 1409.38 1026.87 1378.43 1127.19 1312.81L1055 1265C1040.94 1254.69 1032.5 1237.81 1034.38 1220C1036.25 1203.13 1048.44 1188.13 1065.32 1181.57C1065.32 1181.57 1211.57 1132.81 1332.5 1093.44C1354.06 1086.88 1375.63 1079.38 1394.38 1073.75C1422.5 1061.56 1455.31 1083.13 1457.19 1114.06Z" fill="#408509"/>
<path d="M1457.19 1114.06L1452.5 1255.62L1445.94 1437.5C1446.88 1455.31 1438.43 1473.12 1422.5 1481.56C1407.5 1490.93 1387.81 1490.93 1371.87 1479.68L1295 1424.37C1169.38 1527.5 989.378 1600 800 1600V1409.38C906.875 1409.38 1026.87 1378.43 1127.19 1312.81L1055 1265C1040.94 1254.69 1032.5 1237.81 1034.38 1220C1036.25 1203.13 1048.44 1188.13 1065.32 1181.57C1065.32 1181.57 1211.57 1132.81 1332.5 1093.44C1354.06 1086.88 1375.63 1079.38 1394.38 1073.75C1422.5 1061.56 1455.31 1083.13 1457.19 1114.06Z" fill="#6ECD24"/>
<path d="M485.941 1457.19L343.438 1452.5L162.5 1445.94C144.688 1446.88 126.875 1438.43 118.434 1422.5C109.063 1407.5 109.063 1387.81 120.313 1371.87L175.628 1295C72.3531 1168.35 0 989.131 0 800C0 648.956 51.0094 481.878 147.497 343.438L267.5 506.563C218.306 594.019 190.625 693.059 190.625 800C190.625 906.878 219.981 1017.99 287.191 1127.19L334.997 1055C345.313 1040.94 362.188 1032.5 380 1034.38C396.875 1036.25 411.872 1048.44 418.434 1065.32C418.434 1065.32 467.188 1211.57 506.559 1332.5C513.122 1354.06 520.625 1375.63 526.25 1394.38C538.441 1422.5 516.872 1455.31 485.941 1457.19Z" fill="#6ECD24"/>
<path d="M1256.56 147.497L1093.44 267.5C1006.25 218.75 906.875 190.625 800 190.625C685.628 190.625 578.75 222.503 472.813 287.191L545.003 334.997C559.063 345.312 567.503 362.187 565.625 380C563.747 396.875 551.559 411.872 534.684 418.434C534.684 418.434 388.434 467.187 267.5 506.559C245.941 513.122 224.372 520.625 205.622 526.25C177.497 538.437 144.688 516.872 142.812 485.938L147.5 343.434L154.062 162.5C153.125 144.688 161.566 126.875 177.5 118.434C192.503 109.062 212.187 109.063 228.128 120.312L304.997 175.628C430.625 73.4375 610.622 0 800 0C950.938 0 1118.75 50.9375 1256.56 147.497Z" fill="#408509"/>
<path d="M1093.44 267.5C1006.25 218.75 906.875 190.625 800 190.625V0C950.937 0 1118.75 50.9375 1256.56 147.497L1093.44 267.5Z" fill="#6ECD24"/>
<path d="M1452.5 1255.63L1457.19 1114.06C1455.31 1083.13 1422.5 1061.56 1394.38 1073.75C1375.63 1079.38 1354.06 1086.88 1332.5 1093.44C1382.19 1005.32 1409.38 905.003 1409.38 800.003C1409.38 670.628 1372.82 570.316 1312.81 472.816L1265.01 545.006C1254.69 559.066 1237.82 567.506 1220 565.628C1203.13 563.75 1188.13 551.563 1181.57 534.688C1181.57 534.688 1132.82 388.438 1093.44 267.503C1086.88 245.944 1079.38 224.375 1073.75 205.625C1061.57 177.5 1083.13 144.691 1114.07 142.816L1256.57 147.503L1437.51 154.066C1455.32 153.128 1473.13 161.569 1481.57 177.503C1490.94 192.506 1490.94 212.191 1479.69 228.131L1424.38 305C1527.5 431.563 1600 610.622 1600 800C1600 968.75 1543.44 1125.31 1452.5 1255.63Z" fill="#98D400"/>
</g>
<defs>
<clipPath id="clip0">
<rect width="1600" height="1600" fill="white"/>
</clipPath>
</defs>
</svg>
