<svg width="1600" height="1600" viewBox="0 0 1600 1600" fill="none" xmlns="http://www.w3.org/2000/svg">
<g clip-path="url(#clip0)">
<path d="M1378.12 719.791V328.125C1378.12 320.159 1376.1 312.322 1372.22 305.363L1215.97 24.1125C1207.71 9.22813 1192.02 0 1175 0L1112.5 646.875L1378.12 719.791Z" fill="#C6B7B4"/>
<path d="M971.875 990.625V1247.79C986.675 1243.14 1002.42 1240.62 1018.75 1240.62C1105.04 1240.62 1175 1310.58 1175 1396.88L1237.5 943.75H1018.75C992.862 943.75 971.875 964.737 971.875 990.625V990.625Z" fill="#C6B7B4"/>
<path d="M1175 584.375V0C1157.98 0 1142.29 9.22813 1134.03 24.1125L977.775 305.363C973.903 312.322 971.875 320.159 971.875 328.125V990.625H1175V1396.88C1175 1310.58 1244.96 1240.62 1331.25 1240.62C1347.58 1240.62 1363.32 1243.14 1378.12 1247.79V719.791L1175 584.375Z" fill="#F2F2F2"/>
<path d="M1175 990.625V1396.88C1175 1310.58 1244.96 1240.62 1331.25 1240.62C1347.58 1240.62 1363.32 1243.14 1378.12 1247.79V719.791L1175 584.375V990.625Z" fill="#E2DCDA"/>
<path d="M1175 850C1200.89 850 1221.88 829.013 1221.88 803.125C1221.88 777.237 1200.89 756.25 1175 756.25C1149.11 756.25 1128.12 777.237 1128.12 803.125C1128.12 829.013 1149.11 850 1175 850Z" fill="#6B5C59"/>
<path d="M1221.88 803.125C1221.88 777.237 1200.89 756.25 1175 756.25V850C1200.89 850 1221.88 829.013 1221.88 803.125Z" fill="#3A3331"/>
<path d="M1331.25 1193.75C1268.49 1193.75 1212.29 1222.38 1175 1267.24C1137.71 1222.38 1081.51 1193.75 1018.75 1193.75C906.747 1193.75 815.625 1284.87 815.625 1396.88C815.625 1508.88 906.747 1600 1018.75 1600C1081.51 1600 1137.71 1571.37 1175 1526.51C1212.29 1571.37 1268.49 1600 1331.25 1600C1443.25 1600 1534.38 1508.88 1534.38 1396.88C1534.38 1284.87 1443.25 1193.75 1331.25 1193.75ZM1018.75 1506.25C958.441 1506.25 909.375 1457.18 909.375 1396.88C909.375 1336.57 958.441 1287.5 1018.75 1287.5C1079.06 1287.5 1128.12 1336.57 1128.12 1396.88C1128.12 1457.18 1079.06 1506.25 1018.75 1506.25ZM1331.25 1506.25C1270.94 1506.25 1221.88 1457.18 1221.88 1396.88C1221.88 1336.57 1270.94 1287.5 1331.25 1287.5C1391.56 1287.5 1440.62 1336.57 1440.62 1396.88C1440.62 1457.18 1391.56 1506.25 1331.25 1506.25Z" fill="#98D400"/>
<path d="M1331.25 1600C1443.25 1600 1534.38 1508.88 1534.38 1396.88C1534.38 1284.87 1443.25 1193.75 1331.25 1193.75C1268.49 1193.75 1212.29 1222.38 1175 1267.24V1526.51C1212.29 1571.37 1268.49 1600 1331.25 1600ZM1331.25 1287.5C1391.56 1287.5 1440.62 1336.57 1440.62 1396.88C1440.62 1457.18 1391.56 1506.25 1331.25 1506.25C1270.94 1506.25 1221.88 1457.18 1221.88 1396.88C1221.88 1336.57 1270.94 1287.5 1331.25 1287.5Z" fill="#6ECD24"/>
<path d="M315.625 0H673.675C698.916 0 720.634 19.3969 721.822 44.6094C723.091 71.5281 701.641 93.75 675 93.75H315.625C289.737 93.75 268.75 72.7625 268.75 46.875C268.75 20.9875 289.737 0 315.625 0Z" fill="#00B4FF"/>
<path d="M675 282.031H300C274.112 282.031 253.125 261.044 253.125 235.156C253.125 209.269 274.112 188.281 300 188.281H675C700.888 188.281 721.875 209.269 721.875 235.156C721.875 261.044 700.888 282.031 675 282.031Z" fill="#00B4FF"/>
<path d="M675 470.312H300C274.112 470.312 253.125 449.325 253.125 423.438C253.125 397.55 274.112 376.562 300 376.562H675C700.888 376.562 721.875 397.55 721.875 423.438C721.875 449.325 700.888 470.312 675 470.312Z" fill="#00B4FF"/>
<path d="M675 658.594H300C274.112 658.594 253.125 637.606 253.125 611.719C253.125 585.831 274.112 564.844 300 564.844H675C700.888 564.844 721.875 585.831 721.875 611.719C721.875 637.606 700.888 658.594 675 658.594Z" fill="#00B4FF"/>
<path d="M675 846.875H300C274.112 846.875 253.125 825.888 253.125 800C253.125 774.112 274.112 753.125 300 753.125H675C700.888 753.125 721.875 774.112 721.875 800C721.875 825.888 700.888 846.875 675 846.875Z" fill="#00B4FF"/>
<path d="M300 846.875H675C700.888 846.875 721.875 825.888 721.875 800H253.125C253.125 825.888 274.112 846.875 300 846.875Z" fill="#0082F5"/>
<path d="M675 1035.16H300C274.112 1035.16 253.125 1014.17 253.125 988.281C253.125 962.394 274.112 941.406 300 941.406H675C700.888 941.406 721.875 962.394 721.875 988.281C721.875 1014.17 700.888 1035.16 675 1035.16Z" fill="#0082F5"/>
<path d="M675 1223.44H300C274.112 1223.44 253.125 1202.45 253.125 1176.56C253.125 1150.67 274.112 1129.69 300 1129.69H675C700.888 1129.69 721.875 1150.67 721.875 1176.56C721.875 1202.45 700.888 1223.44 675 1223.44Z" fill="#0082F5"/>
<path d="M675 1411.72H300C274.112 1411.72 253.125 1390.73 253.125 1364.84C253.125 1338.96 274.112 1317.97 300 1317.97H675C700.888 1317.97 721.875 1338.96 721.875 1364.84C721.875 1390.73 700.888 1411.72 675 1411.72Z" fill="#0082F5"/>
<path d="M315.625 1506.25H673.675C698.916 1506.25 720.634 1525.65 721.822 1550.86C723.091 1577.78 701.641 1600 675 1600H315.625C289.737 1600 268.75 1579.01 268.75 1553.12C268.75 1527.24 289.737 1506.25 315.625 1506.25Z" fill="#0082F5"/>
<path d="M268.75 0C156.569 0 65.625 90.9438 65.625 203.125V1396.88C65.625 1509.06 156.566 1600 268.75 1600H315.625V0H268.75Z" fill="#00B4FF"/>
<path d="M65.625 800V1396.88C65.625 1509.06 156.566 1600 268.75 1600H315.625V800H65.625Z" fill="#0082F5"/>
</g>
<defs>
<clipPath id="clip0">
<rect width="1600" height="1600" fill="white"/>
</clipPath>
</defs>
</svg>
