<svg width="1600" height="1600" viewBox="0 0 1600 1600" fill="none" xmlns="http://www.w3.org/2000/svg">
<path d="M1412.33 749.792V1552.69C1412.33 1578.93 1391.71 1599.55 1365.47 1599.55H234.533C208.288 1599.55 187.67 1578.93 187.67 1552.69V749.792L799.999 187.451L1412.33 749.792Z" fill="#F2F2F2"/>
<path d="M1412.33 749.792V1552.69C1412.33 1578.93 1391.71 1599.55 1365.47 1599.55H800V187.451L1412.33 749.792Z" fill="#E2DCDA"/>
<path d="M1224.88 140.588H1412.33V609.204H1224.88V140.588Z" fill="#784033"/>
<path d="M1588.52 757.288L1526.66 827.576C1509.79 847.266 1479.81 849.133 1460.12 832.263L799.998 233.374L139.878 832.263C120.188 849.133 90.2076 847.266 73.3375 827.576L11.4722 757.288C-5.39787 737.598 -3.51799 707.617 16.1597 690.747L769.065 12.1826C777.512 3.74756 788.755 0 799.998 0C811.252 0 822.495 3.74756 830.93 12.1826L1583.85 690.747C1603.51 707.617 1605.39 737.598 1588.52 757.288Z" fill="#FF873C"/>
<path d="M1588.53 757.288L1526.66 827.576C1509.79 847.266 1479.81 849.133 1460.12 832.263L800 233.374V0C811.243 0 822.498 3.74756 830.933 12.1826L1583.84 690.747C1603.52 707.617 1605.4 737.598 1588.53 757.288Z" fill="#FD4E26"/>
<path d="M1459.19 187.451H1178.02C1152.11 187.451 1131.15 166.492 1131.15 140.588C1131.15 114.685 1152.11 93.7256 1178.02 93.7256H1459.19C1485.1 93.7256 1506.05 114.685 1506.05 140.588C1506.05 166.492 1485.1 187.451 1459.19 187.451Z" fill="#A55C4F"/>
<path d="M1034.31 796.655V890.381C1034.31 916.614 1013.7 937.244 987.451 937.244C961.206 937.244 940.588 916.614 940.588 890.381V796.655C940.588 718.86 877.795 656.067 800 656.067C722.204 656.067 659.411 718.86 659.411 796.655V890.381C659.411 916.614 638.793 937.244 612.548 937.244C586.303 937.244 565.686 916.614 565.686 890.381V796.655C565.686 667.31 670.666 562.341 800 562.341C929.333 562.341 1034.31 667.31 1034.31 796.655Z" fill="#6B5C59"/>
<path d="M1034.31 796.655V890.381C1034.31 916.614 1013.7 937.244 987.451 937.244C961.206 937.244 940.588 916.614 940.588 890.381V796.655C940.588 718.86 877.795 656.067 800 656.067V562.341C929.333 562.341 1034.31 667.31 1034.31 796.655Z" fill="#3A3331"/>
<path d="M1084.29 843.518H518.835C492.578 843.518 471.973 864.136 471.973 890.381V1359C471.973 1385.23 492.578 1405.86 518.835 1405.86H1084.29C1110.53 1405.86 1131.15 1385.23 1131.15 1359V890.381C1131.15 864.136 1110.53 843.518 1084.29 843.518Z" fill="#FF873C"/>
<path d="M1131.15 890.381V1359C1131.15 1385.23 1110.53 1405.86 1084.29 1405.86H800V843.518H1084.29C1110.53 843.518 1131.15 864.136 1131.15 890.381Z" fill="#FD4E26"/>
<path d="M940.587 1077.82C940.587 1104.06 919.969 1124.68 893.724 1124.68H846.861V1171.55C846.861 1197.79 826.244 1218.41 799.999 1218.41C773.753 1218.41 753.136 1197.79 753.136 1171.55V1124.68H706.273C680.028 1124.68 659.41 1104.06 659.41 1077.82C659.41 1051.57 680.028 1030.96 706.273 1030.96H893.724C919.969 1030.96 940.587 1051.57 940.587 1077.82Z" fill="#6B5C59"/>
<path d="M940.588 1077.82C940.588 1104.06 919.971 1124.68 893.726 1124.68H846.863V1171.55C846.863 1197.79 826.245 1218.41 800 1218.41V1030.96H893.726C919.971 1030.96 940.588 1051.57 940.588 1077.82Z" fill="#3A3331"/>
</svg>
