<svg width="1600" height="1600" viewBox="0 0 1600 1600" fill="none" xmlns="http://www.w3.org/2000/svg">
<g clip-path="url(#clip0)">
<path d="M1496.05 1138.41C1485.14 1123.83 1466.68 1117.03 1448.93 1121.05C1397.77 1132.6 1345.07 1138.46 1292.31 1138.46C902.087 1138.46 584.616 820.991 584.616 430.769C584.616 310.491 615.366 191.669 673.537 87.15C682.391 71.2468 681.066 51.6218 670.159 37.05C659.253 22.4781 640.797 15.6812 623.044 19.6843C448.859 59.0312 290.725 157.569 177.775 297.15C63.1344 438.828 0 617.409 0 800C0 1013.69 83.2156 1214.58 234.312 1365.69C385.409 1516.79 586.312 1600 800 1600C1090.14 1600 1358.15 1442.32 1499.42 1188.51C1508.28 1172.61 1506.95 1152.98 1496.05 1138.41Z" fill="#FEDB41"/>
<path d="M1448.93 1121.05C1397.77 1132.6 1345.07 1138.46 1292.31 1138.46C1101.14 1138.46 927.472 1062.24 800 938.638V1600C1090.14 1600 1358.15 1442.32 1499.43 1188.51C1508.28 1172.61 1506.95 1152.98 1496.05 1138.41C1485.13 1123.83 1466.68 1117.02 1448.93 1121.05Z" fill="#FEA832"/>
<path d="M1169.23 784.616H861.537C842.868 784.616 826.04 773.372 818.896 756.122C811.756 738.875 815.703 719.022 828.903 705.822L1057.8 476.922H861.534C836.043 476.922 815.381 456.256 815.381 430.769C815.381 405.278 836.047 384.616 861.534 384.616H1169.23C1187.9 384.616 1204.72 395.859 1211.87 413.109C1219.01 430.356 1215.06 450.209 1201.86 463.409L972.962 692.313H1169.23C1194.72 692.313 1215.38 712.978 1215.38 738.466C1215.38 763.953 1194.72 784.616 1169.23 784.616Z" fill="#0082F5"/>
<path d="M1553.85 353.847H1292.31C1273.64 353.847 1256.81 342.603 1249.67 325.353C1242.53 308.106 1246.47 288.253 1259.67 275.053L1442.42 92.3063H1292.31C1266.82 92.3063 1246.16 71.6406 1246.16 46.1531C1246.16 20.6656 1266.82 0 1292.31 0H1553.84C1572.51 0 1589.34 11.2438 1596.48 28.4938C1603.62 45.7406 1599.68 65.5938 1586.48 78.7938L1403.73 261.541H1553.84C1579.33 261.541 1600 282.206 1600 307.694C1600 333.181 1579.33 353.847 1553.85 353.847Z" fill="#0082F5"/>
<path d="M1549.75 784.666H1384.59C1366.29 784.666 1349.71 773.847 1342.34 757.094C1334.97 740.341 1338.2 720.813 1350.57 707.322L1448.92 600.05H1384.59C1359.1 600.05 1338.44 579.384 1338.44 553.897C1338.44 528.406 1359.11 507.744 1384.59 507.744H1553.85C1572.15 507.744 1588.72 518.563 1596.09 535.316C1603.46 552.069 1600.23 571.597 1587.86 585.088L1489.52 692.359H1549.76C1575.25 692.359 1595.91 713.025 1595.91 738.513C1595.91 764 1575.25 784.666 1549.75 784.666Z" fill="#0082F5"/>
<path d="M800 1400C706.687 1400 630.769 1324.08 630.769 1230.77C630.769 1205.28 651.434 1184.62 676.922 1184.62C702.409 1184.62 723.075 1205.28 723.075 1230.77C723.075 1273.18 757.581 1307.69 799.997 1307.69C825.487 1307.69 846.15 1328.36 846.15 1353.84C846.15 1379.33 825.49 1400 800 1400Z" fill="#FEDB41"/>
<path d="M846.153 1353.85C846.153 1328.36 825.487 1307.69 800 1307.69V1400C825.491 1400 846.153 1379.33 846.153 1353.85Z" fill="#FEA832"/>
<path d="M369.231 1092.31C275.919 1092.31 200 1016.39 200 923.075C200 897.584 220.666 876.922 246.153 876.922C271.641 876.922 292.306 897.588 292.306 923.075C292.306 965.491 326.812 999.997 369.228 999.997C394.719 999.997 415.381 1020.66 415.381 1046.15C415.381 1071.64 394.719 1092.31 369.231 1092.31Z" fill="#FEDB41"/>
</g>
<defs>
<clipPath id="clip0">
<rect width="1600" height="1600" fill="white"/>
</clipPath>
</defs>
</svg>
