<svg width="1600" height="1600" viewBox="0 0 1600 1600" fill="none" xmlns="http://www.w3.org/2000/svg">
<path d="M1201.66 398.338L1198.54 335.181C1087.5 239.619 947.681 187.5 800 187.5V468.75C888.319 468.75 971.456 503.25 1034.1 565.897L1034.11 565.894L1034.1 565.897C1096.75 628.541 1131.25 711.681 1131.25 800C1131.25 888.319 1096.75 971.459 1034.1 1034.11C1015.8 1052.41 1015.8 1082.09 1034.1 1100.4L1166.62 1232.92C1175.78 1242.07 1187.77 1246.65 1199.77 1246.65C1211.76 1246.65 1223.76 1242.07 1232.91 1232.92C1348.72 1117.11 1412.5 963.366 1412.5 800C1412.5 652.322 1360.38 512.503 1264.82 401.466L1201.66 398.338Z" fill="#FEBF01"/>
<path d="M1365.69 234.313C1214.58 83.2156 1013.69 0 800 0C586.313 0 385.416 83.2156 234.313 234.313C83.2156 385.413 0 586.313 0 800C0 1013.69 83.2156 1214.59 234.313 1365.69C385.416 1516.78 586.313 1600 800 1600C1013.69 1600 1214.58 1516.78 1365.69 1365.69C1516.78 1214.59 1600 1013.69 1600 800C1600 586.313 1516.78 385.413 1365.69 234.313V234.313Z" fill="#F2F2F2"/>
<path d="M1365.69 234.313C1214.58 83.2156 1013.69 0 800 0V1600C1013.69 1600 1214.58 1516.78 1365.69 1365.69C1516.78 1214.59 1600 1013.69 1600 800C1600 586.313 1516.78 385.413 1365.69 234.313V234.313Z" fill="#E2DCDA"/>
<path d="M1201.66 398.337L1034.1 565.9C1096.75 628.541 1131.25 711.681 1131.25 800C1131.25 888.319 1096.75 971.459 1034.1 1034.11C1015.8 1052.41 1015.8 1082.09 1034.1 1100.4L1166.62 1232.92C1175.77 1242.07 1187.77 1246.65 1199.77 1246.65C1211.76 1246.65 1223.76 1242.07 1232.91 1232.92C1348.72 1117.11 1412.5 963.366 1412.5 800C1412.5 652.322 1360.38 512.503 1264.82 401.466L1201.66 398.337Z" fill="#FD3018"/>
<path d="M468.75 800C468.75 711.681 503.25 628.541 565.897 565.894C584.203 547.587 584.203 517.909 565.897 499.603L433.378 367.084C415.078 348.781 385.397 348.778 367.088 367.081C251.278 482.887 187.5 636.634 187.5 800C187.5 963.366 251.278 1117.11 367.088 1232.92C376.241 1242.07 388.238 1246.64 400.231 1246.64C412.228 1246.64 424.225 1242.07 433.375 1232.91L565.894 1100.39C584.2 1082.09 584.2 1052.41 565.894 1034.1C503.25 971.459 468.75 888.319 468.75 800Z" fill="#98D400"/>
<path d="M800.002 187.5C636.637 187.5 482.89 251.278 367.09 367.084L565.899 565.894C628.546 503.25 711.684 468.75 800.002 468.75C888.321 468.75 971.459 503.25 1034.11 565.897L1201.66 398.338L1198.54 335.181C1087.5 239.619 947.684 187.5 800.002 187.5V187.5Z" fill="#FEDB41"/>
<path d="M800 187.5V468.75C888.319 468.75 971.456 503.25 1034.1 565.897L1201.66 398.338L1198.54 335.181C1087.5 239.619 947.681 187.5 800 187.5V187.5Z" fill="#FF8C28"/>
<path d="M800 1318.75C765.39 1318.75 730.718 1315.28 696.949 1308.45C671.578 1303.32 655.171 1278.59 660.303 1253.21C665.44 1227.84 690.178 1211.44 715.546 1216.57C770.862 1227.76 829.134 1227.76 884.449 1216.57C909.856 1211.43 934.556 1227.84 939.693 1253.21C944.828 1278.59 928.421 1303.32 903.046 1308.45C869.281 1315.28 834.609 1318.75 800 1318.75Z" fill="#0082F5"/>
<path d="M939.694 1253.21C934.559 1227.84 909.856 1211.43 884.45 1216.56C856.791 1222.16 828.394 1224.96 800 1224.96V1318.75C834.609 1318.75 869.281 1315.28 903.05 1308.45C928.422 1303.32 944.828 1278.58 939.694 1253.21Z" fill="#0050BE"/>
<path d="M860.594 673.119C842.234 664.316 821.684 659.375 800 659.375C722.456 659.375 659.375 722.459 659.375 800C659.375 877.544 722.456 940.625 800 940.625C877.544 940.625 940.625 877.544 940.625 800C940.625 778.316 935.684 757.766 926.884 739.406L860.594 673.119Z" fill="#0082F5"/>
<path d="M1264.81 401.475C1254.67 389.681 1244.04 378.203 1232.92 367.085C1221.79 355.963 1210.32 345.335 1198.53 335.181L860.594 673.119C842.234 664.316 821.684 659.375 800 659.375V940.625C877.544 940.625 940.625 877.544 940.625 800C940.625 778.316 935.684 757.766 926.884 739.406L1264.81 401.475Z" fill="#0050BE"/>
</svg>
