<svg width="1600" height="1600" viewBox="0 0 1600 1600" fill="none" xmlns="http://www.w3.org/2000/svg">
<path d="M1034.38 1037.5C982.687 1037.5 940.625 995.438 940.625 943.75V866.594C940.625 799.719 976.25 731.719 1035.94 684.688C1097.12 636.531 1128.12 563.875 1128.12 468.75C1128.12 274.094 992.813 0 800 0C607.156 0 471.875 274.125 471.875 468.75C471.875 563.875 502.875 636.531 564.062 684.688C623.75 731.719 659.375 799.719 659.375 866.594V943.75C659.375 1030.94 719.219 1104.44 800 1125.31C815 1129.19 830.688 1131.25 846.875 1131.25H1034.38C1086.06 1131.25 1128.12 1173.31 1128.12 1225C1128.12 1276.69 1086.06 1318.75 1034.38 1318.75H612.5C483.281 1318.75 378.125 1423.91 378.125 1553.12C378.125 1579 399.125 1600 425 1600C450.875 1600 471.875 1579 471.875 1553.12C471.875 1475.59 534.969 1412.5 612.5 1412.5H1034.38C1137.75 1412.5 1221.88 1328.38 1221.88 1225C1221.88 1121.62 1137.75 1037.5 1034.38 1037.5Z" fill="#F2F2F2"/>
<path d="M1221.88 1225C1221.88 1328.38 1137.75 1412.5 1034.38 1412.5H800V1318.75H1034.38C1086.06 1318.75 1128.12 1276.69 1128.12 1225C1128.12 1173.31 1086.06 1131.25 1034.38 1131.25H846.875C830.688 1131.25 815 1129.19 800 1125.31V0C992.813 0 1128.12 274.094 1128.12 468.75C1128.12 563.875 1097.12 636.531 1035.94 684.688C976.25 731.719 940.625 799.719 940.625 866.594V943.75C940.625 995.438 982.687 1037.5 1034.38 1037.5C1137.75 1037.5 1221.88 1121.62 1221.88 1225Z" fill="#E2DCDA"/>
</svg>
