<svg width="1600" height="1600" viewBox="0 0 1600 1600" fill="none" xmlns="http://www.w3.org/2000/svg">
<g clip-path="url(#clip0)">
<path fill-rule="evenodd" clip-rule="evenodd" d="M1575.25 1555.38C1573.38 1179.9 1245.97 873.23 846.009 873.23H753.565C353.602 873.23 26.1895 1179.9 24.3232 1555.38H1575.25Z" fill="#8E7D78"/>
<path fill-rule="evenodd" clip-rule="evenodd" d="M799.786 1555.38H1575.25C1573.38 1179.9 1245.97 873.23 846.008 873.23H799.786V1555.38V1555.38Z" fill="#6B5C59"/>
<path d="M751.772 1462.07C743.525 1462.07 735.237 1459.96 727.749 1455.66L292.933 1206.02C278.521 1197.75 269.379 1182.64 268.733 1166.03L262.51 1005.13L39.2307 962.592C19.2231 958.779 3.76534 942.816 0.589476 922.702C-2.58638 902.585 7.21148 882.638 25.0697 872.853L463.76 632.476C476.142 625.69 490.876 624.666 504.078 629.676C517.28 634.69 527.625 645.228 532.39 658.52L797.216 1397.52C804.037 1416.56 798.265 1437.83 782.755 1450.81C773.871 1458.25 762.857 1462.07 751.772 1462.07Z" fill="#6B5C59"/>
<path d="M817.218 1450.81C801.708 1437.83 795.936 1416.56 802.757 1397.52L1067.58 658.523C1072.35 645.23 1082.69 634.693 1095.9 629.679C1109.1 624.669 1123.83 625.693 1136.21 632.479L1574.9 872.856C1592.76 882.641 1602.56 902.588 1599.38 922.705C1596.21 942.822 1580.75 958.785 1560.74 962.595L1337.46 1005.13L1331.24 1166.03C1330.6 1182.64 1321.46 1197.75 1307.04 1206.03L872.221 1455.66C864.733 1459.96 856.448 1462.07 848.198 1462.07C837.119 1462.07 826.105 1458.25 817.218 1450.81Z" fill="#00347B"/>
<path fill-rule="evenodd" clip-rule="evenodd" d="M812.654 292.012C886.976 292.012 943.215 181.114 1000.08 220.975C1090.7 284.492 1150.23 389.691 1150.23 508.115V637.013C1150.23 829.756 992.529 987.461 799.786 987.461C607.043 987.461 449.338 829.759 449.338 637.013V508.115C449.338 385.145 513.528 276.438 610.055 213.851C664.823 178.334 742.878 292.012 812.654 292.012Z" fill="#FFBFAB"/>
<path d="M1247.05 510.812H352.528C325.873 510.812 304.263 489.202 304.263 462.547C304.263 435.891 325.873 414.281 352.528 414.281H1247.05C1273.7 414.281 1295.31 435.891 1295.31 462.547C1295.31 489.202 1273.7 510.812 1247.05 510.812Z" fill="#6B5C59"/>
<path d="M1173.31 510.812H426.533C411.835 510.812 397.938 504.112 388.78 492.616C379.623 481.122 376.206 466.076 379.491 451.751C383.7 433.417 440.331 158.719 516.214 82.8428C548.397 50.6562 584.245 38.7186 622.761 47.3388C651.859 53.8578 676.941 71.3299 701.196 88.2228C732.7 110.164 762.454 130.889 799.924 130.889C838.224 130.889 868.853 110.277 901.278 88.4544C925.481 72.1633 950.515 55.3187 978.918 48.8994C1005.21 42.9499 1044.73 44.0181 1083.56 82.8492C1150.94 150.228 1213.1 425.472 1219.81 449.618C1223.86 464.152 1220.87 479.739 1211.74 491.753C1202.62 503.755 1188.4 510.812 1173.31 510.812Z" fill="#6B5C59"/>
<path d="M817.242 1451.07C801.733 1438.09 795.96 1416.81 802.782 1397.77L1067.61 658.774C1072.37 645.481 1082.72 634.943 1095.92 629.93C1109.13 624.92 1123.86 625.944 1136.24 632.73L1574.93 873.107C1592.79 882.892 1602.59 902.839 1599.41 922.956C1596.24 943.073 1580.77 959.036 1560.77 962.845L1337.49 1005.38L1331.27 1166.28C1330.62 1182.89 1321.48 1198 1307.06 1206.28L872.252 1455.91C864.764 1460.2 856.479 1462.31 848.229 1462.31C837.144 1462.32 826.133 1458.51 817.242 1451.07Z" fill="#3A3331"/>
<path fill-rule="evenodd" clip-rule="evenodd" d="M1000.08 220.972C943.218 181.111 886.976 292.009 812.653 292.009C808.438 292.009 804.191 291.584 799.921 290.815V987.455C992.603 987.381 1150.23 829.708 1150.23 637.01V508.112C1150.23 389.688 1090.7 284.489 1000.08 220.972Z" fill="#FF9468"/>
<path d="M1219.81 449.611C1213.1 425.465 1150.94 150.221 1083.56 82.8425C1044.73 44.0147 1005.21 42.9464 978.918 48.8927C950.516 55.312 925.485 72.1566 901.279 88.4478C868.854 110.27 838.225 130.883 799.924 130.883C799.876 130.883 799.834 130.879 799.786 130.879V510.812H1173.31C1188.4 510.812 1202.62 503.758 1211.74 491.747C1220.87 479.735 1223.86 464.145 1219.81 449.611Z" fill="#3A3331"/>
<path d="M1247.04 414.281H799.924V510.812H1247.04C1273.7 510.812 1295.31 489.202 1295.31 462.547C1295.31 435.891 1273.7 414.281 1247.04 414.281Z" fill="#3A3331"/>
</g>
<defs>
<clipPath id="clip0">
<rect width="1600" height="1600" fill="white"/>
</clipPath>
</defs>
</svg>
