<svg width="1600" height="1600" viewBox="0 0 1600 1600" fill="none" xmlns="http://www.w3.org/2000/svg">
<g clip-path="url(#clip0)">
<path d="M500 46.875V428.125C500 454.013 520.987 475 546.875 475C572.763 475 593.75 454.013 593.75 428.125V46.875H500Z" fill="#0050BE"/>
<path d="M250 428.125C250 454.013 270.987 475 296.875 475C322.763 475 343.75 454.013 343.75 428.125V46.875H250V428.125Z" fill="#0082F5"/>
<path d="M171.875 1600C145.987 1600 125 1579.01 125 1553.12V1459.38C125 1433.49 145.987 1412.5 171.875 1412.5C197.763 1412.5 218.75 1433.49 218.75 1459.38V1553.12C218.75 1579.01 197.763 1600 171.875 1600Z" fill="#0082F5"/>
<path d="M703.125 381.25H140.625C63.0844 381.25 0 444.334 0 521.875V1365.62C0 1443.17 63.0844 1506.25 140.625 1506.25H187.5L421.875 1365.62L656.25 1506.25H796.875C822.763 1506.25 843.75 1485.26 843.75 1459.38V521.875C843.75 444.334 780.666 381.25 703.125 381.25Z" fill="#FF873C"/>
<path d="M703.125 381.25H421.875V1365.62L656.25 1506.25H796.875C822.763 1506.25 843.75 1485.26 843.75 1459.38V521.875C843.75 444.334 780.666 381.25 703.125 381.25Z" fill="#FD4E26"/>
<path d="M234.375 975C208.487 975 187.5 954.013 187.5 928.125V615.625C187.5 589.737 208.487 568.75 234.375 568.75C260.263 568.75 281.25 589.737 281.25 615.625V928.125C281.25 954.013 260.263 975 234.375 975Z" fill="#FD4E26"/>
<path d="M609.375 975C583.487 975 562.5 954.013 562.5 928.125V615.625C562.5 589.737 583.487 568.75 609.375 568.75C635.263 568.75 656.25 589.737 656.25 615.625V928.125C656.25 954.013 635.263 975 609.375 975Z" fill="#FD3018"/>
<path d="M421.875 975C395.987 975 375 954.013 375 928.125V615.625C375 589.737 395.987 568.75 421.875 568.75C447.763 568.75 468.75 589.737 468.75 615.625V928.125C468.75 954.013 447.763 975 421.875 975Z" fill="#FD4E26"/>
<path d="M609.375 93.75H234.375C208.487 93.75 187.5 72.7625 187.5 46.875C187.5 20.9875 208.487 0 234.375 0H609.375C635.263 0 656.25 20.9875 656.25 46.875C656.25 72.7625 635.263 93.75 609.375 93.75Z" fill="#00B4FF"/>
<path d="M468.75 928.125V615.625C468.75 589.737 447.763 568.75 421.875 568.75V975C447.763 975 468.75 954.013 468.75 928.125Z" fill="#FD3018"/>
<path d="M656.25 46.875C656.25 20.9875 635.263 0 609.375 0H421.875V93.75H609.375C635.263 93.75 656.25 72.7625 656.25 46.875Z" fill="#FFF5F5"/>
<path d="M515.625 1178.12H328.125C250.459 1178.12 187.5 1241.08 187.5 1318.75V1506.25H656.25V1318.75C656.25 1241.08 593.291 1178.12 515.625 1178.12Z" fill="#FD4E26"/>
<path d="M515.625 1178.12H421.875V1506.25H656.25V1318.75C656.25 1241.08 593.291 1178.12 515.625 1178.12Z" fill="#FD3018"/>
<path d="M656.25 46.875C656.25 20.9875 635.263 0 609.375 0H421.875V93.75H609.375C635.263 93.75 656.25 72.7625 656.25 46.875Z" fill="#0082F5"/>
<path d="M1364.07 584.375H1332.82C1125.18 584.375 956.256 753.3 956.256 960.938V1115.62C956.256 1141.51 977.243 1162.5 1003.13 1162.5H1050.01V960.938C1050.01 804.994 1176.87 678.125 1332.82 678.125H1364.07C1397.67 678.125 1425.01 705.463 1425.01 739.062C1425.01 772.662 1397.67 800 1364.07 800C1259.82 800 1175.01 884.816 1175.01 989.062V1162.5H1221.88C1247.77 1162.5 1268.76 1141.51 1268.76 1115.62V989.062C1268.76 936.509 1311.51 893.75 1364.07 893.75C1449.36 893.75 1518.76 824.356 1518.76 739.062C1518.76 653.769 1449.36 584.375 1364.07 584.375Z" fill="#F2F2F2"/>
<path d="M1364.06 584.375H1332.81C1250.99 584.375 1175.19 610.622 1113.36 655.116V782.759C1165.26 718.959 1244.35 678.125 1332.81 678.125H1364.06C1397.66 678.125 1425 705.463 1425 739.062C1425 772.662 1397.66 800 1364.06 800C1259.81 800 1175 884.816 1175 989.062V1162.5H1221.88C1247.76 1162.5 1268.75 1141.51 1268.75 1115.62V989.062C1268.75 936.509 1311.51 893.75 1364.06 893.75C1449.36 893.75 1518.75 824.356 1518.75 739.062C1518.75 653.769 1449.36 584.375 1364.06 584.375Z" fill="#E2DCDA"/>
<path d="M1412.51 1068.75H812.506C786.618 1068.75 765.631 1089.74 765.631 1115.62V1553.12C765.631 1579.01 786.618 1600 812.506 1600H1412.51C1438.39 1600 1459.38 1579.01 1459.38 1553.12V1115.62C1459.38 1089.74 1438.39 1068.75 1412.51 1068.75Z" fill="#FF9468"/>
<path d="M1412.5 1068.75H1113.36V1600H1412.5C1438.39 1600 1459.38 1579.01 1459.38 1553.12V1115.62C1459.38 1089.74 1438.39 1068.75 1412.5 1068.75Z" fill="#A55C4F"/>
<path d="M1178.13 1381.25H1046.88C1020.99 1381.25 1000.01 1360.26 1000.01 1334.38C1000.01 1308.49 1020.99 1287.5 1046.88 1287.5H1178.13C1204.02 1287.5 1225.01 1308.49 1225.01 1334.38C1225.01 1360.26 1204.02 1381.25 1178.13 1381.25Z" fill="#A55C4F"/>
<path d="M734.375 1068.75C673.969 1068.75 625 1117.72 625 1178.12V1490.62C625 1551.03 673.969 1600 734.375 1600H812.5V1068.75H734.375Z" fill="#A55C4F"/>
<path d="M1490.63 1068.75H1412.51V1600H1490.63C1551.03 1600 1600 1551.03 1600 1490.62V1178.12C1600 1117.72 1551.03 1068.75 1490.63 1068.75Z" fill="#784033"/>
<path d="M1178.13 1287.5H1113.36V1381.25H1178.13C1204.01 1381.25 1225 1360.26 1225 1334.38C1225 1308.49 1204.01 1287.5 1178.13 1287.5Z" fill="#784033"/>
</g>
<defs>
<clipPath id="clip0">
<rect width="1600" height="1600" fill="white"/>
</clipPath>
</defs>
</svg>
