<svg width="1600" height="1600" viewBox="0 0 1600 1600" fill="none" xmlns="http://www.w3.org/2000/svg">
<g clip-path="url(#clip0)">
<path d="M1423.08 975.39H904.106C858.247 975.39 820.937 938.081 820.937 892.221V885.268C820.937 839.409 858.247 802.1 904.106 802.1H1392.86C1418.75 802.1 1439.74 781.112 1439.74 755.225C1439.74 729.337 1418.75 708.35 1392.86 708.35H904.106C806.553 708.35 727.187 787.715 727.187 885.268V892.221C727.187 989.775 806.553 1069.14 904.106 1069.14H1423.08C1468.94 1069.14 1506.25 1106.45 1506.25 1152.31C1506.25 1198.17 1468.94 1235.48 1423.08 1235.48H198.547C172.659 1235.48 151.672 1256.47 151.672 1282.35C151.672 1308.24 172.659 1329.23 198.547 1329.23H1423.08C1520.63 1329.23 1600 1249.86 1600 1152.31C1600 1054.76 1520.63 975.39 1423.08 975.39Z" fill="#3A3331"/>
<path d="M904.104 1069.14H1101.59V975.39H904.104C858.245 975.39 820.936 938.081 820.936 892.221V885.268C820.936 839.409 858.245 802.1 904.104 802.1H1101.59V708.35H904.104C806.551 708.35 727.186 787.715 727.186 885.268V892.221C727.186 989.771 806.554 1069.14 904.104 1069.14Z" fill="#6B5C59"/>
<path d="M1101.59 1235.48H198.547C172.659 1235.48 151.672 1256.47 151.672 1282.35C151.672 1308.24 172.659 1329.23 198.547 1329.23H1101.59V1235.48Z" fill="#6B5C59"/>
<path d="M321.781 1020.45C138.338 1020.45 0 1104.42 0 1215.78C0 1327.14 138.338 1411.12 321.781 1411.12C505.225 1411.12 643.563 1327.14 643.563 1215.78C643.563 1104.42 505.228 1020.45 321.781 1020.45Z" fill="#FEA832"/>
<path d="M321.781 1020.45C138.338 1020.45 0 1104.42 0 1215.78C0 1327.14 138.338 1411.12 321.781 1411.12V1020.45Z" fill="#FEDB41"/>
<path d="M555.999 518.122C503.124 440.662 415.567 394.416 321.783 394.416C227.999 394.416 140.442 440.659 87.5673 518.122C34.6954 595.581 23.5267 693.972 57.6985 781.312L207.777 1164.91C226.27 1212.18 271.017 1242.73 321.783 1242.73C372.549 1242.73 417.295 1212.19 435.789 1164.91L585.867 781.309C620.039 693.972 608.87 595.581 555.999 518.122Z" fill="#FD3018"/>
<path d="M321.783 394.419C227.995 394.419 140.442 440.663 87.5673 518.125C34.6954 595.585 23.5267 693.975 57.6985 781.316L207.777 1164.92C226.27 1212.19 271.017 1242.74 321.783 1242.74V394.419Z" fill="#FD4E26"/>
<path d="M1564.22 278.509C1525.91 222.387 1462.48 188.881 1394.53 188.881C1326.58 188.881 1263.14 222.387 1224.83 278.509C1186.52 334.631 1178.43 405.915 1203.19 469.197L1311.93 747.125C1325.33 781.375 1357.75 803.509 1394.53 803.509C1431.31 803.509 1463.73 781.375 1477.13 747.125L1585.86 469.194C1610.62 405.919 1602.53 334.631 1564.22 278.509Z" fill="#FD3018"/>
<path d="M1394.53 188.885C1326.58 188.885 1263.14 222.391 1224.83 278.513C1186.52 334.635 1178.43 405.919 1203.19 469.2L1311.93 747.128C1325.33 781.378 1357.75 803.513 1394.53 803.513V188.885Z" fill="#FD4E26"/>
</g>
<defs>
<clipPath id="clip0">
<rect width="1600" height="1600" fill="white"/>
</clipPath>
</defs>
</svg>
