<svg width="1600" height="1600" viewBox="0 0 1600 1600" fill="none" xmlns="http://www.w3.org/2000/svg">
<g clip-path="url(#clip0)">
<path d="M1586.95 832.328C1583.35 836.062 1497.26 924.84 1357.94 1014.3C1172.04 1133.68 979.098 1196.78 800.002 1196.78C620.905 1196.78 427.967 1133.68 242.058 1014.3C102.745 924.84 16.6484 836.062 13.0547 832.328C-4.35156 814.275 -4.35156 785.728 13.0547 767.675C16.6484 763.941 102.742 675.162 242.058 585.7C427.967 466.322 620.905 403.225 800.002 403.225C979.098 403.225 1172.04 466.322 1357.95 585.7C1497.26 675.162 1583.35 763.941 1586.95 767.675C1604.35 785.728 1604.35 814.272 1586.95 832.328V832.328Z" fill="#F2F2F2"/>
<path d="M1586.94 832.328C1583.35 836.063 1497.26 924.841 1357.94 1014.3C1172.03 1133.68 979.097 1196.78 800 1196.78V403.222C979.097 403.222 1172.03 466.319 1357.94 585.697C1497.26 675.159 1583.35 763.937 1586.95 767.672C1604.35 785.728 1604.35 814.272 1586.94 832.328V832.328Z" fill="#E2DCDA"/>
<path d="M1198.35 800.016C1198.35 1018.78 1019.66 1196.78 800.001 1196.78C580.342 1196.78 401.654 1018.79 401.654 800.016C401.654 581.216 580.342 403.222 800.001 403.222C1019.66 403.222 1198.35 581.216 1198.35 800.016Z" fill="#00B4FF"/>
<path d="M1198.35 800.016C1198.35 1018.78 1019.66 1196.78 800 1196.78V403.222C1019.66 403.222 1198.35 581.216 1198.35 800.016Z" fill="#0082F5"/>
<path d="M977.875 800.016C977.875 897.353 898.656 976.638 801.031 977.197H800C701.906 977.197 622.125 897.694 622.125 800.016C622.125 702.303 701.906 622.803 800 622.803H801.031C898.656 623.363 977.875 702.647 977.875 800.016V800.016Z" fill="#6B5C59"/>
<path d="M1308.78 381.21C1320.77 381.21 1332.77 376.65 1341.92 367.535L1427.53 282.266C1445.83 264.031 1445.83 234.466 1427.53 216.231C1409.22 197.997 1379.54 197.997 1361.24 216.231L1275.63 301.5C1257.33 319.735 1257.33 349.3 1275.63 367.531C1284.78 376.653 1296.78 381.21 1308.78 381.21V381.21Z" fill="#FEA832"/>
<path d="M1095.08 356.419C1099.82 357.925 1104.62 358.641 1109.34 358.641C1129.19 358.641 1147.63 345.975 1153.98 326.128L1195.39 196.834C1203.26 172.266 1189.65 145.997 1164.98 138.159C1140.33 130.328 1113.95 143.884 1106.08 168.453L1064.67 297.747C1056.8 322.313 1070.41 348.581 1095.08 356.419Z" fill="#FEA832"/>
<path d="M238.772 218.253C220.472 200.019 190.788 200.019 172.482 218.253C154.175 236.488 154.175 266.05 172.482 284.284L258.085 369.553C267.238 378.672 279.235 383.228 291.232 383.228C303.225 383.228 315.225 378.669 324.379 369.553C342.685 351.319 342.685 321.753 324.379 303.519L238.772 218.253Z" fill="#FEDB41"/>
<path d="M493.933 170.475C486.064 145.906 459.692 132.35 435.026 140.181C410.364 148.019 396.748 174.287 404.617 198.856L446.026 328.147C452.383 347.997 470.817 360.659 490.67 360.659C495.392 360.659 500.192 359.944 504.93 358.437C529.595 350.6 543.211 324.331 535.342 299.762L493.933 170.475Z" fill="#FEDB41"/>
<path d="M1341.92 1232.47C1323.62 1214.23 1293.94 1214.23 1275.63 1232.47C1257.33 1250.7 1257.33 1280.26 1275.63 1298.5L1361.24 1383.77C1370.39 1392.88 1382.39 1397.44 1394.38 1397.44C1406.38 1397.44 1418.38 1392.88 1427.53 1383.77C1445.84 1365.53 1445.84 1335.97 1427.53 1317.73L1341.92 1232.47Z" fill="#FEA832"/>
<path d="M1153.98 1273.87C1146.11 1249.31 1119.74 1235.75 1095.08 1243.58C1070.41 1251.42 1056.8 1277.69 1064.67 1302.26L1106.08 1431.55C1112.43 1451.4 1130.87 1464.06 1150.72 1464.06C1155.44 1464.06 1160.24 1463.34 1164.98 1461.84C1189.65 1454 1203.26 1427.73 1195.39 1403.16L1153.98 1273.87Z" fill="#FEA832"/>
<path d="M258.085 1230.44L172.482 1315.71C154.175 1333.94 154.175 1363.51 172.482 1381.74C181.635 1390.86 193.632 1395.42 205.629 1395.42C217.625 1395.42 229.622 1390.86 238.775 1381.74L324.379 1296.48C342.685 1278.24 342.685 1248.68 324.379 1230.44C306.072 1212.21 276.391 1212.21 258.085 1230.44V1230.44Z" fill="#FEDB41"/>
<path d="M504.929 1241.56C480.276 1233.72 453.894 1247.28 446.026 1271.85L404.616 1401.14C396.744 1425.71 410.363 1451.98 435.029 1459.82C439.766 1461.33 444.566 1462.04 449.288 1462.04C469.141 1462.04 487.576 1449.38 493.932 1429.53L535.341 1300.23C543.21 1275.67 529.594 1249.4 504.929 1241.56V1241.56Z" fill="#FEDB41"/>
<path d="M977.875 800.016C977.875 897.353 898.656 976.638 801.031 977.197V622.803C898.656 623.363 977.875 702.647 977.875 800.016V800.016Z" fill="#3A3331"/>
</g>
<defs>
<clipPath id="clip0">
<rect width="1600" height="1600" fill="white"/>
</clipPath>
</defs>
</svg>
