<svg width="1600" height="1600" viewBox="0 0 1600 1600" fill="none" xmlns="http://www.w3.org/2000/svg">
<path d="M802.5 1600H797.5C442.353 1600 206.446 1232.03 354.128 909.116L757.371 27.3781C765.003 10.6969 781.659 0 800 0C818.34 0 834.996 10.6969 842.628 27.3781L1245.87 909.112C1393.59 1232.12 1157.57 1600 802.5 1600Z" fill="#00B4FF"/>
<path d="M1245.87 909.116L842.628 27.3781C834.997 10.6969 818.341 0 800 0V1600H802.5C1157.57 1600 1393.59 1232.12 1245.87 909.116Z" fill="#0082F5"/>
<path d="M1203.1 815.597C1190.92 815.6 1179.15 816 1167.8 816.825C1076.16 823.5 1023.37 856.237 976.807 885.125C928.832 914.884 887.401 940.584 799.998 940.584C712.595 940.584 671.163 914.884 623.188 885.125C576.62 856.237 523.838 823.5 432.198 816.825C420.848 816 409.079 815.6 396.892 815.597L354.126 909.112C206.41 1232.12 442.432 1600 797.501 1600H802.501C1157.65 1600 1393.55 1232.03 1245.87 909.116L1203.1 815.597Z" fill="#0082F5"/>
<path d="M1245.87 909.116L1203.1 815.6C1190.92 815.603 1179.15 816.003 1167.8 816.828C1076.16 823.503 1023.37 856.241 976.809 885.128C928.834 914.888 887.403 940.588 800.003 940.588V1600H802.503C1157.65 1600 1393.55 1232.03 1245.87 909.116Z" fill="#0050BE"/>
</svg>
