<svg width="1600" height="1600" viewBox="0 0 1600 1600" fill="none" xmlns="http://www.w3.org/2000/svg">
<path d="M1535.31 1384.36L1362.28 594.777C1344.55 513.89 1271.59 455.183 1188.78 455.183H986.821C1035.68 406.921 1066.02 339.959 1066.02 266.024C1066.02 119.337 946.687 0 800.002 0C653.318 0 533.981 119.337 533.981 266.021C533.981 339.959 564.325 406.924 613.184 455.18H411.225C328.419 455.18 255.457 513.887 237.728 594.774L64.6882 1384.36C53.1163 1437.17 65.91 1491.61 99.8006 1533.73C133.688 1575.84 184.125 1600 238.182 1600H1361.82C1415.88 1600 1466.32 1575.85 1500.2 1533.73C1534.09 1491.61 1546.89 1437.17 1535.31 1384.36ZM800.002 386.134C733.771 386.134 679.89 332.249 679.89 266.021C679.89 199.793 733.774 145.909 800.002 145.909C866.23 145.909 920.115 199.793 920.115 266.021C920.112 332.252 866.234 386.134 800.002 386.134Z" fill="#6B5C59"/>
<path d="M679.89 266.021C679.89 199.79 733.774 145.909 800.002 145.909V0C653.315 0 533.981 119.337 533.981 266.021C533.981 339.959 564.325 406.924 613.184 455.18H411.225C328.419 455.18 255.457 513.887 237.728 594.774L64.6882 1384.36C53.1163 1437.17 65.91 1491.61 99.8006 1533.73C133.688 1575.84 184.125 1600 238.182 1600H799.999V386.134C733.771 386.134 679.89 332.252 679.89 266.021Z" fill="#8E7D78"/>
<path d="M580.041 815.027C561.444 809.589 541.494 817.086 531.066 833.42L452.572 956.364C439.613 976.664 445.563 1003.62 465.86 1016.58C485.219 1028.95 510.659 1024.11 524.209 1005.99V1213.2C524.209 1237.28 543.734 1256.81 567.816 1256.81C591.9 1256.81 611.422 1237.28 611.422 1213.2V856.883C611.425 837.508 598.644 820.458 580.041 815.027Z" fill="#C6B7B4"/>
<path d="M898.084 1184.94L768.25 1032.37L897.224 889.651C913.371 871.786 911.978 844.211 894.109 828.061C876.243 811.917 848.668 813.305 832.518 831.177L738.431 935.292V856.883C738.431 832.798 718.906 813.277 694.825 813.277C670.744 813.277 651.219 832.802 651.219 856.883V1213.2C651.219 1237.28 670.744 1256.81 694.825 1256.81C718.906 1256.81 738.431 1237.28 738.431 1213.2V1131.9L831.662 1241.46C840.29 1251.6 852.553 1256.81 864.893 1256.8C874.884 1256.8 884.931 1253.39 893.134 1246.41C911.474 1230.8 913.69 1203.28 898.084 1184.94Z" fill="#8E7D78"/>
<path d="M799.989 1069.67L768.249 1032.37L800.002 997.242V867.167L738.433 935.295V856.889C738.433 832.805 718.908 813.283 694.827 813.283C670.743 813.283 651.221 832.808 651.221 856.889V1213.2C651.221 1237.29 670.746 1256.81 694.827 1256.81C718.911 1256.81 738.433 1237.29 738.433 1213.2V1131.9L800.002 1204.25L799.989 1069.67Z" fill="#C6B7B4"/>
<path d="M1110.67 873.689C1091.45 873.689 1075.16 886.145 1069.36 903.414C1050.72 894.777 1029.99 889.917 1008.13 889.917C927.54 889.917 861.975 955.483 861.975 1036.07C861.975 1116.66 927.54 1182.22 1008.13 1182.22C1028.4 1182.22 1047.72 1178.07 1065.28 1170.57C1055.25 1230.18 1003.3 1275.75 940.887 1275.75H924.64C900.556 1275.75 881.034 1295.28 881.034 1319.36C881.034 1343.44 900.559 1362.97 924.64 1362.97H940.887C1058.55 1362.97 1154.28 1267.24 1154.28 1149.57V917.295C1154.28 893.214 1134.76 873.689 1110.67 873.689ZM1008.13 1095.01C975.627 1095.01 949.187 1068.57 949.187 1036.07C949.187 1003.57 975.627 977.133 1008.13 977.133C1040.63 977.133 1067.07 1003.57 1067.07 1036.07C1067.07 1068.57 1040.63 1095.01 1008.13 1095.01Z" fill="#8E7D78"/>
</svg>
