<svg width="1600" height="1600" viewBox="0 0 1600 1600" fill="none" xmlns="http://www.w3.org/2000/svg">
<g clip-path="url(#clip0)">
<path d="M1108.06 1600H491.94C315.784 1600 169.215 1467.66 151.009 1292.16L56.2556 378.809C46.24 282.263 77.7119 185.541 142.596 113.444C207.484 41.3469 300.277 0 397.187 0H1202.81C1299.72 0 1392.51 41.3469 1457.4 113.444C1522.29 185.541 1553.76 282.263 1543.74 378.809L1448.99 1292.16C1430.78 1467.66 1284.22 1600 1108.06 1600Z" fill="#8E7D78"/>
<path d="M1457.4 113.444C1392.52 41.3469 1299.72 0 1202.81 0H800V1600H1108.06C1284.22 1600 1430.78 1467.66 1448.99 1292.16L1543.75 378.813C1553.76 282.263 1522.29 185.541 1457.4 113.444Z" fill="#6B5C59"/>
<path d="M980.218 625.584C968.221 625.584 956.224 621 947.074 611.831C865.977 530.606 734.024 530.606 652.927 611.831C634.624 630.169 604.943 630.169 586.637 611.831L395.615 420.497C377.312 402.162 377.312 372.431 395.618 354.1C618.596 130.756 981.408 130.756 1204.39 354.1C1222.69 372.434 1222.69 402.162 1204.39 420.497L1013.36 611.831C1004.21 621 992.215 625.584 980.218 625.584V625.584Z" fill="#F2F2F2"/>
<path d="M1204.38 354.1C1092.9 242.425 946.447 186.591 800 186.591V550.909C853.263 550.909 906.525 571.216 947.075 611.828C956.228 620.997 968.225 625.581 980.219 625.581C992.216 625.581 1004.21 620.997 1013.37 611.828L1204.39 420.494C1222.69 402.162 1222.69 372.431 1204.38 354.1V354.1Z" fill="#E2DCDA"/>
<path d="M800 359.003C774.112 359.003 753.125 380.025 753.125 405.953V556.275C783.944 549.184 816.056 549.184 846.875 556.275V405.953C846.875 380.022 825.888 359.003 800 359.003Z" fill="#FD4E26"/>
<path d="M800 359.003V550.959C815.731 550.959 831.466 552.731 846.875 556.278V405.956C846.875 380.022 825.888 359.003 800 359.003Z" fill="#FD3018"/>
<path d="M1201.72 1371.65C1182.06 1371.65 1164.28 1359 1157.6 1340.53C1150.95 1322.14 1156.86 1300.8 1171.97 1288.42C1187.15 1275.99 1208.95 1274.4 1225.79 1284.45C1242.59 1294.47 1251.53 1314.71 1247.66 1333.9C1243.29 1355.57 1223.83 1371.65 1201.72 1371.65V1371.65Z" fill="#3A3331"/>
<path d="M1014.22 1371.65C994.572 1371.65 976.772 1358.99 970.097 1340.53C963.428 1322.09 969.391 1300.83 984.5 1288.42C999.657 1275.98 1021.46 1274.41 1038.28 1284.45C1055.08 1294.47 1064.03 1314.71 1060.16 1333.9C1055.79 1355.58 1036.33 1371.65 1014.22 1371.65V1371.65Z" fill="#3A3331"/>
<path d="M1201.72 1183.85C1182.06 1183.85 1164.27 1171.18 1157.6 1152.71C1150.93 1134.27 1156.89 1113.03 1172 1100.62C1187.16 1088.17 1208.96 1086.6 1225.78 1096.64C1242.58 1106.66 1251.5 1126.88 1247.66 1146.07C1243.31 1167.75 1223.83 1183.85 1201.72 1183.85V1183.85Z" fill="#3A3331"/>
<path d="M1014.22 1183.85C994.656 1183.85 976.644 1171.19 970.094 1152.71C963.534 1134.21 969.322 1113.08 984.5 1100.62C999.659 1088.17 1021.46 1086.6 1038.28 1096.64C1055.08 1106.66 1064 1126.88 1060.16 1146.07C1055.81 1167.75 1036.33 1183.85 1014.22 1183.85V1183.85Z" fill="#3A3331"/>
<path d="M1201.72 996.041C1182.08 996.041 1164.27 983.375 1157.6 964.919C1150.93 946.475 1156.89 925.219 1172 912.809C1187.16 900.359 1208.96 898.797 1225.78 908.834C1242.58 918.856 1251.53 939.097 1247.66 958.291C1243.29 979.959 1223.82 996.041 1201.72 996.041V996.041Z" fill="#3A3331"/>
<path d="M1014.22 996.041C994.668 996.041 976.647 983.394 970.093 964.919C963.528 946.409 969.322 925.278 984.5 912.809C999.656 900.359 1021.46 898.797 1038.28 908.834C1055.12 918.875 1063.98 939.078 1060.16 958.291C1055.85 979.966 1036.28 996.041 1014.22 996.041V996.041Z" fill="#3A3331"/>
<path d="M585.78 1371.65C566.233 1371.65 548.23 1359 541.687 1340.53C535.143 1322.07 540.871 1300.87 556.062 1288.42C571.243 1275.99 593.027 1274.41 609.865 1284.45C626.627 1294.44 635.658 1314.73 631.749 1333.9C627.324 1355.59 607.93 1371.65 585.78 1371.65V1371.65Z" fill="#6B5C59"/>
<path d="M398.28 1371.65C378.733 1371.65 360.73 1359 354.187 1340.53C347.643 1322.07 353.371 1300.87 368.562 1288.42C383.743 1275.99 405.54 1274.4 422.377 1284.45C439.136 1294.44 448.158 1314.73 444.249 1333.9C439.821 1355.59 420.44 1371.65 398.28 1371.65V1371.65Z" fill="#6B5C59"/>
<path d="M585.78 1183.85C566.23 1183.85 548.227 1171.18 541.687 1152.71C535.149 1134.25 540.871 1113.06 556.062 1100.62C571.246 1088.18 593.024 1086.6 609.865 1096.64C626.64 1106.64 635.64 1126.89 631.749 1146.07C627.343 1167.76 607.943 1183.85 585.78 1183.85V1183.85Z" fill="#6B5C59"/>
<path d="M398.279 1183.85C378.729 1183.85 360.726 1171.18 354.186 1152.71C347.648 1134.25 353.376 1113.05 368.561 1100.62C383.745 1088.18 405.523 1086.6 422.364 1096.64C439.129 1106.64 448.139 1126.89 444.248 1146.07C439.839 1167.77 420.445 1183.85 398.279 1183.85V1183.85Z" fill="#6B5C59"/>
<path d="M585.781 996.041C566.24 996.041 548.228 983.378 541.687 964.919C535.146 946.459 540.878 925.25 556.062 912.809C571.243 900.372 593.028 898.794 609.865 908.834C626.634 918.831 635.662 939.109 631.75 958.291C627.325 979.975 607.934 996.041 585.781 996.041V996.041Z" fill="#6B5C59"/>
<path d="M398.28 996.041C378.74 996.041 360.727 983.378 354.187 964.919C347.643 946.456 353.371 925.253 368.562 912.809C383.743 900.372 405.527 898.794 422.365 908.834C439.13 918.831 448.162 939.112 444.249 958.291C439.824 979.972 420.43 996.041 398.28 996.041V996.041Z" fill="#6B5C59"/>
<path d="M800 839.55C774.112 839.55 753.125 860.572 753.125 886.503V1600H846.875V886.503C846.875 860.572 825.888 839.55 800 839.55V839.55Z" fill="#6B5C59"/>
<path d="M800 839.55V1600H846.875V886.503C846.875 860.572 825.888 839.55 800 839.55V839.55Z" fill="#3A3331"/>
</g>
<defs>
<clipPath id="clip0">
<rect width="1600" height="1600" fill="white"/>
</clipPath>
</defs>
</svg>
