<svg width="1600" height="1600" viewBox="0 0 1600 1600" fill="none" xmlns="http://www.w3.org/2000/svg">
<path d="M1365.62 1503.12C1236.4 1503.12 1131.25 1397.98 1131.25 1268.75C1131.25 1139.52 1236.4 1034.38 1365.62 1034.38C1494.85 1034.38 1600 1139.52 1600 1268.75C1600 1397.98 1494.85 1503.12 1365.62 1503.12Z" fill="#3A3331"/>
<path d="M1365.62 1409.38C1288.08 1409.38 1225 1346.29 1225 1268.75C1225 1191.21 1288.08 1128.12 1365.62 1128.12C1443.17 1128.12 1506.25 1191.21 1506.25 1268.75C1506.25 1346.29 1443.17 1409.38 1365.62 1409.38Z" fill="#F2F2F2"/>
<path d="M1411.56 1280C1405.94 1301.56 1387.19 1315.62 1365.63 1315.62C1361.88 1315.62 1358.12 1315.62 1354.38 1314.69L970.935 1219.06L943.75 1212.5C918.435 1205.93 903.438 1180.62 910 1155.31C915.625 1129.99 940.935 1114.06 966.247 1121.56L1042.18 1140.31L1376.87 1222.81C1402.19 1229.37 1417.19 1254.68 1411.56 1280Z" fill="#784033"/>
<path d="M473.688 1045.53C468.406 1066.94 449.281 1081.25 428.156 1081.25C424.469 1081.25 420.719 1080.84 416.969 1079.94L371 1068.66C370.313 1068.5 369.625 1068.31 368.969 1068.16C267.5 1042.09 196.281 951.937 193.844 846.937C193.781 845.031 193.75 843.156 193.75 841.25V237.5C193.75 211.625 172.75 190.625 146.875 190.625H46.875C20.9688 190.625 0 169.656 0 143.75C0 117.844 20.9688 96.875 46.875 96.875H146.875C224.406 96.875 287.5 159.969 287.5 237.5V841.25C287.5 843.125 287.531 845 287.625 846.875C290.031 909.344 332.844 962.625 393.438 977.625L439.281 988.813C464.438 995 479.813 1020.38 473.688 1045.53Z" fill="#A55C4F"/>
<path d="M473.686 1045.53C468.404 1066.94 449.279 1081.25 428.154 1081.25C424.467 1081.25 420.717 1080.84 416.967 1079.94L370.998 1068.66C370.311 1068.5 369.623 1068.31 368.967 1068.16C267.498 1042.09 196.279 951.937 193.842 846.937C193.967 846.906 194.092 846.875 194.217 846.875H287.623C290.029 909.344 332.842 962.625 393.436 977.625L439.279 988.813C464.436 995 479.811 1020.38 473.686 1045.53Z" fill="#784033"/>
<path d="M742.517 645.641C733.729 654.431 721.826 659.375 709.376 659.375H428.126C409.176 659.375 392.054 647.978 384.823 630.444C377.545 612.913 381.573 592.769 394.985 579.356L609.676 364.666C664.607 309.644 754.145 309.644 809.079 364.666L883.145 438.731C901.454 457.041 901.454 486.706 883.145 505.016L742.517 645.641Z" fill="#FF8C28"/>
<path d="M475.322 1441.92C462.734 1441.92 449.916 1439.31 437.647 1434C403.359 1419.13 381.25 1385.57 381.25 1348.45V1034.37C381.25 1008.47 402.216 987.5 428.125 987.5C454.034 987.5 475 1008.47 475 1034.37V1348.45L751.397 1089.22C770.394 1071.59 799.966 1072.55 817.681 1091.41C835.35 1110.32 834.391 1139.98 815.484 1157.7L538.903 1416.43C521.006 1433.18 498.437 1441.92 475.322 1441.92Z" fill="#784033"/>
<path d="M1323.44 831.872L1042.19 1140.31L970.938 1219.06L943.753 1212.5L381.25 1070.94V800C381.25 773.747 401.872 753.125 428.125 753.125H1288.75C1307.5 753.125 1324.37 764.375 1331.88 781.25C1339.37 798.122 1335.63 817.813 1323.44 831.872Z" fill="#FD3018"/>
<path d="M1459.38 659.375H709.377C690.427 659.375 673.305 647.978 666.074 630.444C658.796 612.913 662.824 592.769 676.236 579.356L984.677 270.916C1039.61 215.894 1129.15 215.894 1184.08 270.916L1492.52 579.356C1505.93 592.769 1509.96 612.91 1502.68 630.444C1495.45 647.978 1478.33 659.375 1459.38 659.375Z" fill="#FEA832"/>
<path d="M381.25 612.5V846.875H1309.78L1494.06 644.372C1501.56 635 1506.25 623.75 1506.25 612.5H381.25Z" fill="#FD4E26"/>
<path d="M1600 612.5C1600 638.409 1579.03 659.375 1553.12 659.375H381.25V612.5C381.25 586.591 402.216 565.625 428.125 565.625H1553.12C1579.03 565.625 1600 586.591 1600 612.5Z" fill="#FD3018"/>
</svg>
