<svg width="1600" height="1600" viewBox="0 0 1600 1600" fill="none" xmlns="http://www.w3.org/2000/svg">
<g clip-path="url(#clip0)">
<path d="M811.176 1173.42V1498.02C811.176 1554.34 765.519 1600 709.193 1600C652.871 1600 607.154 1554.34 607.154 1498.01V1166.71L811.176 1173.42Z" fill="#6B5C59"/>
<path d="M1277.39 1156.76V1497.06C1277.39 1554.05 1323.7 1600.2 1380.7 1600C1437.41 1599.8 1483.28 1553.77 1483.28 1497.06V1025.71L1277.39 1156.76Z" fill="#3A3331"/>
<path d="M1072.35 1173.09V1495.52C1072.35 1552.51 1118.66 1598.66 1175.65 1598.46C1232.37 1598.27 1278.24 1552.23 1278.24 1495.52V1156.76L1072.35 1173.09Z" fill="#8E7D78"/>
<path d="M582.81 728.059L30.9097 1032.16C15.2897 1040.76 13.0498 1062.3 26.5611 1073.94C147.713 1158.22 313.659 1132.75 403.964 1016.02L582.81 728.059Z" fill="#6B5C59"/>
<path d="M1552.68 40.5055L1472.09 5.33562C1439.36 -8.94727 1401.63 9.48741 1392.78 44.0825L1380.27 92.9855C1374.96 113.735 1358.64 129.864 1337.83 134.928L1259.56 153.966C1249.24 156.478 1239.8 161.782 1232.29 169.295L1010.33 338.691C1000.52 346.179 1006.86 361.827 1019.12 360.368L1240.32 334.061L1173.43 527.467C1155.6 579.032 1118.58 622.062 1069.62 646.135C1069.1 646.388 1068.59 646.642 1068.07 646.891C1042.19 659.394 1013.77 665.738 985.034 666.513L810.566 671.234C740.116 673.139 670.392 687.916 606.085 716.756C563.186 735.997 525.645 759.752 494.917 788.958C483.59 799.311 473.218 810.473 464.652 822.385C464.546 822.535 464.446 822.685 464.34 822.835C431.916 865.009 411.351 916.536 405.64 979.356C403.178 1001.87 403.969 1016.01 403.969 1016.01V1496.87C403.969 1552.98 449.454 1598.47 505.564 1598.47C561.674 1598.47 607.159 1552.98 607.159 1496.87V1282.45C607.159 1271.04 616.406 1261.8 627.815 1261.8C701.835 1261.8 767.72 1227.13 810.247 1173.18L810.825 1173.41H1122.35C1435.91 1173.41 1599.75 1013.15 1599.75 516.758V112.382C1599.74 81.1956 1581.26 52.9765 1552.68 40.5055V40.5055Z" fill="#8E7D78"/>
<path d="M217.391 0C97.6608 0 0.257812 97.4061 0.257812 217.133C0.257812 336.86 97.6639 434.269 217.391 434.269C337.118 434.269 434.527 336.86 434.527 217.133C434.527 97.4061 337.118 0 217.391 0Z" fill="#FEDB41"/>
<path d="M1552.68 40.5055L1472.09 5.33562C1439.36 -8.94727 1401.63 9.48741 1392.78 44.0825L1380.27 92.9855C1374.96 113.735 1358.64 129.864 1337.83 134.928L1259.56 153.966C1249.24 156.478 1239.8 161.782 1232.29 169.295L1010.33 338.691C1000.52 346.179 1006.86 361.827 1019.12 360.368L1240.32 334.061L1173.43 527.467C1155.6 579.032 1118.58 622.062 1069.62 646.135C1069.1 646.388 1068.59 646.641 1068.07 646.891C1047.26 656.944 1024.79 662.952 1001.86 665.348V1173.41H1122.35C1435.91 1173.41 1599.75 1013.15 1599.75 516.761V112.382C1599.74 81.1955 1581.26 52.9765 1552.68 40.5055V40.5055Z" fill="#6B5C59"/>
</g>
<defs>
<clipPath id="clip0">
<rect width="1600" height="1600" fill="white"/>
</clipPath>
</defs>
</svg>
