<svg width="271" height="67" viewBox="0 0 271 67" fill="none" xmlns="http://www.w3.org/2000/svg">
<path d="M97.9 28.6374H99.7777V43.8355H97.8108V32.387L97.9598 33.0588L94.7675 41.5325H93.3797L90.1883 33.2655L90.3659 32.387V43.8355H88.3696V28.6374H90.2842L94.0774 38.4176L97.9 28.6374Z" fill="#E53D00"/>
<path d="M106.904 37.5614V43.8355H104.832V37.5614L100.988 28.6374H103.192L105.872 35.3396L108.499 28.6374H110.704L106.904 37.5614Z" fill="#E53D00"/>
<path d="M116.976 28.6374H119.04V43.8355H116.976V28.6374ZM118.238 41.9089H121.555C122.328 41.9089 122.899 41.754 123.27 41.4366C123.642 41.1192 123.827 40.6689 123.827 40.0931V39.0819C123.827 38.6317 123.753 38.2404 123.605 37.9231C123.456 37.6057 123.226 37.3547 122.914 37.1849C122.602 37.0152 122.224 36.9265 121.771 36.9265H118.238V35.0222H121.771C122.379 35.0222 122.84 34.8598 123.159 34.5351C123.471 34.2103 123.634 33.7378 123.634 33.1105V32.3355C123.634 31.7523 123.463 31.3094 123.122 31.0068C122.781 30.7042 122.283 30.5565 121.637 30.5565H118.245V28.63H121.815C122.662 28.63 123.374 28.7703 123.961 29.0582C124.547 29.346 124.977 29.7519 125.274 30.2834C125.571 30.8149 125.712 31.4571 125.712 32.2025V33.0145C125.712 33.509 125.623 33.9667 125.445 34.38C125.267 34.7934 125 35.1403 124.643 35.4208C124.287 35.7013 123.856 35.8858 123.345 35.9818C123.879 36.0556 124.339 36.2475 124.717 36.5427C125.104 36.838 125.401 37.2145 125.601 37.6574C125.801 38.1076 125.906 38.6095 125.906 39.1705V40.1965C125.906 40.942 125.749 41.5842 125.445 42.1304C125.141 42.6767 124.695 43.09 124.109 43.3852C123.523 43.6805 122.84 43.8208 122.038 43.8208H118.23V41.9089H118.238Z" fill="#E53D00"/>
<path d="M128.429 28.6227H130.5V43.8281H128.429V28.6227ZM129.364 35.4503H133.38C133.758 35.4503 134.092 35.3691 134.382 35.2067C134.671 35.0444 134.886 34.8082 135.035 34.5055C135.184 34.2029 135.258 33.8486 135.258 33.4353V32.6529C135.258 32.2321 135.184 31.8704 135.035 31.553C134.886 31.243 134.663 30.9994 134.382 30.8296C134.1 30.6599 133.765 30.5787 133.38 30.5787H129.364V28.6227H133.246C134.092 28.6227 134.834 28.7777 135.458 29.095C136.089 29.405 136.564 29.8627 136.906 30.4532C137.247 31.0437 137.41 31.7449 137.41 32.5422V33.4279C137.41 34.2398 137.24 34.941 136.898 35.5389C136.556 36.1368 136.074 36.6018 135.45 36.9192C134.827 37.2366 134.092 37.399 133.246 37.399H129.364V35.4503ZM132.764 36.934L134.768 36.4542L137.945 43.8355H135.577L132.764 36.934Z" fill="#E53D00"/>
<path d="M140.305 28.6374H142.376V43.8355H140.305V28.6374ZM141.352 28.6374H148.5V30.5935H141.352V28.6374ZM141.352 35.3175H147.66V37.2588H141.352V35.3175ZM141.352 41.8794H148.5V43.8355H141.352V41.8794Z" fill="#E53D00"/>
<path d="M150.808 28.6374H152.879V43.8355H150.808V28.6374ZM151.847 28.6374H158.995V30.5935H151.847V28.6374ZM151.847 35.3175H158.156V37.2588H151.847V35.3175ZM151.847 41.8794H158.995V43.8355H151.847V41.8794Z" fill="#E53D00"/>
<path d="M161.303 28.6374H163.374V43.8355H161.303V28.6374ZM162.661 41.8794H165.786C166.536 41.8794 167.115 41.6801 167.523 41.2815C167.932 40.883 168.132 40.322 168.132 39.5912V32.8817C168.132 32.1509 167.932 31.5825 167.523 31.1913C167.115 30.7927 166.536 30.5935 165.786 30.5935H162.661V28.6374H165.72C166.67 28.6374 167.486 28.8072 168.161 29.1393C168.837 29.4715 169.349 29.966 169.698 30.6082C170.054 31.2504 170.225 32.0328 170.225 32.9481V39.5322C170.225 40.4401 170.047 41.2151 169.698 41.8647C169.349 42.5143 168.83 43.0014 168.154 43.341C167.479 43.6805 166.662 43.8429 165.712 43.8429H162.661V41.8794Z" fill="#E53D00"/>
<path d="M179.993 43.4074C179.325 43.0236 178.813 42.47 178.449 41.754C178.086 41.038 177.907 40.1891 177.907 39.2148V33.2655C177.907 32.2912 178.086 31.4423 178.449 30.7189C178.813 29.9956 179.325 29.442 179.993 29.0582C180.661 28.6743 181.44 28.475 182.346 28.475C183.222 28.475 183.979 28.6521 184.61 28.9991C185.241 29.346 185.745 29.8627 186.11 30.5344C186.473 31.2135 186.688 32.0328 186.748 32.9998H184.647C184.595 32.4609 184.469 32.0033 184.268 31.6342C184.068 31.2651 183.801 30.9699 183.467 30.778C183.133 30.5861 182.762 30.4827 182.346 30.4827C181.871 30.4827 181.456 30.5935 181.114 30.8223C180.765 31.0511 180.498 31.3685 180.305 31.7892C180.112 32.2099 180.016 32.6971 180.016 33.2655V39.2148C180.016 39.7758 180.112 40.2704 180.305 40.691C180.498 41.1118 180.765 41.4292 181.114 41.6506C181.463 41.8721 181.871 41.9828 182.346 41.9828C182.777 41.9828 183.148 41.8868 183.475 41.6949C183.801 41.503 184.068 41.2225 184.268 40.8461C184.469 40.4696 184.595 40.012 184.647 39.4658H186.748C186.688 40.4327 186.466 41.2594 186.102 41.9311C185.731 42.6103 185.234 43.1195 184.602 43.4664C183.972 43.8134 183.215 43.9905 182.346 43.9905C181.44 43.9905 180.661 43.7986 179.993 43.4074Z" fill="#E53D00"/>
<path d="M191.216 43.4221C190.526 43.0457 189.991 42.4995 189.62 41.7835C189.249 41.0675 189.064 40.2408 189.064 39.2886V33.1843C189.064 32.2247 189.249 31.3906 189.62 30.682C189.991 29.9734 190.526 29.4346 191.216 29.0507C191.906 28.6743 192.716 28.4824 193.651 28.4824C194.586 28.4824 195.395 28.6743 196.085 29.0507C196.775 29.4271 197.31 29.9734 197.681 30.682C198.052 31.3906 198.237 32.2247 198.237 33.1843V39.2886C198.237 40.2408 198.052 41.0748 197.681 41.7835C197.31 42.4921 196.775 43.0383 196.085 43.4221C195.395 43.7986 194.586 43.9905 193.651 43.9905C192.716 43.9905 191.906 43.7986 191.216 43.4221ZM194.964 41.6506C195.335 41.4366 195.625 41.134 195.825 40.7427C196.026 40.3515 196.122 39.8865 196.122 39.3477V33.1178C196.122 32.579 196.026 32.1139 195.825 31.7227C195.625 31.3315 195.335 31.0289 194.964 30.8149C194.593 30.6008 194.148 30.4975 193.643 30.4975C193.139 30.4975 192.7 30.6008 192.322 30.8149C191.95 31.0289 191.661 31.3315 191.454 31.7227C191.253 32.1139 191.149 32.579 191.149 33.1178V39.3477C191.149 39.8865 191.253 40.3515 191.454 40.7427C191.654 41.134 191.944 41.4366 192.322 41.6506C192.693 41.8647 193.139 41.968 193.643 41.968C194.148 41.968 194.593 41.8647 194.964 41.6506Z" fill="#E53D00"/>
<path d="M210.552 28.6374H212.43V43.8355H210.463V32.387L210.611 33.0588L207.419 41.5325H206.032L202.839 33.2655L203.018 32.387V43.8355H201.021V28.6374H202.936L206.729 38.4176L210.552 28.6374Z" fill="#E53D00"/>
<path d="M215.369 28.6374H217.44V43.8355H215.369V28.6374ZM216.475 35.9818H220.364C220.728 35.9818 221.047 35.8932 221.322 35.7235C221.596 35.5537 221.812 35.3101 221.96 34.9927C222.109 34.6753 222.183 34.3063 222.183 33.8929V32.7193C222.183 32.2838 222.109 31.9073 221.96 31.5899C221.812 31.2725 221.604 31.0216 221.322 30.8444C221.04 30.6672 220.728 30.5861 220.364 30.5861H216.475V28.63H220.298C221.122 28.63 221.826 28.7924 222.428 29.1246C223.029 29.4493 223.489 29.9218 223.816 30.5344C224.142 31.147 224.306 31.8704 224.306 32.6971V33.9076C224.306 34.7269 224.142 35.443 223.816 36.0483C223.489 36.6535 223.029 37.1185 222.42 37.4433C221.819 37.7681 221.107 37.9305 220.298 37.9305H216.475V35.9818Z" fill="#E53D00"/>
<path d="M230.258 28.6374H232.085L236.664 43.8355H234.438L231.171 31.6711L227.905 43.8355H225.679L230.258 28.6374ZM228.099 38.5652H234.386V40.5065H228.099V38.5652Z" fill="#E53D00"/>
<path d="M238.505 28.6227H240.576V43.8281H238.505V28.6227ZM239.44 35.4503H243.456C243.834 35.4503 244.168 35.3691 244.45 35.2067C244.74 35.0444 244.955 34.8082 245.104 34.5055C245.252 34.2029 245.327 33.8486 245.327 33.4353V32.6529C245.327 32.2321 245.252 31.8704 245.104 31.553C244.955 31.2356 244.732 30.9994 244.45 30.8296C244.168 30.6599 243.834 30.5787 243.448 30.5787H239.433V28.6227H243.315C244.161 28.6227 244.903 28.7777 245.527 29.095C246.15 29.4124 246.633 29.8627 246.974 30.4532C247.315 31.0437 247.479 31.7449 247.479 32.5422V33.4279C247.479 34.2398 247.308 34.941 246.967 35.5389C246.625 36.1368 246.143 36.6018 245.519 36.9192C244.896 37.2366 244.161 37.399 243.315 37.399H239.433V35.4503H239.44ZM242.84 36.934L244.851 36.4542L248.028 43.8355H245.66L242.84 36.934Z" fill="#E53D00"/>
<path d="M250.381 28.6374H252.452V43.8355H250.381V28.6374ZM251.42 28.6374H258.568V30.5935H251.42V28.6374ZM251.42 35.3175H257.729V37.2588H251.42V35.3175ZM251.42 41.8794H258.568V43.8355H251.42V41.8794Z" fill="#E53D00"/>
<path d="M260.884 28.6227H262.955V43.8281H260.884V28.6227ZM261.819 35.4503H265.835C266.213 35.4503 266.547 35.3691 266.829 35.2067C267.118 35.0444 267.334 34.8082 267.482 34.5055C267.631 34.2029 267.705 33.8486 267.705 33.4353V32.6529C267.705 32.2321 267.631 31.8704 267.482 31.553C267.334 31.2356 267.111 30.9994 266.829 30.8296C266.547 30.6599 266.213 30.5787 265.827 30.5787H261.819V28.6227H265.701C266.547 28.6227 267.289 28.7777 267.913 29.095C268.537 29.4124 269.019 29.8627 269.361 30.4532C269.701 31.0437 269.865 31.7449 269.865 32.5422V33.4279C269.865 34.2398 269.695 34.941 269.353 35.5389C269.011 36.1368 268.529 36.6018 267.905 36.9192C267.282 37.2366 266.547 37.399 265.701 37.399H261.819V35.4503ZM265.211 36.934L267.223 36.4542L270.399 43.8355H268.032L265.211 36.934Z" fill="#E53D00"/>
<path d="M64.2751 18.1901L67.5262 10.6538L55.383 5.71571H49.623C49.623 5.71571 49.5118 4.19515 47.9752 2.60817C47.3073 1.91432 44.4942 0.63736 44.4942 0.63736V8.33608L39.8254 21.1722L54.9154 28.7306V21.0467H60.4228C60.4228 21.0467 61.9222 20.936 62.9169 19.8952C64.0079 18.7363 64.2751 18.1901 64.2751 18.1901Z" fill="#E53D00"/>
<path d="M44.3234 63.777V43.8697L13.7277 43.8992V63.777C13.7277 63.777 13.3567 66.5008 9.68993 66.5155C5.91187 66.5303 5.81537 63.777 5.81537 63.777L5.60012 27.1141L0.909076 22.0727C0.909076 22.0727 -0.122653 20.4341 1.62906 19.0169C3.11357 17.8137 4.50901 18.788 4.50901 18.788L9.31137 23.453H35.8988L54.7149 32.9454L52.2061 43.8992L52.1245 63.777C52.1245 63.777 51.8795 66.9215 48.4726 66.9215C44.3828 66.9289 44.3234 63.777 44.3234 63.777Z" fill="#E53D00"/>
<path d="M16.1995 54.6981V46.586H20.6975L28.9588 62.2049C28.9588 62.2049 29.2631 65.3197 27.3778 66.3015C24.4088 67.8442 22.5754 65.7331 22.5754 65.7331L16.1995 54.6981Z" fill="#E53D00"/>
<path d="M55.19 44.8514L57.0679 37.3446L67.7563 45.0138C67.7563 45.0138 70.0202 47.0732 68.313 49.5829C66.539 52.1884 63.5923 51.0665 63.5923 51.0665L55.19 44.8514Z" fill="#E53D00"/>
<path d="M60.9647 46.3793L68.2239 49.7231L62.9836 55.1557C62.9836 55.1557 60.1482 56.5138 58.5746 55.0966C56.0881 52.8602 57.4538 50.4243 57.4538 50.4243L60.9647 46.3793Z" fill="#E53D00"/>
</svg>
