<?xml version="1.0" encoding="utf-8"?>
<!-- Generator: Adobe Illustrator 25.0.0, SVG Export Plug-In . SVG Version: 6.00 Build 0)  -->
<svg version="1.1" xmlns="http://www.w3.org/2000/svg" xmlns:xlink="http://www.w3.org/1999/xlink" x="0px" y="0px"
	 viewBox="0 0 595.28 841.89" style="enable-background:new 0 0 595.28 841.89;" xml:space="preserve">
<style type="text/css">
	.st0{fill:#D35027;}
	.st1{fill:#EBA122;}
</style>
<symbol  id="New_Symbol" viewBox="-220 -67.5 440 196.6">
	<path class="st0" d="M40.03,121.92c-12.39,4.62-26.07,7.18-40.45,7.18c-13.77,0-26.89-2.35-38.86-6.6l1.41,0.49l-167.18-56.95
		l0.47,0.17c0,0-5.86-2.56-8.68-5.35c-6.59-6.52-6.74-14.6-6.74-16.11v-89.49c0-12.57,10.27-22.75,22.95-22.75h396.97
		c11.09,0,20.09,8.92,20.09,19.92v92.33c0,17.43-17.16,22.03-17.16,22.03l0.69-0.2L34.14,123.92"/>
</symbol>
<g id="Layer_1">
	
		<use xlink:href="#New_Symbol"  width="440" height="196.6" id="XMLID_1_" x="-220" y="-67.5" transform="matrix(1 0 0 -1 326.2554 336.2995)" style="overflow:visible;"/>
	<rect x="392.38" y="300.86" class="st1" width="110.04" height="7.56"/>
	<rect x="150.09" y="300.86" class="st1" width="110.04" height="7.56"/>
	<g>
		<g>
			<path class="st1" d="M216.16,349.13h2.53v20.59h-2.65v-15.51l0.2,0.91l-4.3,11.48h-1.87l-4.3-11.2l0.24-1.19v15.51h-2.69v-20.59
				h2.58l5.11,13.25L216.16,349.13z"/>
			<path class="st1" d="M228.29,361.22v8.5h-2.79v-8.5l-5.18-12.09h2.97l3.61,9.08l3.54-9.08h2.97L228.29,361.22z"/>
			<path class="st1" d="M241.86,349.13h2.78v20.59h-2.78V349.13z M243.56,367.11h4.47c1.04,0,1.81-0.21,2.31-0.64
				c0.5-0.43,0.75-1.04,0.75-1.82v-1.37c0-0.61-0.1-1.14-0.3-1.57c-0.2-0.43-0.51-0.77-0.93-1c-0.42-0.23-0.93-0.35-1.54-0.35h-4.76
				v-2.58h4.76c0.82,0,1.44-0.22,1.87-0.66c0.42-0.44,0.64-1.08,0.64-1.93v-1.05c0-0.79-0.23-1.39-0.69-1.8
				c-0.46-0.41-1.13-0.61-2-0.61h-4.57v-2.61h4.81c1.14,0,2.1,0.19,2.89,0.58s1.37,0.94,1.77,1.66c0.4,0.72,0.59,1.59,0.59,2.6v1.1
				c0,0.67-0.12,1.29-0.36,1.85c-0.24,0.56-0.6,1.03-1.08,1.41c-0.48,0.38-1.06,0.63-1.75,0.76c0.72,0.1,1.34,0.36,1.85,0.76
				c0.52,0.4,0.92,0.91,1.19,1.51c0.27,0.61,0.41,1.29,0.41,2.05v1.39c0,1.01-0.21,1.88-0.62,2.62s-1.01,1.3-1.8,1.7
				s-1.71,0.59-2.79,0.59h-5.13V367.11z"/>
			<path class="st1" d="M257.29,349.11h2.79v20.6h-2.79V349.11z M258.55,358.36h5.41c0.51,0,0.96-0.11,1.35-0.33
				c0.39-0.22,0.68-0.54,0.88-0.95c0.2-0.41,0.3-0.89,0.3-1.45v-1.06c0-0.57-0.1-1.06-0.3-1.49c-0.2-0.42-0.5-0.75-0.88-0.98
				c-0.38-0.23-0.83-0.34-1.35-0.34h-5.41v-2.65h5.23c1.14,0,2.14,0.21,2.98,0.64c0.85,0.42,1.49,1.04,1.95,1.84
				s0.68,1.75,0.68,2.83v1.2c0,1.1-0.23,2.05-0.69,2.86c-0.46,0.81-1.11,1.44-1.95,1.87s-1.83,0.65-2.97,0.65h-5.23V358.36z
				 M263.13,360.37l2.7-0.65l4.28,10h-3.19L263.13,360.37z"/>
			<path class="st1" d="M273.29,349.13h2.79v20.59h-2.79V349.13z M274.7,349.13h9.63v2.65h-9.63V349.13z M274.7,358.18h8.5v2.63
				h-8.5V358.18z M274.7,367.07h9.63v2.65h-9.63V367.07z"/>
			<path class="st1" d="M287.44,349.13h2.79v20.59h-2.79V349.13z M288.84,349.13h9.63v2.65h-9.63V349.13z M288.84,358.18h8.5v2.63
				h-8.5V358.18z M288.84,367.07h9.63v2.65h-9.63V367.07z"/>
			<path class="st1" d="M301.58,349.13h2.79v20.59h-2.79V349.13z M303.41,367.07h4.21c1.01,0,1.79-0.27,2.34-0.81
				c0.55-0.54,0.82-1.3,0.82-2.29v-9.09c0-0.99-0.27-1.76-0.82-2.29c-0.55-0.54-1.33-0.81-2.34-0.81h-4.21v-2.65h4.12
				c1.28,0,2.38,0.23,3.29,0.68s1.6,1.12,2.07,1.99c0.48,0.87,0.71,1.93,0.71,3.17v8.92c0,1.23-0.24,2.28-0.71,3.16
				s-1.17,1.54-2.08,2s-2.01,0.68-3.29,0.68h-4.11V367.07z"/>
			<path class="st1" d="M326.76,369.14c-0.9-0.52-1.59-1.27-2.08-2.24s-0.73-2.12-0.73-3.44v-8.06c0-1.32,0.24-2.47,0.73-3.45
				c0.49-0.98,1.18-1.73,2.08-2.25c0.9-0.52,1.95-0.79,3.17-0.79c1.18,0,2.2,0.24,3.05,0.71s1.53,1.17,2.02,2.08
				c0.49,0.92,0.78,2.03,0.86,3.34h-2.83c-0.07-0.73-0.24-1.35-0.51-1.85s-0.63-0.9-1.08-1.16s-0.95-0.4-1.51-0.4
				c-0.64,0-1.2,0.15-1.66,0.46c-0.47,0.31-0.83,0.74-1.09,1.31s-0.39,1.23-0.39,2v8.06c0,0.76,0.13,1.43,0.39,2s0.62,1,1.09,1.3
				c0.47,0.3,1.02,0.45,1.66,0.45c0.58,0,1.08-0.13,1.52-0.39c0.44-0.26,0.8-0.64,1.07-1.15s0.44-1.13,0.51-1.87h2.83
				c-0.08,1.31-0.38,2.43-0.87,3.34c-0.5,0.92-1.17,1.61-2.02,2.08s-1.87,0.71-3.04,0.71C328.71,369.93,327.66,369.67,326.76,369.14
				z"/>
			<path class="st1" d="M341.88,369.16c-0.93-0.51-1.65-1.25-2.15-2.22s-0.75-2.09-0.75-3.38v-8.27c0-1.3,0.25-2.43,0.75-3.39
				c0.5-0.96,1.22-1.69,2.15-2.21c0.93-0.51,2.02-0.77,3.28-0.77c1.26,0,2.35,0.26,3.28,0.77c0.93,0.51,1.65,1.25,2.15,2.21
				c0.5,0.96,0.75,2.09,0.75,3.39v8.27c0,1.29-0.25,2.42-0.75,3.38s-1.22,1.7-2.15,2.22c-0.93,0.51-2.02,0.77-3.28,0.77
				C343.9,369.93,342.81,369.67,341.88,369.16z M346.93,366.76c0.5-0.29,0.89-0.7,1.16-1.23c0.27-0.53,0.4-1.16,0.4-1.89v-8.44
				c0-0.73-0.13-1.36-0.4-1.89c-0.27-0.53-0.66-0.94-1.16-1.23c-0.5-0.29-1.1-0.43-1.78-0.43s-1.27,0.14-1.78,0.43
				c-0.5,0.29-0.89,0.7-1.17,1.23c-0.27,0.53-0.41,1.16-0.41,1.89v8.44c0,0.73,0.14,1.36,0.41,1.89c0.27,0.53,0.66,0.94,1.17,1.23
				c0.5,0.29,1.1,0.43,1.78,0.43S346.43,367.05,346.93,366.76z"/>
			<path class="st1" d="M367.93,349.13h2.53v20.59h-2.65v-15.51l0.2,0.91l-4.3,11.48h-1.87l-4.3-11.2l0.24-1.19v15.51h-2.69v-20.59
				h2.58l5.11,13.25L367.93,349.13z"/>
			<path class="st1" d="M374.42,349.13h2.79v20.59h-2.79V349.13z M375.91,359.08h5.24c0.49,0,0.92-0.12,1.29-0.35
				c0.37-0.23,0.66-0.56,0.86-0.99c0.2-0.43,0.3-0.93,0.3-1.49v-1.59c0-0.59-0.1-1.1-0.3-1.53c-0.2-0.43-0.48-0.77-0.86-1.01
				s-0.8-0.35-1.29-0.35h-5.24v-2.65h5.15c1.11,0,2.06,0.22,2.87,0.67c0.81,0.44,1.43,1.08,1.87,1.91c0.44,0.83,0.66,1.81,0.66,2.93
				v1.64c0,1.11-0.22,2.08-0.66,2.9c-0.44,0.82-1.06,1.45-1.88,1.89c-0.81,0.44-1.77,0.66-2.86,0.66h-5.15V359.08z"/>
			<path class="st1" d="M394.48,349.13h2.46l6.17,20.59h-3l-4.4-16.48l-4.4,16.48h-3L394.48,349.13z M391.57,362.58h8.47v2.63h-8.47
				V362.58z"/>
			<path class="st1" d="M405.59,349.11h2.79v20.6h-2.79V349.11z M406.85,358.36h5.41c0.51,0,0.96-0.11,1.34-0.33
				c0.39-0.22,0.68-0.54,0.88-0.95c0.2-0.41,0.3-0.89,0.3-1.45v-1.06c0-0.57-0.1-1.06-0.3-1.49s-0.5-0.75-0.88-0.98
				c-0.38-0.23-0.83-0.34-1.35-0.34h-5.41v-2.65h5.23c1.14,0,2.14,0.21,2.98,0.64s1.49,1.04,1.95,1.84s0.68,1.75,0.68,2.83v1.2
				c0,1.1-0.23,2.05-0.69,2.86s-1.11,1.44-1.95,1.87s-1.83,0.65-2.97,0.65h-5.23V358.36z M411.43,360.37l2.71-0.65l4.28,10h-3.19
				L411.43,360.37z"/>
			<path class="st1" d="M421.59,349.13h2.79v20.59h-2.79V349.13z M422.99,349.13h9.63v2.65h-9.63V349.13z M422.99,358.18h8.5v2.63
				h-8.5V358.18z M422.99,367.07h9.63v2.65h-9.63V367.07z"/>
			<path class="st1" d="M435.74,349.11h2.79v20.6h-2.79V349.11z M437,358.36h5.41c0.51,0,0.96-0.11,1.34-0.33
				c0.39-0.22,0.68-0.54,0.88-0.95c0.2-0.41,0.3-0.89,0.3-1.45v-1.06c0-0.57-0.1-1.06-0.3-1.49s-0.5-0.75-0.88-0.98
				c-0.38-0.23-0.83-0.34-1.35-0.34H437v-2.65h5.23c1.14,0,2.14,0.21,2.98,0.64s1.49,1.04,1.95,1.84s0.68,1.75,0.68,2.83v1.2
				c0,1.1-0.23,2.05-0.69,2.86s-1.11,1.44-1.95,1.87s-1.83,0.65-2.97,0.65H437V358.36z M441.57,360.37l2.71-0.65l4.28,10h-3.19
				L441.57,360.37z"/>
		</g>
	</g>
</g>
<g id="Layer_3">
	<path class="st1" d="M365.99,256.65l4.38-10.21l-16.36-6.69h-7.76c0,0-0.15-2.06-2.22-4.21c-0.9-0.94-4.69-2.67-4.69-2.67v10.43
		l-6.29,17.39l20.33,10.24v-10.41h7.42c0,0,2.02-0.15,3.36-1.56C365.63,257.39,365.99,256.65,365.99,256.65z"/>
	<path class="st1" d="M339.11,318.41v-26.97l-41.22,0.04v26.93c0,0-0.5,3.69-5.44,3.71c-5.09,0.02-5.22-3.71-5.22-3.71l-0.29-49.67
		l-6.32-6.83c0,0-1.39-2.22,0.97-4.14c2-1.63,3.88-0.31,3.88-0.31l6.47,6.32h35.82l25.35,12.86l-3.38,14.84l-0.11,26.93
		c0,0-0.33,4.26-4.92,4.26C339.19,322.68,339.11,318.41,339.11,318.41z"/>
	<path class="st1" d="M301.22,306.11v-10.99h6.06l11.13,21.16c0,0,0.41,4.22-2.13,5.55c-4,2.09-6.47-0.77-6.47-0.77L301.22,306.11z"
		/>
	<circle class="st0" cx="353.33" cy="246.85" r="1.95"/>
	<path class="st1" d="M353.75,292.77l2.53-10.17l14.4,10.39c0,0,3.05,2.79,0.75,6.19c-2.39,3.53-6.36,2.01-6.36,2.01L353.75,292.77z
		"/>
	<g>
		<g>
			<path class="st1" d="M361.53,294.84l9.78,4.53l-7.06,7.36c0,0-3.82,1.84-5.94-0.08c-3.35-3.03-1.51-6.33-1.51-6.33L361.53,294.84
				z"/>
		</g>
	</g>
</g>
</svg>
