<svg width="322" height="80" viewBox="0 0 322 80" fill="none" xmlns="http://www.w3.org/2000/svg">
<path d="M116.324 34.1939H118.555V52.3409H116.218V38.6711L116.395 39.4732L112.602 49.5911H110.953L107.161 39.72L107.372 38.6711V52.3409H105V34.1939H107.275L111.782 45.8718L116.324 34.1939Z" fill="#EBA122"/>
<path d="M127.022 44.8494V52.3409H124.561V44.8494L119.993 34.1939H122.612L125.796 42.1965L128.918 34.1939H131.538L127.022 44.8494Z" fill="#EBA122"/>
<path d="M138.99 34.1939H141.442V52.3409H138.99V34.1939ZM140.489 50.0405H144.431C145.349 50.0405 146.028 49.8555 146.469 49.4765C146.91 49.0975 147.13 48.5599 147.13 47.8724V46.665C147.13 46.1274 147.042 45.6602 146.866 45.2813C146.689 44.9023 146.416 44.6026 146.045 44.3999C145.675 44.1972 145.225 44.0914 144.687 44.0914H140.489V41.8176H144.687C145.41 41.8176 145.957 41.6237 146.336 41.2359C146.707 40.8481 146.901 40.284 146.901 39.5349V38.6095C146.901 37.9132 146.698 37.3844 146.292 37.023C145.887 36.6617 145.296 36.4854 144.528 36.4854H140.498V34.1851H144.74C145.746 34.1851 146.592 34.3526 147.289 34.6963C147.986 35.04 148.497 35.5247 148.85 36.1593C149.203 36.7939 149.37 37.5607 149.37 38.4508V39.4203C149.37 40.0108 149.264 40.5572 149.053 41.0508C148.841 41.5444 148.524 41.9586 148.1 42.2935C147.677 42.6284 147.165 42.8487 146.557 42.9633C147.192 43.0515 147.739 43.2806 148.188 43.6331C148.647 43.9857 149 44.4352 149.238 44.964C149.476 45.5016 149.6 46.1009 149.6 46.7707V47.9958C149.6 48.886 149.414 49.6528 149.053 50.305C148.691 50.9572 148.162 51.4507 147.465 51.8032C146.769 52.1558 145.957 52.3233 145.005 52.3233H140.48V50.0405H140.489Z" fill="#EBA122"/>
<path d="M152.598 34.1763H155.059V52.3321H152.598V34.1763ZM153.709 42.3287H158.481C158.93 42.3287 159.327 42.2318 159.671 42.0379C160.015 41.844 160.271 41.562 160.447 41.2006C160.624 40.8393 160.712 40.4162 160.712 39.9227V38.9885C160.712 38.4861 160.624 38.0542 160.447 37.6752C160.271 37.3051 160.006 37.0142 159.671 36.8115C159.336 36.6088 158.939 36.5119 158.481 36.5119H153.709V34.1763H158.322C159.327 34.1763 160.209 34.3614 160.95 34.7403C161.7 35.1105 162.264 35.6569 162.67 36.362C163.076 37.0671 163.27 37.9044 163.27 38.8563V39.9139C163.27 40.8833 163.067 41.7206 162.661 42.4345C162.255 43.1484 161.682 43.7037 160.941 44.0826C160.2 44.4616 159.327 44.6555 158.322 44.6555H153.709V42.3287ZM157.749 44.1003L160.13 43.5274L163.905 52.3409H161.091L157.749 44.1003Z" fill="#EBA122"/>
<path d="M166.709 34.1939H169.17V52.3409H166.709V34.1939ZM167.953 34.1939H176.446V36.5295H167.953V34.1939ZM167.953 42.1701H175.449V44.4881H167.953V42.1701ZM167.953 50.0053H176.446V52.3409H167.953V50.0053Z" fill="#EBA122"/>
<path d="M179.189 34.1939H181.649V52.3409H179.189V34.1939ZM180.423 34.1939H188.916V36.5295H180.423V34.1939ZM180.423 42.1701H187.92V44.4881H180.423V42.1701ZM180.423 50.0053H188.916V52.3409H180.423V50.0053Z" fill="#EBA122"/>
<path d="M191.659 34.1939H194.12V52.3409H191.659V34.1939ZM193.273 50.0053H196.986C197.877 50.0053 198.565 49.7673 199.05 49.2914C199.535 48.8155 199.773 48.1457 199.773 47.2731V39.2617C199.773 38.3891 199.535 37.7105 199.05 37.2434C198.565 36.7674 197.877 36.5295 196.986 36.5295H193.273V34.1939H196.907C198.036 34.1939 199.006 34.3966 199.808 34.7932C200.611 35.1898 201.219 35.7803 201.634 36.5471C202.057 37.3139 202.26 38.2481 202.26 39.341V47.2026C202.26 48.2867 202.048 49.2121 201.634 49.9877C201.219 50.7633 200.602 51.3449 199.799 51.7504C198.997 52.1558 198.027 52.3497 196.898 52.3497H193.273V50.0053Z" fill="#EBA122"/>
<path d="M213.866 51.8297C213.073 51.3714 212.464 50.7104 212.032 49.8555C211.6 49.0006 211.388 47.987 211.388 46.8236V39.72C211.388 38.5566 211.6 37.543 212.032 36.6793C212.464 35.8156 213.073 35.1546 213.866 34.6963C214.66 34.238 215.586 34 216.662 34C217.703 34 218.602 34.2115 219.352 34.6258C220.102 35.04 220.701 35.6569 221.134 36.459C221.566 37.2698 221.821 38.2481 221.892 39.4027H219.396C219.334 38.7593 219.184 38.2129 218.946 37.7722C218.708 37.3315 218.391 36.979 217.994 36.7498C217.597 36.5207 217.156 36.3973 216.662 36.3973C216.098 36.3973 215.604 36.5295 215.198 36.8027C214.784 37.0759 214.466 37.4549 214.237 37.9573C214.008 38.4596 213.893 39.0413 213.893 39.72V46.8236C213.893 47.4935 214.008 48.084 214.237 48.5863C214.466 49.0887 214.784 49.4677 215.198 49.7321C215.613 49.9965 216.098 50.1287 216.662 50.1287C217.174 50.1287 217.615 50.0141 218.003 49.785C218.391 49.5558 218.708 49.2209 218.946 48.7714C219.184 48.3219 219.334 47.7755 219.396 47.1233H221.892C221.821 48.2779 221.557 49.265 221.125 50.067C220.684 50.8779 220.093 51.486 219.343 51.9002C218.594 52.3145 217.694 52.526 216.662 52.526C215.586 52.526 214.66 52.2968 213.866 51.8297Z" fill="#EBA122"/>
<path d="M227.201 51.8473C226.381 51.3979 225.746 50.7457 225.305 49.8907C224.864 49.0358 224.644 48.0487 224.644 46.9118V39.623C224.644 38.4773 224.864 37.4813 225.305 36.6352C225.746 35.7891 226.381 35.1458 227.201 34.6874C228.021 34.238 228.983 34.0088 230.094 34.0088C231.205 34.0088 232.167 34.238 232.987 34.6874C233.807 35.1369 234.442 35.7891 234.883 36.6352C235.324 37.4813 235.544 38.4773 235.544 39.623V46.9118C235.544 48.0487 235.324 49.0446 234.883 49.8907C234.442 50.7368 233.807 51.389 232.987 51.8473C232.167 52.2968 231.205 52.526 230.094 52.526C228.983 52.526 228.021 52.2968 227.201 51.8473ZM231.655 49.7321C232.096 49.4765 232.44 49.1152 232.678 48.648C232.916 48.1809 233.031 47.6257 233.031 46.9823V39.5437C233.031 38.9003 232.916 38.345 232.678 37.8779C232.44 37.4108 232.096 37.0495 231.655 36.7939C231.214 36.5383 230.685 36.4149 230.085 36.4149C229.486 36.4149 228.965 36.5383 228.515 36.7939C228.074 37.0495 227.73 37.4108 227.484 37.8779C227.245 38.345 227.122 38.9003 227.122 39.5437V46.9823C227.122 47.6257 227.245 48.1809 227.484 48.648C227.722 49.1152 228.066 49.4765 228.515 49.7321C228.956 49.9877 229.486 50.1111 230.085 50.1111C230.685 50.1111 231.214 49.9877 231.655 49.7321Z" fill="#EBA122"/>
<path d="M250.176 34.1939H252.407V52.3409H250.07V38.6711L250.246 39.4732L246.454 49.5911H244.805L241.012 39.72L241.224 38.6711V52.3409H238.852V34.1939H241.127L245.634 45.8718L250.176 34.1939Z" fill="#EBA122"/>
<path d="M255.9 34.1939H258.36V52.3409H255.9V34.1939ZM257.214 42.9633H261.835C262.267 42.9633 262.646 42.8576 262.973 42.6549C263.299 42.4522 263.555 42.1613 263.731 41.7823C263.908 41.4033 263.996 40.9627 263.996 40.4691V39.0678C263.996 38.5478 263.908 38.0983 263.731 37.7193C263.555 37.3403 263.308 37.0407 262.973 36.8291C262.638 36.6176 262.267 36.5207 261.835 36.5207H257.214V34.1851H261.756C262.735 34.1851 263.572 34.379 264.287 34.7756C265.001 35.1634 265.548 35.7275 265.936 36.459C266.324 37.1905 266.518 38.0542 266.518 39.0413V40.4867C266.518 41.465 266.324 42.32 265.936 43.0427C265.548 43.7654 265.001 44.3206 264.278 44.7084C263.564 45.0962 262.717 45.2901 261.756 45.2901H257.214V42.9633Z" fill="#EBA122"/>
<path d="M273.591 34.1939H275.761L281.202 52.3409H278.557L274.676 37.8162L270.795 52.3409H268.15L273.591 34.1939ZM271.025 46.048H278.495V48.366H271.025V46.048Z" fill="#EBA122"/>
<path d="M283.39 34.1763H285.85V52.3321H283.39V34.1763ZM284.501 42.3287H289.272C289.722 42.3287 290.119 42.2318 290.454 42.0379C290.798 41.844 291.054 41.562 291.23 41.2006C291.406 40.8393 291.495 40.4162 291.495 39.9227V38.9885C291.495 38.4861 291.406 38.0542 291.23 37.6752C291.054 37.2962 290.789 37.0142 290.454 36.8115C290.119 36.6088 289.722 36.5119 289.263 36.5119H284.492V34.1763H289.105C290.11 34.1763 290.992 34.3614 291.733 34.7403C292.473 35.1193 293.047 35.6569 293.452 36.362C293.858 37.0671 294.052 37.9044 294.052 38.8563V39.9139C294.052 40.8833 293.849 41.7206 293.444 42.4345C293.038 43.1484 292.465 43.7037 291.724 44.0826C290.983 44.4616 290.11 44.6555 289.105 44.6555H284.492V42.3287H284.501ZM288.54 44.1003L290.93 43.5274L294.705 52.3409H291.891L288.54 44.1003Z" fill="#EBA122"/>
<path d="M297.501 34.1939H299.961V52.3409H297.501V34.1939ZM298.735 34.1939H307.228V36.5295H298.735V34.1939ZM298.735 42.1701H306.232V44.4881H298.735V42.1701ZM298.735 50.0053H307.228V52.3409H298.735V50.0053Z" fill="#EBA122"/>
<path d="M309.98 34.1763H312.441V52.3321H309.98V34.1763ZM311.091 42.3287H315.863C316.312 42.3287 316.709 42.2318 317.044 42.0379C317.388 41.844 317.644 41.562 317.82 41.2006C317.997 40.8393 318.085 40.4162 318.085 39.9227V38.9885C318.085 38.4861 317.997 38.0542 317.82 37.6752C317.644 37.2962 317.379 37.0142 317.044 36.8115C316.709 36.6088 316.312 36.5119 315.854 36.5119H311.091V34.1763H315.704C316.709 34.1763 317.591 34.3614 318.332 34.7403C319.073 35.1193 319.646 35.6569 320.052 36.362C320.457 37.0671 320.651 37.9044 320.651 38.8563V39.9139C320.651 40.8833 320.449 41.7206 320.043 42.4345C319.637 43.1484 319.064 43.7037 318.323 44.0826C317.582 44.4616 316.709 44.6555 315.704 44.6555H311.091V42.3287ZM315.122 44.1003L317.512 43.5274L321.286 52.3409H318.473L315.122 44.1003Z" fill="#EBA122"/>
<path d="M76.3712 21.7195L80.2341 12.721L65.8056 6.82472H58.9617C58.9617 6.82472 58.8295 5.00913 57.0038 3.11422C56.2101 2.28575 52.8676 0.761017 52.8676 0.761017V9.95352L47.3202 25.2802L65.25 34.3052V25.1304H71.7939C71.7939 25.1304 73.5755 24.9982 74.7573 23.7555C76.0537 22.3717 76.3712 21.7195 76.3712 21.7195Z" fill="#EBA122"/>
<path d="M52.6647 76.1517V52.3817L16.3112 52.417V76.1517C16.3112 76.1517 15.8703 79.4039 11.5135 79.4215C7.02444 79.4392 6.90978 76.1517 6.90978 76.1517L6.65402 32.3751L1.08016 26.3555C1.08016 26.3555 -0.145731 24.3989 1.93564 22.7067C3.69952 21.2701 5.35757 22.4334 5.35757 22.4334L11.0637 28.0036H42.6547L65.0118 39.3378L62.0309 52.417L61.9339 76.1517C61.9339 76.1517 61.6428 79.9063 57.5948 79.9063C52.7353 79.9151 52.6647 76.1517 52.6647 76.1517Z" fill="#EBA122"/>
<path d="M19.2481 65.3111V55.6251H24.5926L34.4086 74.2745C34.4086 74.2745 34.7702 77.9937 32.5301 79.1659C29.0023 81.008 26.8239 78.4873 26.8239 78.4873L19.2481 65.3111Z" fill="#EBA122"/>
<path d="M65.5763 53.5539L67.8076 44.5906L80.5075 53.7478C80.5075 53.7478 83.1974 56.2068 81.169 59.2034C79.0611 62.3145 75.5598 60.9749 75.5598 60.9749L65.5763 53.5539Z" fill="#EBA122"/>
<path d="M72.4378 55.3783L81.0631 59.3708L74.8366 65.8576C74.8366 65.8576 71.4676 67.4792 69.5979 65.787C66.6434 63.1166 68.2662 60.2081 68.2662 60.2081L72.4378 55.3783Z" fill="#EBA122"/>
</svg>
